<svg xmlns="http://www.w3.org/2000/svg" viewBox="0 0 59.72 59.38"><defs><style>.cls-1{fill:#343131;}</style></defs><title>facebook icon</title><g id="Lager_2" data-name="Lager 2"><g id="Lager_1-2" data-name="Lager 1"><g id="facebook_icon" data-name="facebook icon"><path class="cls-1" d="M0,32.27v-5a9.18,9.18,0,0,0,.23-1A29.87,29.87,0,1,1,34.71,59.31c-.71.11-1.24.22-1.24-.87.05-7.08,0-14.16,0-21.24,0-.82.26-1.08,1.06-1.06,1.72,0,3.45,0,5.18,0,.57,0,1,0,1.12-.78.26-2.24.53-4.47.85-6.7.11-.83-.25-.94-.95-.93-2.08,0-4.16,0-6.24,0-.46,0-1,.15-1-.66,0-1.9-.05-3.81.12-5.7s1.24-2.87,3.24-2.95c1.46-.06,2.92,0,4.38,0,.52,0,.87-.09.86-.71q0-3.12,0-6.24c0-.51-.29-.66-.76-.68a52.6,52.6,0,0,0-6.76-.22c-5.64.41-9.3,4.1-9.61,9.74-.12,2.07-.11,4.16-.05,6.24,0,1-.3,1.28-1.28,1.23-1.63-.08-3.27,0-4.91,0-.77,0-1.11.15-1.09,1,.06,2.13.05,4.25,0,6.37,0,.84.3,1.07,1.09,1,1.59,0,3.19.06,4.77,0,1.1-.06,1.42.29,1.41,1.4-.05,6.77-.06,13.54,0,20.31,0,1.33-.41,1.48-1.5,1.19C11.89,56,4.35,48.94,1,37.46.5,35.75.44,34,0,32.27Z"/></g></g></g></svg>