<svg xmlns="http://www.w3.org/2000/svg" viewBox="0 0 60.55 60.58"><defs><style>.cls-1{fill:#343131;}</style></defs><title>instagram icon</title><g id="Lager_2" data-name="Lager 2"><g id="Lager_1-2" data-name="Lager 1"><g id="instagram_icon" data-name="instagram icon"><path class="cls-1" d="M30.28,0A30.29,30.29,0,1,1,0,30.28,30.29,30.29,0,0,1,30.28,0Zm-.05,48.56c1.78,0,3.56,0,5.34,0a23.28,23.28,0,0,0,4.86-.39,9.43,9.43,0,0,0,7.66-7.52,22.75,22.75,0,0,0,.43-5.14c0-3.5,0-7,0-10.49a23.85,23.85,0,0,0-.38-4.92,9.43,9.43,0,0,0-7.07-7.58A18.81,18.81,0,0,0,36.34,12c-4.07-.09-8.14-.08-12.21,0a20.52,20.52,0,0,0-4.14.39,9.41,9.41,0,0,0-7.44,6.88A17.65,17.65,0,0,0,12,24q-.13,6.23,0,12.44a19.45,19.45,0,0,0,.38,4,9.43,9.43,0,0,0,7.48,7.6,23.42,23.42,0,0,0,5.08.44C26.69,48.58,28.46,48.56,30.23,48.56Z"/><path class="cls-1" d="M15.21,30.27c0-2.56,0-5.11.11-7.66a10.29,10.29,0,0,1,.52-2.91,6.12,6.12,0,0,1,4.67-4.09,16.29,16.29,0,0,1,3.19-.33c2.69-.11,5.39-.06,8.08-.07,2,0,4.08,0,6.11.12a9.45,9.45,0,0,1,3.48.75,6.13,6.13,0,0,1,3.52,4.48,16.71,16.71,0,0,1,.33,3.3q.15,6.39,0,12.78a15.06,15.06,0,0,1-.4,3.6A6.22,6.22,0,0,1,39.65,45a16.43,16.43,0,0,1-2.89.26q-6.53.16-13,0a14.36,14.36,0,0,1-3.52-.41,6.16,6.16,0,0,1-4.65-5.1,31,31,0,0,1-.34-5.44C15.19,33,15.21,31.61,15.21,30.27Zm15-9.41a9.4,9.4,0,1,0,9.4,9.45A9.4,9.4,0,0,0,30.24,20.86ZM40,22.68a2.19,2.19,0,1,0-2.23-2.14A2.19,2.19,0,0,0,40,22.68Z"/><path class="cls-1" d="M24.11,30.25a6.13,6.13,0,1,1,6.11,6.13A6.14,6.14,0,0,1,24.11,30.25Z"/></g></g></g></svg>