<svg xmlns="http://www.w3.org/2000/svg" viewBox="0 0 137.31 137.3"><title>spotify icon</title><g id="Lager_2" data-name="Lager 2"><g id="Lager_3" data-name="Lager 3"><path d="M0,68.63C-.19,30.35,31,.72,66.61,0c19.2-.38,35.91,5.87,49.71,19.21,14.34,13.87,21.27,31,21,51a68.48,68.48,0,0,1-70.16,67.1,66.37,66.37,0,0,1-47.61-20.65C6.52,103.34.14,87.22,0,68.63ZM59.1,36.05c-3.1,0-5.65.05-8.21.27-1.87.16-3.76.15-5.62.38-2.09.25-4.19.49-6.27.79s-4,.66-6.06,1-4.3,1-6.41,1.61a8.78,8.78,0,0,0-2.52,1,6.5,6.5,0,0,0-.69,10.55A6.14,6.14,0,0,0,29.51,53c1.58-.52,3.21-.88,4.83-1.24,1.85-.42,3.72-.76,5.59-1.08,1.49-.26,3-.46,4.48-.61,1.13-.11,2.25-.32,3.4-.36.73,0,1.47,0,2.21-.11,2.5-.28,5-.19,7.54-.38a35.33,35.33,0,0,1,4.11.12c3.39.15,6.78.22,10.15.63,1.67.21,3.34.33,5,.58,2.68.39,5.34.86,8,1.4,2.5.51,5,1.13,7.42,1.84a79.5,79.5,0,0,1,9.47,3.36,58.41,58.41,0,0,1,7.36,3.73A6.57,6.57,0,0,0,119,53.7a6.46,6.46,0,0,0-2.9-4,58.64,58.64,0,0,0-6.21-3.31A91.11,91.11,0,0,0,98.7,42c-2.44-.77-4.89-1.48-7.36-2.11S86.6,38.8,84.2,38.39c-2.12-.36-4.23-.74-6.35-1.06-1.63-.24-3.27-.35-4.9-.57-2.68-.36-5.4-.35-8.11-.57A48.21,48.21,0,0,0,59.1,36.05ZM56.39,59.82c-1.26.09-3.22,0-5.18.14-2.82.19-5.63.44-8.43.82-1.71.23-3.42.49-5.1.85-2.13.46-4.26.93-6.36,1.55a13.22,13.22,0,0,0-3,1.06,5.55,5.55,0,0,0-2.26,6.92,5.82,5.82,0,0,0,5.52,3.3,28.11,28.11,0,0,0,3-.8c2.29-.58,4.58-1.12,6.91-1.5,1.12-.18,2.24-.39,3.37-.53,1.29-.15,2.58-.28,3.88-.39,1.63-.14,3.27-.33,4.91-.38s3.3,0,5,0a18.81,18.81,0,0,1,2.91,0c1.46.23,2.93.24,4.39.37,1.89.18,3.77.43,5.65.68,1.34.19,2.65.51,4,.73,1.62.25,3.22.63,4.81,1,2.19.56,4.37,1.2,6.51,1.92s4.3,1.56,6.39,2.48a69.76,69.76,0,0,1,8,4.2,5,5,0,0,0,4.26.55,5.35,5.35,0,0,0,3.89-4.31,5.13,5.13,0,0,0-2.15-5.37,51.56,51.56,0,0,0-8-4.43A89.59,89.59,0,0,0,88.4,64.53a107.42,107.42,0,0,0-10.55-2.72c-2.88-.59-5.79-1.06-8.71-1.38-2.53-.29-5.09-.45-7.64-.6C60,59.75,58.55,59.82,56.39,59.82Zm3.2,31.41a53.53,53.53,0,0,1,9.51.62c2,.27,4,.64,6,1.09a72.72,72.72,0,0,1,7.14,2,63.44,63.44,0,0,1,11.83,5.54,4.21,4.21,0,0,0,3.87.54,4.41,4.41,0,0,0,.83-8,73.2,73.2,0,0,0-21.67-8.75c-2.51-.58-5-1-7.59-1.35-2-.28-4.12-.46-6.19-.58a103.73,103.73,0,0,0-13.54.21l-.29,0c-1.5.12-3,.29-4.5.48-1.67.2-3.33.44-5,.71-1.24.2-2.48.44-3.71.69-1.54.3-3.08.59-4.59,1a4.4,4.4,0,0,0-.1,8.47,5.1,5.1,0,0,0,2.63,0c1.71-.35,3.39-.76,5.12-1,1.43-.21,2.85-.54,4.28-.72,1.23-.15,2.47-.28,3.69-.44,1.87-.25,3.73-.43,5.6-.5C55.16,91.17,57.42,91.23,59.59,91.23Z"/></g></g></svg>