<svg xmlns="http://www.w3.org/2000/svg" viewBox="0 0 59.5 59.54"><defs><style>.cls-1{fill:#343131;}</style></defs><title>youtube icon</title><g id="Lager_2" data-name="Lager 2"><g id="Lager_1-2" data-name="Lager 1"><path class="cls-1" d="M28.61,0h2.32c.27,0,.53.09.8.12,1.34.18,2.7.26,4,.53A28.31,28.31,0,0,1,49.36,7.43c8.41,7.69,11.63,17.23,9.51,28.4A28.08,28.08,0,0,1,47.75,53.45a28.89,28.89,0,0,1-24.09,5.42A28.8,28.8,0,0,1,6.13,47.8,28.7,28.7,0,0,1,.35,34C.21,33,.11,32,0,31.05V28.49c0-.26.09-.53.12-.8.18-1.3.26-2.62.53-3.9A29.4,29.4,0,0,1,12.93,5.29,28.75,28.75,0,0,1,25.68.34C26.66.21,27.63.11,28.61,0ZM29.9,41.26v-.07c2.38,0,4.77,0,7.15,0,1.68,0,3.36-.08,5-.25,2.28-.24,2.75-.75,3.25-2.73a5,5,0,0,0,.15-.86c.12-2.92.33-5.84.32-8.75,0-2.36-.22-4.71-.46-7.06a2.7,2.7,0,0,0-2-2.66,7.53,7.53,0,0,0-1.48-.26c-2.7-.13-5.41-.29-8.11-.32-3.49,0-7,0-10.46.07-1.37,0-2.75.06-4.12.14-.84.05-1.68.19-2.52.32a2.23,2.23,0,0,0-1.94,1.76,16.63,16.63,0,0,0-.54,3c-.13,2.55-.23,5.11-.2,7.66,0,2.2.19,4.41.43,6.6s1.12,3,3.24,3.14,4,.27,6,.32S27.83,41.26,29.9,41.26Z"/><path class="cls-1" d="M35.55,29.78l-9.4,4.9v-9.8Z"/></g></g></svg>