<svg xmlns="http://www.w3.org/2000/svg" viewBox="0 0 401.13 525.44"><title>dront</title><g id="Lager_2" data-name="Lager 2"><g id="Lager_1-2" data-name="Lager 1"><path d="M383.79,254.9c-.17-.26.11-.74-.38-.84s-.61.32-.74.58a10.85,10.85,0,0,1-2.18,3.41c-1.16,1.11-2.45,2.38-4.06,2a4,4,0,0,0-3,.6c-1.92,1-2.41,2.85-2.58,4.76-.08.94-.76,2.09.45,2.88a.26.26,0,0,1,0,.23c-.72,1.35-.29,2.83-.49,4.24a2.74,2.74,0,0,0,.53,2.54,2.87,2.87,0,0,1,.57,1.51c.08.59.21,1,.85,1.23.4.13.69.41.36.84s-.73.62-1.19.23c-1.33-1.13-2.62-2.31-4-3.4-.38-.31-.16-.84-.69-1.1a13.55,13.55,0,0,0-1.7,3.48,12.85,12.85,0,0,1-.94,2.15c-1,2.17-.7,4.42-.4,6.59.14,1,1.38,1.8,2.4,2.35s.72,1.38.46,2-.87.21-1.38,0c-2.09-.75-3.35-2.6-5-3.87-1-.78-1.35-2.35-1.41-3.82a41.09,41.09,0,0,0-.91-7.21,20.32,20.32,0,0,0-3.64-7.29,22.47,22.47,0,0,1-3.55-7,14.73,14.73,0,0,1-.17-3.53c0-.71-.14-1-.91-.44a2.46,2.46,0,0,1-3.43-1.19c-.09-.37-.18-.68.27-.81s.45.05.63.38c.73,1.29,1.52,1.2,2.35,0a6,6,0,0,0,1.21-3.08c0-.26.11-.58.4-.58.44,0,.29.42.34.68s0,.25,0,.38c.07.48-.37,1.22.14,1.39.73.26.82-.75.91-1.08.58-2.3,2.08-4.29,2.09-6.78,0-.89-.18-1.73-.13-2.64-.59.13-.4.49-.4.74,0,2.72-1.54,3.95-4.24,3.68a6.48,6.48,0,0,1-4.64-4.2,2.77,2.77,0,0,0-.4-1.3c-.63-.79.31-1.12.66-1.45s.38.22.4.49a5.29,5.29,0,0,0,2,4c2,1.65,4.25,1.09,5.55-1.11.66-1.12.36-2.49,1.22-3.48,1,2.44,1.6,4.93.86,7.49a21.48,21.48,0,0,1-2.25,5.58,6.18,6.18,0,0,0-1.13,3.65,12.53,12.53,0,0,0,2.18,7.3,35.76,35.76,0,0,1,4.43,7.64,16.07,16.07,0,0,1,.38,2,18.27,18.27,0,0,1,.76,6.28c-.13,1.37.74,2.54.82,3.9,0,.53.88.69,1.43.79.36.06.34-.31.18-.53a2.27,2.27,0,0,1,.06-2.77,1,1,0,0,0,.14-.49,14.87,14.87,0,0,1,1.22-5.17,27.66,27.66,0,0,1,1.82-3.86c.19-.38.43-.83.21-1.11a3.44,3.44,0,0,1-.37-2.53,17.77,17.77,0,0,0-.81-5.11c-.58-2.4-1.34-4.8-.53-7.5.63-2.1,1.52-4.27,1.4-6.56,0-.62.48-1,.32-1.77-.53-2.53-2.53-3.85-4.15-5.45a26,26,0,0,1-3.49-4.56c-.47-.73-1.33-1-1.79-1.74a10.6,10.6,0,0,0-1.75-1.72,7.06,7.06,0,0,0-.06,1.42,4.16,4.16,0,0,1-.87,2.94,2,2,0,0,1-2.42,1,7.18,7.18,0,0,1-4.27-3.72c-.38.55-.77,1.15-1.2,1.72-.92,1.21-2.44,1.43-3.72,1.79a3,3,0,0,1-3.22-1.33c-.94-1.52-2-3-2.29-4.84a6.36,6.36,0,0,1,0-1.51.81.81,0,0,1,1-.81c.64.11.74.57.57,1a3.51,3.51,0,0,0,.13,2.48,5,5,0,0,0,1.55,2.43,3.73,3.73,0,0,0,5.54-1.36c.3-.53.79-.91.66-1.63-.05-.26.21-.44.5-.45a.38.38,0,0,1,.43.49c-.17.77.28,1,.84,1.41s1,1.45,1.8,2c.57.43,1.23.66,1.8,1.07a.92.92,0,0,0,1.42-.54,5.2,5.2,0,0,0,.37-3.87,1.93,1.93,0,0,0-1-1.18,10.4,10.4,0,0,1-3.37-3.84c1.3.26,1.56,1.92,3,2.13-.88-1.6-1.73-3.11-2.54-4.64a27.42,27.42,0,0,1-1.3-2.81c-.24-.63-.57-.63-.83-.18-.65,1.08-1.24.48-1.79,0-1.75-1.5-2.88-3.53-4.46-5.17a10.24,10.24,0,0,1-2.44-5.32,11.41,11.41,0,0,1-.22-5,4.74,4.74,0,0,0-.19-2.75,2.23,2.23,0,0,0-.52-.77c-.85-.9-3.52-1.31-4.7-1-.94.27-2.05.59-3-.25-.12-.11-.24-.25-.41-.15-1.8,1.15-3.6.85-5.39,0a7,7,0,0,1-1.86-1.7,14.83,14.83,0,0,1-3.26-6.56c-.09-.31-.34-.91.25-1.09s.7.41.85.83c.53,1.47,1,3,1.61,4.39a5,5,0,0,0,2.25,2.32c1,.57,2,1.2,3.28.85a.57.57,0,0,1,.68.24c.25.44.49,1,.78,0a.44.44,0,0,1,.42-.16c1.09.46,2.1-.32,3.24-.17.9.11,2,0,3,0a4.62,4.62,0,0,1,4,2.9c1,2.28.34,4.64.48,7A10.25,10.25,0,0,0,341.5,218c1.14,2.06,2.84,3.61,4.27,5.4a1.81,1.81,0,0,0,1.69.66c.4,0,.7-.15.51-.61-.58-1.42.11-2.74.43-4,.68-2.77,2.5-5.12,3.15-7.93.09-.39.1-.76.66-.69s.35.56.41.88a4.72,4.72,0,0,1-1.08,3.23,27.42,27.42,0,0,0-2.14,5.62,5.54,5.54,0,0,0,.32,3.86,29.28,29.28,0,0,0,2,4.81,18.82,18.82,0,0,0,2.57,3.41,37.9,37.9,0,0,1,2.76,3.25c.5-3.19,2.34-5.68,3.24-8.54.12-.39.52-.82,1-.6s.28.73.12,1.11c-.57,1.38-1.29,2.71-1.73,4.12-.79,2.58-1,5.16.85,7.45a31.49,31.49,0,0,0,3.08,4c.78.72,1.52,1.5,2.28,2.21a3.9,3.9,0,0,1,1.3,2.36,15.21,15.21,0,0,1-.38,5.64c-.68,3.14-1.8,6.32-1.15,9.66a26.22,26.22,0,0,0,1.08,3.39,20.65,20.65,0,0,1,.57,4.32,5.78,5.78,0,0,0,1.49,3.44c.55.59.41,1.84,1.75,1.77a9.27,9.27,0,0,1-.78-4.11c0-1.34-.29-2.72-.24-4a13.5,13.5,0,0,1,.8-5.21,10.61,10.61,0,0,1,1.64-2.76,4.68,4.68,0,0,1,3.81-1.45c2.53.18,4.31-1.51,5.28-3.47.14-.29-.07-.3-.22-.45a15.26,15.26,0,0,1-1.13-1.28c.83-.38,2-.19,1.81-1.63-.09-.77.4-1.47.1-2.47a21.94,21.94,0,0,1-1.21-6.59c0-.32-.12-.76.34-.84s.46.4.55.69c.54,1.75.82,3.57,1.23,5.35a18.84,18.84,0,0,1,.43,3.93c0,.23-.11.56.28.58a.75.75,0,0,0,.63-.35,11.6,11.6,0,0,0,2.85-7.07c0-.91.52-1.62.54-2.51,0-1.83-.87-3.49-.87-5.3a8.51,8.51,0,0,0-.26-1.38,1.68,1.68,0,0,1-2.12.74,4.35,4.35,0,0,1-1.89-1.49c-1.48-1.8-1.71-4.08-2.65-6.07a24.45,24.45,0,0,1-1.26-3,7.6,7.6,0,0,1,.17-5.09c1-2.42,2.38-4.69,3.45-7.08a6.61,6.61,0,0,0,.07-4.89,7,7,0,0,0-.68-2c-.11-.15,0-.48.05-.73.22.11.5.16.64.33,1.46,1.72,1.55,5.49.67,7.68s-2.09,4.19-2.93,6.38a7.06,7.06,0,0,0-.12,4.95c1.17,2.7,1.23,5.85,3.29,8.19a14.53,14.53,0,0,0,1.57,1.47c.27.23.58.71.94.39a1.06,1.06,0,0,0,0-1.29,7.1,7.1,0,0,1-.44-6.16,7.69,7.69,0,0,1,2.48-3.67c2.31-1.68,2.73-3.9,2.69-6.47a74.65,74.65,0,0,1,.12-10.26c.21-1.64.35-3.64,2-5.34a22.66,22.66,0,0,1-.57,2.65c-1,2.92-.57,5.87-.36,8.83a29,29,0,0,1-.06,3.49c0,.46-.2.9.31,1.24.12.08.15.41.1.6a11,11,0,0,1-3.58,6.2c-2.26,1.82-2.71,4.68-2.46,7.23,0,.19,0,.35.26.34s.4-.29.47-.52a24.89,24.89,0,0,1,1.58-3.19,8.67,8.67,0,0,1,3.77-3.85,10.39,10.39,0,0,0,4-3.75,33.5,33.5,0,0,0,2.09-4.56c.47-1.18-.74-2-1.17-2.88a5.18,5.18,0,0,1-.49-2.5c.06-2.1.8-4.1,1-6.2a8.41,8.41,0,0,1,1-2.62,30.13,30.13,0,0,0,1.48-4.67c.32-1.17-.53-2.21-.77-3.34a13.42,13.42,0,0,0-3.32-5.89c-.61-.7-1.6-1-2.08-1.82a.39.39,0,0,0-.34-.08c-.26.09-.22.36-.17.54a24.11,24.11,0,0,0,1,3.16c.54,1.21.11,2.52.55,3.73.09.25-.19.46-.45.52s-.4-.16-.56-.39c-.84-1.2-.58-2.66-1-4s-.85-2.53-1.17-3.8c-.71-2.8-3-4.52-4.3-6.87a34.39,34.39,0,0,0-3.07-5.34c-1.35-1.67-2.47-3.62-4.79-4.32a2.27,2.27,0,0,1-1.69-1.5c-1.07.35-1.79-.49-2.47-1a29.14,29.14,0,0,0-3.18-1.45,16.33,16.33,0,0,0-3.57-1c-.34-.09-.5.13-.63.46-.73,1.9-3.49,2.59-5.32,1.64-2.16-1.13-3.42-3.15-5.22-4.62a5.8,5.8,0,0,0-5.06-1.14c-.42.09-.94.59-1.21,0-.19-.4.21-.86.63-1.12,1.38-.84.22-1-.36-1.3a12.51,12.51,0,0,0-6.34-.94c-1.81.17-3.65-.67-5.41,0-1.36.57-2.82.79-4.2,1.37a22.84,22.84,0,0,0-3.62,1.76,11.15,11.15,0,0,0-4.32,4.4c-.07.15-.34.2-.52.29-.33-.37.06-.73,0-1.15-1.17.21-.78,1.3-1.1,1.95s-.66,1.47-1.05,2.35c-.69-1.62-.05-2.87.61-4a41.78,41.78,0,0,1,3.31-5.22,2.33,2.33,0,0,1,1-.92c.49-.16.66-.46.64-1.06a7.59,7.59,0,0,0-3.36,1.93c-1.22,1.21-2.58,2.28-3.7,3.57a24.25,24.25,0,0,0-2.32,3.34c-1.17,2-2,4.15-3.1,6.09a21.27,21.27,0,0,0-2.62,6.9,19.35,19.35,0,0,1-1.58,4.07,3.38,3.38,0,0,1-2.75,2.18c-.65.06-1.44-.08-1.93.8-.24.44-1.09.31-1.64,0-2.05-1.31-4.08-2.67-6.16-3.93-1.75-1.06-3.58-2-5.33-3s-3.69-2.23-5.41-3.51a62.87,62.87,0,0,0-5.56-3.47c-3.42-2.06-6.89-4.06-10.42-5.93a53.77,53.77,0,0,0-9.71-4.35c-2.5-.74-5-1.48-7.53-2.18-1.72-.47-3.48-.66-5.19-1.05a13.53,13.53,0,0,0-5.72.17,10.62,10.62,0,0,1-5.93-.18c-1.17-.43-2.6-.23-3.72-.74a40,40,0,0,1-4.4-1.91,14.52,14.52,0,0,0-7.42-2.4c-1.79,0-3.56-.76-5.36-1a14.7,14.7,0,0,1-4.7-1.23c-1.21-.65-2.58-.85-3.74-1.64-.77-.52-1.86,0-2.74-.33-3-1.05-6.24-.39-9.22-1.48a8.49,8.49,0,0,0-3.21-.31c-2.92.08-5.83.24-8.75.35a3.66,3.66,0,0,0-1.77.76c-1.74,1.12-3.78.59-5.61,1.05-3.5.87-7.22.51-10.57,2.1a10.08,10.08,0,0,1-2.24.38,62.12,62.12,0,0,1-7.3,1.39c-2,.13-3.95.12-5.92.27a2.31,2.31,0,0,1-1.53-.67,10.21,10.21,0,0,0-5.5-2.23,6.38,6.38,0,0,0-4.21.71c-1.45.95-2.84,2.08-4.75,2.12a6.64,6.64,0,0,1-3.52-.52,1,1,0,0,0-.49-.07,7.2,7.2,0,0,1-4.88-1.83,25,25,0,0,0-3.42-2c-1.66-.85-3.36-4.11-2.91-6a1.19,1.19,0,0,1,.75-.86,2.41,2.41,0,0,0,1.62-2.61c-.15-1.1.17-2.28-.71-3.24a.7.7,0,0,1,.09-.94,1.55,1.55,0,0,0,.53-1.35c.11-2.95,2-4.95,3.66-7.06a7.28,7.28,0,0,1,2-1.86,2.08,2.08,0,0,0,1.24-2.49c-.3-1.54.72-2.56,1.36-3.72a22.86,22.86,0,0,1,7.84-7.95,6.78,6.78,0,0,1,1.49-1,1.15,1.15,0,0,0,.83-1.35c-.06-1,0-1.85,1.11-2.27a.5.5,0,0,0,.27-.24c.47-2,2-3.6,1.93-5.84a8,8,0,0,1,2.5-6.15c.06,0,.05-.19.11-.22,1-.44,2.06-1,1.86-2.33-.15-1,0-2.06-.57-3a1.91,1.91,0,0,1-.06-1.71,4.82,4.82,0,0,0,.43-2.64c.09-1.42,1-2.52,1.38-3.85a20.64,20.64,0,0,1,.32-2.25c.41-1.09,1-2.11,1.35-3.26a11.59,11.59,0,0,1,1-1.59c.6-1.2-.16-2.13-.27-3.16a8.42,8.42,0,0,1,.45-3.7c.5-1.54,1.4-3,1.44-4.72s-1-3.06-1.51-4.59a3.16,3.16,0,0,1-.21-1.89,20.74,20.74,0,0,0,.45-8.26,2.16,2.16,0,0,0-.59-1c-1.18-1.6-1.39-3.53-2-5.32-.81-2.5-1.33-5.08-3-7.27-.66-.88-.78-2.15-1.29-3.2a26.41,26.41,0,0,1-1-3.42,6.47,6.47,0,0,0-3.24-3.62c-1-.49-1.93-1.07-2.89-1.58a7.18,7.18,0,0,0-3.08-1.18,6.43,6.43,0,0,1-3.25-1.32,6.83,6.83,0,0,1-2.82-4.13c-.47-1.78-1.85-1.65-2.93-2.09a4.41,4.41,0,0,0-2.85,0,2.64,2.64,0,0,1-1.48-.18,47.66,47.66,0,0,1-5.82-2.06,38,38,0,0,1-4.71-2.78,19.42,19.42,0,0,0-5.14-2.29c-1.92-.56-4-.86-5-3.06a1.35,1.35,0,0,0-2-.33c-1.85,1.39-3.35.1-5-.45a23,23,0,0,0-4.06-1.34c-1.14-.16-2.09.81-3.07,1.38-1.44.84-2.76,2.21-4.6,1.77-1.1-.26-2.23-.18-3.27-.46a1.87,1.87,0,0,0-2.29,1,1.39,1.39,0,0,1-1,.67c-2.29.62-3.07,1.4-3.36,3.82-.17,1.39-1.65,1.36-2.15,2.31-.76,1.42-2.52,1.36-3.54,2.46a1.53,1.53,0,0,0-.26,1.79c.22.67,1.37,1.49-.32,1.83.13,1.3-1.23,2.06-1.18,3.38s.13,2.37,1.25,3.19c.29.22.52.3.77.16,1.09-.63,2.4-.85,3.35-1.73s2.09-.52,3.08-.33a4.93,4.93,0,0,1,1.81.71c2,1.51,4.19.94,6.33.39.27-.07.43-.49.7-.67,1.6-1.08,2.46-.95,4.17.32a9.64,9.64,0,0,0,8,2.06,12,12,0,0,1,3.55-.42c1.41.09,2.64,1,4.08,1,.32,0,.37.25.45.51.57,1.92,1.94,3.54,2.15,5.6a1.26,1.26,0,0,0,.7.95c1.09.69,2.07,1.61,3.53,1.45.61-.07,1.3-.07,1.53.77a.47.47,0,0,0,.41.2c1.51-.33,2.19.87,3.11,1.64a.55.55,0,0,1,.24.55c-.27,1.13.51,2.06.58,3.12a2.55,2.55,0,0,0,2.26,2.17c1.38.3,1.61,1.36,2,2.24A19.15,19.15,0,0,1,122.86,51a3.47,3.47,0,0,0,1.51,2.61c2.06,1.43,2,3.44,1.74,5.53a15,15,0,0,0-.51,3c.12,1.22-.34,2.36-.09,3.52a1.31,1.31,0,0,1-.44,1.24,4.83,4.83,0,0,0-1.51,4.31c.22,1.53-1.32,3.65-2.82,3.64-1.19,0-1.48.61-1.64,1.53a1.22,1.22,0,0,0,0,.5c.29,1.22-1.73,1.18-1.33,2.74.29,1.14-1.19,1.69-2.2,2.18-1.51.72-3.19,1.25-4.56,2.06-1.82,1.08-3.34.52-5.07.44a4.51,4.51,0,0,0-3.42,1.29c-1.08,1-2,2.5-3.88,2.42A32.42,32.42,0,0,1,95.05,88c-1.54-.25-2.83.47-4.08,1a5.66,5.66,0,0,0-3.69,4.38C87,95,87.83,95.79,89,96.41c.5.27.67.53.49,1s-.57,0-.86,0c0,0-.08,0-.12-.05-2.51-.79-2.63-.8-2.39-3.24.12-1.18-.25-1.25-1.14-1.08-1.35.27-2.44-.69-3.73-.79-1.71-.14-2.81.58-2.63,2.25s-1,2.24-1.61,3.31a2.27,2.27,0,0,1-2,1.34c-.61,0-.81.33-.77,1a12.38,12.38,0,0,1-.92,6.06c-.34.73.37,2.54,1,3,.47.35.34-.35.64-.31s.59-.32.76.06.17.65-.19.78c-.54.21-.85,1.09-1.6.65s-1.9-.5-1.94-1.84a8.06,8.06,0,0,1,.84-4.59c.68-1.15.39-2.44.14-3.66-.12-.59-.41-.22-.68,0a4.29,4.29,0,0,0-1.41,2.5,3.53,3.53,0,0,1-2.31,2.34,45,45,0,0,1-4.36,2.12,3.78,3.78,0,0,0-2.29,1.88,4.12,4.12,0,0,1-3.25,2.59c-2.18.47-4.35,1.11-6.54,1.58a29,29,0,0,0-5.53,2,19.47,19.47,0,0,0-3.74,2,2,2,0,0,0-1.12,1.84c0,.48-.25.66-.73.82a14.23,14.23,0,0,0-3.93,1.77c-1.49,1.09-3.17,2-4.19,3.64-.12.2-.42.26-.22.59,1.25,2.16-.5,3.27-1.63,4.6-1,1.15-2.41,1.79-3.43,2.89a3.41,3.41,0,0,0-.88,3.4c.65,1.72-.61,2.63-1.2,3.79-.4.79-.4,1.8.47,2,2.92.8,2.31,1,4.35-2a1.88,1.88,0,0,1,2.24-.78c.68.36.61.48,0,.89a4.68,4.68,0,0,0-2.24,2.83l0,0-.34.17c-.58.28-.54,1.22-1.59,1.1-1.4-.16-2.94-.17-3.81-1.24-1.18-1.43-1.46,0-1.78.45a5.94,5.94,0,0,0-.78,2.1c-.26.92.59,1.33,1,1.94a1.5,1.5,0,0,1,.39,1.25,6.22,6.22,0,0,0,.57,4.08c.36.84.7,1.48,1.71,1.54a2.68,2.68,0,0,0,2.69-1.39c.05-.07.08-.15.13-.22.23-.29.17-1,.7-.82s.19.81.1,1.17a3.92,3.92,0,0,1-3.7,2.83,3.09,3.09,0,0,1-2.93-2.38c-.07-.32.08-.88-.48-.88s-.38.53-.53.84A27.39,27.39,0,0,1,19.64,158a3.7,3.7,0,0,0-.53,3.58c.42-.91-.15-1.92.74-2.45.15-.09.2-.52.51-.12.13.17.37.09.23.5a7.06,7.06,0,0,0,.88,6.1,4.28,4.28,0,0,1,.31.69A2.06,2.06,0,0,0,24,167.86c1.24,0,1.4-1,2-1.59.27-.28-.25-1.21.6-.84.68.3.28.72-.08,1.13-.23.26-.22.72-.34,1.08-.46,1.35-1.61,1.59-3,1.39-2.06-.29-2.47-1.74-3-3.26-.09-.24,0-.63-.5-.6s-.28.43-.41.64A9.56,9.56,0,0,0,18,170.62c0,.38-.36.59-.41.87-.15.75-.44,1.68.91,1.67.37,0,.57.19.52.55-.16,1.08.11,2.13-.38,3.27-.68,1.59-1.22,3.35-.39,5.19a3.14,3.14,0,0,0,1.3,1.24c.38.25,1,.27,1.43-.59a9.16,9.16,0,0,1,3.32-4c.35-.21.7-.7,1-.26a1.07,1.07,0,0,1-.14,1.4c-1.46,1.18-2.3,2.84-3.45,4.27a2.05,2.05,0,0,1-2.88.68c.65,1.77-.43,3.06-.61,4.53-.1.8-.84,1.2-1.25,1.81a2.67,2.67,0,0,0,.61,3.67,5.92,5.92,0,0,1,3.19,5.49,2.47,2.47,0,0,0,2.17,2.83,2,2,0,0,0,2-.77A10,10,0,0,0,26.31,200a1.37,1.37,0,0,1,.65-.69c.19-.11.44-.15.57,0s.2.46.12.58c-1,1.46-1.27,3.21-2.38,4.63a2.07,2.07,0,0,1-2.91.5c-.82-.48-2-.85-2.38-2-.3,2.38-1.79,4.74,0,7.08.41.55.73,1.32,1.72,1.09.61-.15.76.32.83.83A22.84,22.84,0,0,0,24,216.48c.39,1.06,1.34,1.3,2.08,1.84.51.37,1.61-.77,1.73-1.76a6.36,6.36,0,0,1,.58-2.92c.15-.23.21-.6.63-.46l0,0a1.7,1.7,0,0,1,.35,2,13,13,0,0,0-.66,2.76,2.2,2.2,0,0,1-2.29,1.77,2.57,2.57,0,0,1-2.87-1.81c-.09-.29-.16-.57-.45-.72a4.31,4.31,0,0,0,1.34,5.07c.28.17.59.19.64-.26a4.77,4.77,0,0,1,.06-.76c.15-.44.39-.94.93-.85s.34.68.27,1c-.19,1-.1,2-.25,3-.35,2.3,3.58,4.33,5.55,3.33.63-.31,1-1.27,1.38-1.95.17-.26.31-.54.68-.42s.23.49.25.76a.41.41,0,0,1-.09.23c-1.35,1.55-1,3.15-.06,4.7s1.63,3.14,3.59,3.32c.57,0,1.14.92,1.74.16a3.76,3.76,0,0,0,.75-1.84,13.48,13.48,0,0,1,.38-1.42.5.5,0,0,1,.6.39,4.53,4.53,0,0,1-1.9,4.75c-.07,0-.19.09-.24.06-1.09-.65-2.6-.06-3.53-1-1.34-1.41-2.81-2.78-3.14-4.86-.16-1-.64-1.57-1.84-1.42-2.16.28-3.94-.36-4.91-2.52-.12-.27-.29-.56-.64-.5s-.35.45-.32.72a9.73,9.73,0,0,0,1.28,4.28,5.67,5.67,0,0,0,2.64,2.13,2.26,2.26,0,0,1,1.19,1.87,13.24,13.24,0,0,0,1.74,5.6c.16.28.32.62.62.42s0-.48-.11-.78a11.2,11.2,0,0,1-1.37-6.48,37.56,37.56,0,0,1,1.59,3.68,5.74,5.74,0,0,0,1.87,3.09c.47.36.22,1.29,1.35,1.27a2.35,2.35,0,0,0,2.3-1.61c.29-.58.58-1.16.88-1.74a.44.44,0,0,1,.52-.26.39.39,0,0,1,.25.6c-.58.91-.66,2.05-1.25,2.91a2.28,2.28,0,0,1-3.05,1.06,2.36,2.36,0,0,0-1.14-.05c2.08.73,2.27,2.71,2.54,4.29.35,2.05,1.83,2.26,3.18,2.56a4.11,4.11,0,0,1,3.26,2.8,7.11,7.11,0,0,0,3.73,4.44,4.42,4.42,0,0,1,2,2.17c.64,1.3,1.95,2,3.07,3,.44-.57-.08-1.05-.18-1.5a3.77,3.77,0,0,1,0-2.23c.11-.32.26-.49.62-.48s.44.3.47.61a8.75,8.75,0,0,0,1.85,4.63,3.13,3.13,0,0,0,2.33,1.37A2.67,2.67,0,0,0,59.09,262c.08-.46.15-.92.26-1.37,0-.25.15-.54.48-.45a.45.45,0,0,1,.28.62c-.34.9.22,1.94-.54,2.8a.7.7,0,0,0,.35,1.13,8.67,8.67,0,0,1,1.44,1.11,1.33,1.33,0,0,1,.48,1.78,1.88,1.88,0,0,0,.23,2.22,1.76,1.76,0,0,1,.37,1.61,13.29,13.29,0,0,0,.13,3.22c0,1.5,1.32,2.25,2.21,3.1A7.53,7.53,0,0,1,67.2,283c.1,1.34.5,2.77,2.24,3.3a3.14,3.14,0,0,1,2,2.59c.16,1,.68,1.84.76,2.83.09,1.23,1,2,1.6,3,.43.68,1.12.3,1.76.37A9.14,9.14,0,0,1,72.73,291c0-.11-.21-.19-.22-.29,0-.58-.51-1.41.24-1.68s.78.64,1,1.1a6.86,6.86,0,0,0,3.92,4c2,.69,3.51-.29,4.16-2.36.12-.37.07-1,.63-.9s.32.73.26,1.17c-.28,2-2.27,4.18-4.4,3.8-.23,0-.54-.18-.67.12s.11.42.23.64c1.3,2.42,3.18,4.47,4.45,6.87a15.42,15.42,0,0,0,1.89,3,8,8,0,0,0,2.1,1.64c1,.6,2.14.9,2.8,2.29,1,2.19,2.44,4.25,5.23,5a5.56,5.56,0,0,1,3.25,2c.41.63,1.3.58,1.94.95,1.58.9,2.83,2.19,4.29,3.21a15.76,15.76,0,0,0,2.32.92,43.63,43.63,0,0,1,7.26,5.15c3,2.44,5.78,5.43,9.63,6.92a57.49,57.49,0,0,1,5.31,2.8,16.25,16.25,0,0,0,5.23,2c1,.12,1.54.93,2.24,1.49a21.24,21.24,0,0,0,4.43,3.19,10.41,10.41,0,0,0,3.82.54,17.49,17.49,0,0,1,4.39.42c.19.07.46.05.58.17,1.82,1.78,4.14,1.38,6.34,1.53a8.22,8.22,0,0,1,5.07,1.8,8.1,8.1,0,0,0,6.17,2.15,6.16,6.16,0,0,1,5.41,2.65c1.39,1.86,3.09,3.41,4.61,5.14a2.63,2.63,0,0,1,.42.47c1.15,2.1,3.55,2.64,5.16,4.13s3.69,1.91,5.39,3.13c.63.45,1.52.42,2.11,1.19a3.45,3.45,0,0,1,.78,1.77c.23,2,1.54,3.19,3,4.28,1.64,1.21,2.7,2.69,2.45,4.86-.15,1.26.62,2.23,1.21,3.17a14.22,14.22,0,0,1,1.93,8c-.06,2.59-.1,5.18-.16,7.77,0,.45.18.62.56.83a3.07,3.07,0,0,1,1.69,3.12c-.1,1.44.05,2.9-.13,4.32a4.15,4.15,0,0,0,1.15,3.44,1.84,1.84,0,0,1,.41,1.24c.35,2.75-.7,5.34-.9,8-.06,1-.77,1.92-.91,3-.12.89.24,1.34,1.2,1.28.57,0,.79-.17.8-.81,0-2.46.39-4.91.28-7.37,0-.48.11-.86.65-.9s.67.34.66.84c0,1.48,0,3,0,4.45a2.61,2.61,0,0,1-.27,1.08c-.3.65-.45,1.3.34,1.87,1,.73,1,2,1.17,3.08.05.23,0,.54.28.65s.39-.2.55-.38c1-1.09,2.09-2.06,1-3.77-.69-1.15.06-2.26.54-3.31a.49.49,0,0,1,.63-.3c.41.13.27.49.24.76a6.7,6.7,0,0,0,.51,3.82c.12.23.2.54.47.56,1.42.06,1.68,1.08,2,2.18.08.3.25.85.81.86s.53-.41.72-.73c.84-1.47,1.59-1.47,3.28.12.37.35,1,.52,1.09,1.17.06.33.44.37.74.33a1.55,1.55,0,0,0,.61-.18c.54-.37,1.37.26,1.74-.44a7.51,7.51,0,0,0,.4-2.37c.25-1.47.47-2.94.62-4.43S223.3,417.1,224,416a1.18,1.18,0,0,1,1-.41c1.53.37,1.38-.7,1.46-1.6.17-1.87,1.23-2.53,3-1.86,1.35.5,1.35.5,1.39-.9,0-1.58,1.18-2.61,2-3.78a7,7,0,0,1,1.22-1.51c.51-.41.94-1.17,1.63-1.07,1.74.26,2.34-1.2,2.64-2.17a10.87,10.87,0,0,1,2.17-3.66,7.33,7.33,0,0,0,1.59-5.69c0-.21,0-.42,0-.63,0-1.07.74-1.58,1.72-1.11s.91.05,1.1-.67c.67-2.66-.29-5.24-.27-7.86,0-.21,0-.43,0-.64a21.48,21.48,0,0,1,.85-8,5.3,5.3,0,0,0,.15-2.76c-.51-2.93.67-5.47,1.71-8.06a.93.93,0,0,1,.35-.48,7.28,7.28,0,0,0,3-6.27c0-1.88,1.09-3.07,2-4.4a5.58,5.58,0,0,1,2.5-1.94c.26-.11.51-.44.77-.07a.71.71,0,0,1,0,.84,6.33,6.33,0,0,1-1.26,1.32A5,5,0,0,0,253,355c-.9,2.07-.93,4.34-1.82,6.61,2.38-.48,4.67-.48,6.84-1.55s4.35-2.78,7-3.16c1.58-.24,3.16-.48,4.74-.65,2.1-.23,3.7-1.51,5.51-2.39,3.49-1.71,6.53-4.26,10.47-5.19a46.18,46.18,0,0,0,6.39-1.81c1.35-.53,3-.29,4.54-.36s3-1,4.49-1.41c3.71-1,6.41-4,10.16-4.95a21.4,21.4,0,0,0,5.29-2.72c.82-.49,1.74-.59,2.58-1.05a54.64,54.64,0,0,0,8.34-5c1.15-.91,2.45-1.58,3.55-2.6a37.41,37.41,0,0,0,3.79-4.29c1.6-2,3.56-3.67,5.18-5.66,1.49-1.81,3.34-3.43,4.44-5.45a46.87,46.87,0,0,0,3.88-8.56c.57-1.87.61-3.81,1.06-5.67.69-2.78.89-5.71,2.45-8.27a65.78,65.78,0,0,0,4-7.44,8.46,8.46,0,0,0,1.12-2.86c0-.45.3-.57.69-.54s.28.4.29.66c0,1.41-.81,2.53-1.38,3.68-.41.83-.81,1.7-1.2,2.53-1,2.17-2.09,4.31-3.19,6.43a3.41,3.41,0,0,0-.35.91c-.41,2.39-.79,4.78-1.2,7.17-.38,2.22-.66,4.43-2.14,6.34a6.92,6.92,0,0,0-.88,2.29c-.81,3-2.76,5.35-4.71,7.66-2.25,2.68-4.85,5-7,7.84a37.16,37.16,0,0,1-8.76,7.87c-2.57,1.77-5.38,3.1-8,4.82-.83.54-2,.46-2.94,1-1.36.83-2.94,1.34-4.22,2.26-1,.74-2.26.73-3.34,1.31-1.37.74-2.65,1.66-4.08,2.3a19.8,19.8,0,0,1-3.42,1.44c-.91.21-1.69.75-2.6,1a19.36,19.36,0,0,1-5.12.63,22.5,22.5,0,0,0-5.32,1.18c-.59.16-1.12,0-1.7.2-2.37.88-4.71,1.63-6.62,3.49-.94.93-2.44,1.33-3.72,1.88a4.64,4.64,0,0,0-1.35.79,8,8,0,0,1-5.71,2c-2.25-.06-4.21.85-6.3,1.45-1.86.53-3,2.29-4.88,2.49s-3.42,1.22-5.32,1.09a13.65,13.65,0,0,0-2.9.53c-.93.14-1,1.49-1.41,2.29-1.09,2-.79,4.15-.81,6.29a25.28,25.28,0,0,1-.84,5.56,15.88,15.88,0,0,0,0,6.55c.46,2.44.79,4.87-.05,7.31-.11.31-.05.67-.13,1-.21.91-.72,1.38-1.63.84-.69-.42-.8-.07-.87.48a3.42,3.42,0,0,0-.11.88,5.86,5.86,0,0,1-2.12,5.56c-1.06,1-1.27,2.4-2.11,3.48-.5.64-.77,1.48-1.29,2.1-.3.34-.57,1-1.31.74-1.21-.35-2,.6-2.52,1.31-1,1.52-2.11,3.14-2,5.16.08,1.07-.44,1.22-1.3.84a4.26,4.26,0,0,0-.82-.3c-2.17-.41-2.3-.3-2.33,1.89,0,1.36-.4,1.85-1.77,1.62a1.73,1.73,0,0,0-2.11,1,7.57,7.57,0,0,0-1.11,3c0,2.12-.37,4.22-.28,6.35,0,.82-.6,1.13-1.35.74-1.8-.95-2.06-.73-2.79,1.16-.82,2.11-1,4.39-1.89,6.46s-1.44,4.19-2.24,6.25a24.43,24.43,0,0,0-1.19,4.35c-.67,3.59-1.55,7.13-2.34,10.7a1.3,1.3,0,0,0-.07.74c.77,1.5.7,3.26,1.6,4.74a3.85,3.85,0,0,0,1.66,1.42c1.4.69,2.79,1.55,4.44.41a2.14,2.14,0,0,1,2.66-.16c.09.06.35.05.35.06-.14,1.55,1.44,1.56,2.15,2.33a1.59,1.59,0,0,0,1.83.46,4.19,4.19,0,0,1,3.72.26c.91.58,1.92.81,2.31,2,.14.46.57.29.9-.05a2.15,2.15,0,0,1,3-.25c2.75,1.57,3.8,4.09,4,7s.59,5.67-1.09,8.25c-.28.41-.41,1-1.06.87s-.52-.72-.55-1.15a3.63,3.63,0,0,0-.92-2.75c-.79-.76-.68-2.08-1.32-3-.48-.72-.84-.91-1.42-.15a9.6,9.6,0,0,0-.88,1,1.12,1.12,0,0,1-1.13.63,14.89,14.89,0,0,1-3.67-.16c-2-.55-4-.82-5.8-2a21.27,21.27,0,0,0-4.05-2.16c-1.87-.75-4,.32-5.22,2.08-.91,1.3-2,2.45-2.9,3.79a43.08,43.08,0,0,1-4.39,5.12,16.52,16.52,0,0,1-3.45,3,18.54,18.54,0,0,0-3.27,2.08,6.26,6.26,0,0,1-3.19,1,5.42,5.42,0,0,0-2.49,1.55,21.9,21.9,0,0,0-4.74,5.87,3,3,0,0,1-2.77,1.56c-2.16-.07-3.6,1.4-4.63,2.85A7.84,7.84,0,0,1,177,507c-1.57.6-2.36,1.94-3.66,2.74A6.07,6.07,0,0,1,171,511c-1.48.23-1.65,1.75-2.07,2.89-.6,1.65-1,3.36-2.61,4.41a2.88,2.88,0,0,1-2.35.57c0-.14,0-.26,0-.29,2.47-1.76,3.51-4.35,4.24-7.15.22-.84.65-1.49,1.75-1.43a3,3,0,0,0,2.64-1.44,3.29,3.29,0,0,1,1.44-1.16,15.61,15.61,0,0,0,5.87-4.58,6.13,6.13,0,0,1,4.85-2.43c1.45,0,2-1,2.51-1.95a18.7,18.7,0,0,1,3-4c1-1,2-2,3-2.91.23-.22.41-.43.75-.37,1.83.29,3.19-.72,4.63-1.59a14.06,14.06,0,0,1,2.05-1.15A5.84,5.84,0,0,0,203,486.6c1.92-2.34,4-4.57,6-6.83a4.77,4.77,0,0,0,.49-6.23,8.55,8.55,0,0,1-1.15-3.74c-.19-2.24-.07-4.5-.1-6.74a18.1,18.1,0,0,1,1-4.67c.25-1,.33-2,.59-3,.83-3.08,1.31-6.24,2-9.34a30.32,30.32,0,0,1,2.08-6.15,17.82,17.82,0,0,0,.89-2.85,45.91,45.91,0,0,0,1.44-4.94,6.4,6.4,0,0,1,.9-2c.81-1.32.71-1.91-.44-2.89a4.11,4.11,0,0,1-.62-.63c-.92-1.24-1.85-1.19-2.6.15-.23.4-.18,1.29-.72,1.11a2,2,0,0,1-1.45-1.22A13.09,13.09,0,0,0,210,424.3c-.37-.62-.75-.56-1.19,0-.63.77-1.3,1.51-2,2.26a1.16,1.16,0,0,1-2.07-.36c-.19-.89-.92-1.51-.94-2.43a.71.71,0,0,0-.18-.46c-.24-.22-.7-.28-.8,0-.51,1.13-2-.44-2.55,1.17-.86,2.62-.8,5.37-1.58,8-.51,1.66-.59,3.48-1.12,5.17-.78,2.53-1.27,5.14-2.12,7.68a48.41,48.41,0,0,1-2.91,6.89,29.48,29.48,0,0,1-3.14,5.23,17,17,0,0,0-2.36,2.94,4.35,4.35,0,0,1-1.8,1.46c-1.11.67-2.15,1.51-3.22,2.27-2.14,1.5-4.23,3.08-6.89,3.53-1.63.27-3,1.3-4.67,1.49-.54.07-1.1.08-1.65.13-.38,0-.79.08-.83.6s-.18,1.42-.92,1.46a3.62,3.62,0,0,1-2.24-.58c-1.65-1.17-4.33-1-5.57.39a1.27,1.27,0,0,0-.23,1.72.94.94,0,0,1,.07,1.28c-.52.54-.83-.16-1.17-.32-1.46-.72-2.28-2.2-3.56-3.19-1.56-1.2-2.06-1.29-3.13.33a7.76,7.76,0,0,1-.93,1.19,1.11,1.11,0,0,0-.22,1.59c.62.71,0,1.09-.36,1.33-.57.45-.79-.24-1-.6a4.57,4.57,0,0,0-5.34-2.5,8.67,8.67,0,0,0-2.56,1.25c-1.13.7-1,1.56-.81,2.59.07.49.19,1.24-.49,1.42s-.85-.53-1.09-1a4.78,4.78,0,0,0-3.27-2.86c-1-.2-3.19.46-3.54,1.34a1.26,1.26,0,0,0,.34,1.49c1.36,1.27,2.44,2.67,1.5,4.73a4,4,0,0,0-.07,1.51c0,.27.14.64.4.51,1-.52,1,.31,1.12.87a1.65,1.65,0,0,0,.88,1,13.47,13.47,0,0,0,4.64,1.86,6.17,6.17,0,0,0,2.67-.47,4.55,4.55,0,0,1,3.69.35c1,.5,1.32.11,1.72-.48,1.43-2.06,3-3.71,5.87-2.83.67.2,1.5.23,1.66-.94.1-.74.84-1.23,1.47-1.48,1.78-.72,3.62-1.27,5.44-1.88a.78.78,0,0,1,.5,0c2.27.93,3.37-.81,4.64-2.08a3.27,3.27,0,0,1,2.82-.62,6.06,6.06,0,0,0,5-1.76c1.13-1.09,2.35-2.08,3.55-3.1a2.7,2.7,0,0,1,.88-.48c.25-.08.6-.36.79,0a.75.75,0,0,1-.2.93,48.23,48.23,0,0,1-5.51,4.39,7.93,7.93,0,0,1-5.59,1.37c-1.22-.16-2,.86-2.78,1.67a1,1,0,0,0,.29,1.55c.4.27.34.67.07,1s-.49,0-.74-.15a4.68,4.68,0,0,1-1.62-1.09,2.14,2.14,0,0,0-2.29-.65,15.89,15.89,0,0,0-4.7,1.77c-1.75.93-1.78,2.26-.29,3.86.22.24.44.5.67.72s.76.17.28.65c-.28.29-.56.52-1,.15-.67-.61-1.55-1-2.08-1.78a3.15,3.15,0,0,0-2.89-1.38c-1.12,0-3.69,1.87-3.91,3a1.72,1.72,0,0,0,.38,1.89,1.2,1.2,0,0,1,.44,1c0,.48.23,1.13-.41,1.31s-.52-.5-.73-.82a8.7,8.7,0,0,0-4.07-3.51.71.71,0,0,0-.73.09c-1.17,1.06-2.82,1.61-3.25,3.45-.3,1.27-.33,1.43,1,1.57s2.32,1.19,2.11,2.14c-.07.33-.25.69-.56.33-1-1.19-2.46-1.39-3.85-1.67-1.77-.35-3.57-.79-5.34.09-1.23.62-2.54,1.12-2.77,2.76a1.08,1.08,0,0,0,.71,1.29,3.76,3.76,0,0,1,1.92,4.76,10.11,10.11,0,0,0-.54,1.81c-.15.63-.08,1.41-1.07.69-.1-.07-.44,0-.4.06.4.28-.14.52,0,.86a4.51,4.51,0,0,0,3.86,2.6c2.17.31,3.7-.86,5.32-1.86,1.42-.86,2.38-2.34,4-3,.51-.2.48-.83.93-1.15a15,15,0,0,1,5.88-2.54,7.64,7.64,0,0,0,4.94-3.25,12,12,0,0,1,2.69-2.31c.36-.29,1.24-.16,1.88-.43a14.17,14.17,0,0,0,3.44-1.76,4.08,4.08,0,0,1,3.07-1,1.69,1.69,0,0,0,1.67-.4c1.31-1.74,3.31-2.43,5.11-3.39,1.35-.71,2.67-1.66,4.35-1.47.19,0,.46-.12.55.14s-.15.36-.39.51c-1.92,1.14-4,1.92-6,2.89-.85.42-1.38,1.31-2.24,1.79s-1.22,1.65-2.37.68c-.87.7-2,.68-3,1.2-1.63.86-3.17,1.94-5.11,2.16-1.2.14-1.75,1.33-2.51,2.11a15.4,15.4,0,0,1-4.65,3.27,7.28,7.28,0,0,1-3.23.59c-1.51,0-2,1.43-3,2.18a68,68,0,0,1-9.42,6.37c-.64.34-.87-.34-1.39-.31-3.11.18-5-1.67-6.59-4a1,1,0,0,0-1.49-.4,8.19,8.19,0,0,0-3.32,2.94,21.36,21.36,0,0,0-3,6.24,1.13,1.13,0,0,1-1.17,1c-.68-.09-.42-.75-.4-1.14.11-2-1.08-3.86-.7-5.88.55-3,1.21-5.88,3.34-8.33,1.23-1.41,2.81-2.15,4.16-3.28.25-.2.53-.42.79-.27,1.56.84,2.19-.53,2.76-1.36,1.23-1.78,3-2.47,4.92-3a3.26,3.26,0,0,1,2.4-.05c.54.25.9.08,1.12-.57.12-.35.4-.71.32-1.05-.19-.73,1.85-1.36.16-2a6.09,6.09,0,0,0-2.39-.8c-2.2,0-3.39-1.12-3.89-3.3-.09-.36-.17-.62-.58-.73a8.31,8.31,0,0,0-6.29.91c-1.78,1-2.86,2.55-4.37,3.71a3.24,3.24,0,0,0-1.27,1.35c-.06.14-.3.49-.6.29a1.43,1.43,0,0,1-.76-.94,17.34,17.34,0,0,1,0-3.81,9.34,9.34,0,0,1,5.79-8.54c.92-.41,2.12-1,3.41-.29.82.48,1.94.57,2.26-.85a.87.87,0,0,1,.71-.64c.27-.09.68-.18.76-.38.87-2.16,2.75-1.14,4.2-1.28.38,0,.83.72,1.26,1.09s.71.71,1.29,0c.94-1.2,2.65-1.2,3.83-2.07s2.66.09,4-.14c.35-.07.55.35.81.56,1.21,1,1.41,1,2.17-.45a4.28,4.28,0,0,1,2.46-2.09c1.39-.53,2.42.27,3.5.81a10.36,10.36,0,0,1,1.74,1.47c.41-.71,1.2-1,1.82-1.41a3.39,3.39,0,0,1,2.11-.72,19.55,19.55,0,0,0,3.48-.24c1.35-.21,2.77-.34,4.13-.62a19.88,19.88,0,0,0,4.09-1c2.61-1.12,5.57-1.45,7.73-3.65a19.43,19.43,0,0,1,4.21-2.9c.53-.31.66-.83,1-1.2a.47.47,0,0,0-.33-.83c-1.06,0-.95-.73-1-1.38s0-1.4-.64-2-1.11-1.29-1.9-.19c-.25.35-.75.35-1.18.36-1.45,0-2.89.44-4.35,0a2.73,2.73,0,0,1-1.5-1.05c-.9-1.23-1.68-1.22-3-.46a4.79,4.79,0,0,1-2.87,1.07,29.1,29.1,0,0,0-4.07,0c-1,.06-1.81-.62-2.65-.92-1.17-.41-2.45-.37-3.57-1.06a3.78,3.78,0,0,0-3.88,0c-1.54.83-3.27,1.24-4.77,2.08a9.76,9.76,0,0,1-6.88.83c-2.41-.52-5.16-.28-7.22-2.14-.34-.31-.74-.38-1,.31a6.58,6.58,0,0,1-3.44,3.17,2.3,2.3,0,0,1-2.53.09c-.34-.24-.66.26-1,.46-2.5,1.58-4.52,3.77-6.87,5.55-1,.77-2.16,1.37-3.19,2.12a2,2,0,0,1-2,.16c-2.19-.84-3.51.34-4.66,1.9a15,15,0,0,1-6.12,4.81,5.07,5.07,0,0,1-4.38-.29c-.91-.54-2.2-.19-3-1.17-.08-.09-.23-.11-.33-.19-.42-.35,0-1.91-1.32-1-.56.38-1.26.32-1.82,1a13.76,13.76,0,0,1-2.5,2.37c-1.8,1.25-2.31,3.4-3.32,5.19-.16.28-.14.8-.48.82a1.1,1.1,0,0,1-1-.64c-.9-1.95-2-3.85-2.39-6a6,6,0,0,1,.85-3.2c1.08-2.3,3-4,4.78-5.7a3.93,3.93,0,0,1,2.76-1.3.75.75,0,0,0,.83-.43c.7-1.5,2-2.77,1.8-4.62a1.65,1.65,0,0,0,1.51-.46,18.39,18.39,0,0,1,3.31-2.86c1.52-1.2,1.9-1.3,3.44-.09.16.13.28.32.44.45.75.57,1.6,1.5,1.75-.43,0-.1.16-.18.24-.28,1.74-2.42,4.22-2.92,7-2.6.62.07,1,.21,1.32-.64a3,3,0,0,1,1.64-1.57,5.6,5.6,0,0,1,3.56-.39c.82.14,1.3,0,1.52-.8a1.18,1.18,0,0,1,.27-.56c1.29-.94,2.88-1.29,4.23-2.12a.7.7,0,0,1,.47,0,1.12,1.12,0,0,0,1.56-.66c.09-.21.22-.39.46-.32s.27.31.31.52a1.21,1.21,0,0,1-.47,1.18c-1.12,1.1-2.59.93-3.91,1.2a3.43,3.43,0,0,0-2.28,1.74c-.45.77.71,1.1,1.21,1.59a1.56,1.56,0,0,1,.16.2c.23.34.83.63.28,1.13s-.68.25-1.16-.13a6.38,6.38,0,0,0-5-1.61A2.09,2.09,0,0,0,116,450.9c-.29.62-.45,1.39.38,1.89a.55.55,0,0,1,.14.8c-.22.33-.53.23-.89.15-.85-.18-1.39-1-2.11-1.16-2.2-.38-4.38-.36-5.94,1.7a1.4,1.4,0,0,0,0,2.08,14.5,14.5,0,0,1,2,2.33c.3.49.43,1,.07,1.4-.51.56-.73-.21-1.08-.4-1-.52-1.1-1.86-2-2.31A20.89,20.89,0,0,1,103.1,455a1.37,1.37,0,0,0-1.9-.08c-2.38,1.63-4,3.93-5.7,6.19-.25.34-.59.76-.13,1.09s.79.18,1.18-.28a1.72,1.72,0,0,1,2.2-.4c1.19.73,2.54,1.26,3.36,2.52a5.62,5.62,0,0,1,1.29,3.27c0,1.72-1.24,1.85-2.49,2.05-.54.08-.71.57-.67,1.07s.5,1.06,1,1c.81-.08,1.59.29,2.36.11a11.46,11.46,0,0,0,6.35-4.29,9.32,9.32,0,0,1,2.13-2.29,6.06,6.06,0,0,1,4-.74,2.91,2.91,0,0,0,2.3-.32c.69-.63,1.57-.92,2.24-1.59a48.11,48.11,0,0,1,4.19-3.62c.45-.37.32-1.08.92-1.31,1.49-.56,2.84-1.49,4.6-1.32a2.93,2.93,0,0,0,2.83-2.57c.06-.43.16-.73.65-.78a6.67,6.67,0,0,1,3.6.43,17.58,17.58,0,0,0,5.64,2.06c1.7.2,3.54.5,5.13-.24,2-1,4.1-1.88,6.15-2.79,1.07-.48,2.36-1.17,3.83-.45a7.12,7.12,0,0,0,2.46.89c2.4.19,4.57,1.45,7.11,1.28a7.29,7.29,0,0,0,3.09-.66,8.65,8.65,0,0,1,4.18-.68c.79,0,1.47.86,1.86,1.69a.63.63,0,0,0,.28.23c1.5.76,4.41-.71,4.55-2.38.09-1-.3-2.39-1-2.76a16.43,16.43,0,0,1-2.81-1.89,1.77,1.77,0,0,0-2.71.07c-.37.35-.53.29-1,.06-1.5-.74-1.88-2.25-2.63-3.5a4.7,4.7,0,0,0-3.19-1.6,2.12,2.12,0,0,0-1.84,2.32,1.61,1.61,0,0,0,.57.95c.45.45.28.82-.19,1.13a1,1,0,0,1-1.65-.84c-.19-2.54-.87-3.22-3.06-3.41a1,1,0,0,1-1-1.16A7.27,7.27,0,0,0,161,440a22.73,22.73,0,0,1,1.23-11.42,19.11,19.11,0,0,0,1.44-8.09c0-.31.18-.78-.25-.89-1.47-.38-2.05-1.81-3.17-2.6s-1.68-2.1-2.9-2.81c-.56-.32-.82-.39-1.29.11-1,1.07-1.92.88-2.62-.49a4.73,4.73,0,0,1-.33-.68c-.17-.56-.62-.51-1-.5s-.57.44-.61.81a10.56,10.56,0,0,1-.27,2c-.55,1.79-1,3.63-1.62,5.38-.55,1.48-.88,3-1.5,4.49a21.34,21.34,0,0,1-4.43,6.48c-1.63,1.72-4.19,2.07-5.55,4.08,0,.08-.23.08-.36.11-2.68.64-5.25,1.74-8.07,1.74a2.46,2.46,0,0,0-1.2.35,7.2,7.2,0,0,1-3,1.21,6.41,6.41,0,0,1-4.74-1.37,15.45,15.45,0,0,0-4.51-2.52A5.3,5.3,0,0,0,112,436c-.83.39-.07,1.23-.28,1.83,0,.11-.09.22-.14.33a3.29,3.29,0,0,1-1.83-2.15c-.66-1.6-1.17-1.81-2.75-1.08a1.28,1.28,0,0,1-.84,0,1.73,1.73,0,0,0-2.21,1.41c-.07.3.05.89-.55.83a.87.87,0,0,1-.87-.77,3.85,3.85,0,0,0-2.31-3,10.39,10.39,0,0,0-5.35-.53c-.32.05-.72-.1-.79.4a1,1,0,0,0,.22.93,3.26,3.26,0,0,1,.8,3.48c-.11.29,0,.72-.48.77s-.68-.38-.72-.73c-.25-2.14-1.62-3.33-3.3-4.48a2.86,2.86,0,0,0-3.13-.42c-1.43.82-1.59,1.91-1,3.57a3.81,3.81,0,0,1-1.31,3.3c-.63.31-.62.85-.62,1.39s.38.82.9.83A4.33,4.33,0,0,1,89,444.24c.51.77,1,1,1.37-.05.26-.65.8-.86,1.42-1.1,1.5-.59,2.91,0,4.36.11a3.67,3.67,0,0,1,3.19,1.53c.24.38.57.23.88,0a4.79,4.79,0,0,1,4.44-1c.91.29,2-.06,2.69,1.05.24.4.83.29,1.26,0a10.39,10.39,0,0,1,6.15-1.55c.57,0,.91.64,1.37.47,1.49-.57,3.09.21,4.57-.43.32-.13.9-.35,1,.31.1.51-.06.91-.69,1a23.64,23.64,0,0,1-3.77.42c-2.34-.19-4.69-.66-7.06-.16-.37.08-.78-.06-.82.51s.14,1.24-.71,1.21a2.79,2.79,0,0,1-1.72-.38,7.73,7.73,0,0,0-2.81-1.36c-2.08-.54-3.79.5-3.38,2.52.06.31.19.74-.26.87a.94.94,0,0,1-1-.32c-.21-.26-.29-.63-.52-.86-.59-.59-.34-1.73-1.28-2-1.31-.43-2.65-.78-4-1.15a2.47,2.47,0,0,0-1.49.22,1.2,1.2,0,0,0-.49,2.1,17.06,17.06,0,0,1,1.6,1.58c.34.36.93.67.45,1.23s-1.08,0-1.35-.23c-1.76-1.47-3.49-3-5.36-4.33a5.24,5.24,0,0,0-3.33-1.31c-1.6.06-2.88.95-4.31,1.48s-1.63.86-1,2.31a6.83,6.83,0,0,1-.62,6.41,1.72,1.72,0,0,0-.16,1.79,6.45,6.45,0,0,0,9.49,1.66,4.24,4.24,0,0,1,6-.15c.49.37,1.34.67,1.87.16,1.12-1.08.78.15,1,.54a1,1,0,0,0-1,.24c-.87.91-1.9.57-2.78.09a4.19,4.19,0,0,0-5,.73c-1.16,1.07-2.76.95-4.24,1.12-2.57.29-4.24-1.31-5.93-2.82a2.69,2.69,0,0,1-.57-1.38c-.52-2.24-1.77-3-3.88-2.2-2.35.87-3.72,2.85-5.2,4.69-.19.22,0,.82-.54.66a1.37,1.37,0,0,1-.81-.89,10.61,10.61,0,0,1,.27-7.49,6,6,0,0,1,3.17-3.38,30.47,30.47,0,0,1,3.21-1.39c.92-.29,1.78-.61,2.67.27.69.68,1,0,1.59-.55a10.23,10.23,0,0,1,5-2.74c1.08-.17,1.52-.77,1.49-1.63a2.47,2.47,0,0,0-2.2-2.22c-2.94-.14-5,1.56-7,3.35-.25.22-.52.43-.75.67s-.12.85-.67.77-.58-.67-.75-1.07a6.25,6.25,0,0,1,1.46-7.41c2.42-2.13,5.4-3.88,9-2.49a16.77,16.77,0,0,0,2.91,1.33c.78.07.69-.55.84-1a2.58,2.58,0,0,1,2.63-1.44,11.32,11.32,0,0,1,2.77,1.14c.62.35,1.09,1,1.51-.15.08-.22.27-.28.5-.3a31,31,0,0,1,7.08.33,3,3,0,0,1,2.34,1.44,1.32,1.32,0,0,0,1.87.63c1-.38,2-.11,3-.5,1.63-.64,2.65.39,3.54,1.74a2,2,0,0,1,1.87-1.14c1-.09,2.14-.58,2.9-.44a8.12,8.12,0,0,1,4.13,1.79,9.52,9.52,0,0,0,5.27,2.67,2,2,0,0,0,1.24-.51c1.67-1.29,3.64-1.41,5.63-1.75a13.12,13.12,0,0,0,6.22-2.61c1.45-1.19,3.05-2.17,4.41-3.5a14.72,14.72,0,0,0,3.12-4.55,39.69,39.69,0,0,0,3-10.31,6.16,6.16,0,0,1,.35-1.05c.19-.58.56-1.14-.24-1.78-.61-.49-.13-1.42.12-2.11.1-.28.29-.53.21-.82-.75-2.6-.26-5.3-.69-7.92a22.37,22.37,0,0,1,0-6.33c.08-.65.45-2-1.19-1.37-.32.12-.53-.24-.68-.48a1.3,1.3,0,0,1-.15-.73c.26-2.8-1-5.47-.76-8.26.06-.8-.58-1.19-.87-1.75a6.72,6.72,0,0,1-.5-4.77,2.74,2.74,0,0,0-1.18-3.29,1.28,1.28,0,0,1-.66-1.12,9.78,9.78,0,0,1,.53-4.42,2.51,2.51,0,0,0,.05-1.88c-.85-2-.56-4.12-.91-6.17-.12-.72-.72-1.25-.6-2,0-.19-.21-.18-.37-.23-2-.59-2.25-1.5-1.78-3.67a18.17,18.17,0,0,0,.38-5.8,12.13,12.13,0,0,1,0-2.41c.13-1.45-.25-2-1.65-2.07a1.52,1.52,0,0,1-1.33-.64c-.79-1-2.09-1.44-3-2.48-.61-.71-1.82-.57-2.73-1-2.74-1.37-5.64-2.4-8.21-4.18-1.6-1.1-3.5-1.8-5.22-2.78-1.34-.77-2-2.2-3.33-2.93-2.11-1.15-3.41-3.27-5.38-4.55-1.34-.87-2.63-2-4.25-2.26s-2.81-1.36-4.07-2.28a37,37,0,0,0-6.39-4c-2.52-1.16-5.11-2.29-6.32-5a6.58,6.58,0,0,0-4.46-3.72c-.7-.21-1-1-1.37-1.66-.92-1.47-2.23-2.7-2.87-4.35s-2.36-2.89-2.87-4.71a1.58,1.58,0,0,0-1.89-1.24c-1.93.14-2.78-1.13-3.52-2.57a12.94,12.94,0,0,1-1.75-5.13,1.26,1.26,0,0,0-1-1.17c-2.27-.64-3.08-2.47-3.21-4.49a5.1,5.1,0,0,0-1.91-4.24,16.53,16.53,0,0,1-1.72-1.73,3.3,3.3,0,0,1-1.07-2.8c.12-1.16.09-2.33.16-3.49s-.63-1.66-1.17-2.34c-.33-.41-.37-1-.18-1.14,1.06-1-.34-1.24-.61-1.72s-1-.42-1.56,0a3.18,3.18,0,0,1-4.65-.26,37.64,37.64,0,0,1-5.31-5.25,10.11,10.11,0,0,0-3.64-3.38c-1.71-.87-1.95-2.83-2.71-4.37-.33-.67-.64-1.11-1.4-1.22a15.36,15.36,0,0,1-3.24-1.13c-.75-.3-1.47-.79-1.45-1.73,0-2.32-1.37-3.59-3-5s-3.35-3.05-3.58-5.56a19.61,19.61,0,0,0-.82-3,.86.86,0,0,0-.85-.75,2.66,2.66,0,0,1-2-1.37,11.79,11.79,0,0,1-1.91-5.76,2.81,2.81,0,0,1,.46-2c.68-.88.19-2.24-.87-3.15-1.53-1.31-1.62-1.63-.95-3.5,0-.08.09-.17.07-.24-.42-1.58.41-3.21-.24-4.81-.3-.76-1-1-1.49-1.44-2.16-2.15-2-4.82-1.69-7.49a15.85,15.85,0,0,1,.82-3.91c.62-1.62-.22-3-2.06-4.07a4.21,4.21,0,0,1-1.6-5.19,15,15,0,0,1,1.41-2.58c.7-.92.58-2,.76-3s-.86-1.51-1.19-2.37a4.79,4.79,0,0,1,0-3.82,12.63,12.63,0,0,0,1.19-4.29c0-.26,0-.45-.3-.6A2.41,2.41,0,0,1,16,171.41c.61-1.45.21-3.17,1.32-4.46a4.71,4.71,0,0,0,.52-.93c.52-1,1-2.07-.1-3.17-.88-.87-.7-3.76.11-5a23.85,23.85,0,0,0,3.08-5.95c.08-.24.31-.42.39-.61.37-.86.83-1.73,0-2.67-1.14-1.33-.64-2.73-.08-4.14.43-1.11,1.45-1.85,1.93-2.83a14.76,14.76,0,0,0,1.94-5.4,5.31,5.31,0,0,1,2.24-4.31,18.41,18.41,0,0,0,3.25-3.34,1.79,1.79,0,0,0,.21-2.51c-.16-.23,0-.48.16-.77a21,21,0,0,1,5.82-5,6,6,0,0,1,1.85-.63c1.39-.35,1.49-1.67,2.22-2.47,1.84-2,4.18-3.08,6.62-4.14a31.26,31.26,0,0,1,6.58-1.83c1.67-.33,3.19-1.16,4.89-1.43a1.77,1.77,0,0,0,1.25-1.06A6.16,6.16,0,0,1,63,106c1.59-.82,3.22-1.54,4.81-2.34a2.71,2.71,0,0,0,1.55-2c.22-1.92,1.81-2.43,3.09-3.26a9,9,0,0,1,2.4-1,4.2,4.2,0,0,0,2.42-2.62c.22-.49.48-1,.79-1.54a1.75,1.75,0,0,1-1.68-1.49,8.88,8.88,0,0,0-1.6-2.58c-1.53-2-3.24-3.63-5.9-3.74-1.54-.06-2.86-1-4.5-.78a28.48,28.48,0,0,0-5.28,1.2,2.38,2.38,0,0,1-.73.15A7.25,7.25,0,0,0,52.5,88c-1.48,1.49-3.09,2.84-4.56,4.36-1.91,2-3,4.52-5,6.41a19,19,0,0,1-5,3.62,13,13,0,0,1-8.74,1,14.43,14.43,0,0,1-5.69-2.49,2.62,2.62,0,0,1-.42-.61c-.83,1.72-.86,3.57-1.32,5.32a22.92,22.92,0,0,0-.95,6.41c0,.5-.4.47-.5.84-.28,1,.56,1.72.48,2.69a4.65,4.65,0,0,0-.09,2c.13.38-1,.74-1.36.42-1.71-1.55-3.71-2.88-5-4.71-1.18-1.64-2.9-2.8-3.76-4.7s-2.7-3.47-3.94-5.3a11.82,11.82,0,0,1-1.12-2.14Q3.8,97,2.34,92.69c-1-3-1.28-6.14-1.86-9.22A44.28,44.28,0,0,1,.19,72.63c.12-2,.82-3.93.84-5.9,0-2.76,1.48-5,2.59-7.22a17.67,17.67,0,0,1,5-6.11,20,20,0,0,1,5-2.81A6.43,6.43,0,0,0,16,49.22a1,1,0,0,1,.55-.25,23.7,23.7,0,0,0,4.88-1.29c2.89-.84,5.77-.21,8.63-.59.83-.12,1.83-.34,2.39.83.21.44.67,0,.76-.38.49-2.41,2.12-3.47,4.35-4.25,1.59-.56,3-.66,3.95.58a5.73,5.73,0,0,1,1.17,4.7,12.9,12.9,0,0,1-1.36,3.91A6.38,6.38,0,0,0,40.91,55a4.48,4.48,0,0,1-.23,1.1c-.11.3-.23.44-.54.37a.36.36,0,0,1-.27-.49c.29-1.27.12-2.55.59-3.86a10,10,0,0,0,.21-6.21.71.71,0,0,0-.58-.54c-2.26-.69-4.34.58-5.51,2.53-.68,1.12-1.1,2.1-.1,3.31.85,1,.54,2.42.75,3.64a16.16,16.16,0,0,1,.26,5.92c-.59,2.8-.56,5.77-2.82,8.08-.86.88-1.05,2.37-1.77,3.52a20.24,20.24,0,0,0-3.19,8.22,8.1,8.1,0,0,0,.67,4.89c.69,1.31.53,2.77.55,4.2v1.16a1.38,1.38,0,0,0,1.2-.88c1-1.6,2.64-2.4,4-3.52.79-.64,1.54-1.34,2.3-2a7,7,0,0,1,3-1.92.78.78,0,0,0,.61-.36,8.11,8.11,0,0,1,4.43-3.29c2.7-1,4.45-3.29,7.17-4.15.79-.24,1.87-.08,2.58-.92s2-.73,2.95-1.14A13.06,13.06,0,0,1,60.43,72c.52-.08.81-.49,1.29-.65,2.76-.94,5.69-1.07,8.44-1.89,3.56-1.07,7.16-.77,10.73-.69a70.08,70.08,0,0,1,9.12,1,17.11,17.11,0,0,1,5.25,1.53c.73.37,1.59.92,1.31,1.68s-1.26.39-1.89.1a24.84,24.84,0,0,0-8.27-1.81c-2.3-.19-4.53-.87-6.86-.82a57.08,57.08,0,0,0-7.62.25,11.29,11.29,0,0,0-2.22.71,23.23,23.23,0,0,1-5.38.92c-1.38.17-2.55,1.14-4,.94-1.27,1.53-3.65.66-4.89,2.24-1.35-.37-2.29.57-3.42,1a24.62,24.62,0,0,0-5.2,3,27.43,27.43,0,0,1-5.15,3.19c-.59.23-.72.77-1.19,1-2.89,1.71-5.23,4.18-8.07,6a15.11,15.11,0,0,0-2.77,2.6c-.92,1-2.24,1.52-3,2.8-.83,1.47-2,2.76-2.87,4.21-.2.33.47.68.85.83a16.76,16.76,0,0,0,4.23,1.08,20.87,20.87,0,0,1,2.52.54,7.73,7.73,0,0,0,5.15-1,17.46,17.46,0,0,0,4.58-3A42.28,42.28,0,0,0,45,93.18,42.71,42.71,0,0,1,50.84,87a18.45,18.45,0,0,1,5.76-3c.73-.28,1.39.12,2.19-.21a16.39,16.39,0,0,1,9.87-.7,3.75,3.75,0,0,1,2,.72c.51.48,1.13,0,1.76.4a12.7,12.7,0,0,1,4.26,4.33,13,13,0,0,1,1.07,2.1c.1.28.36.92,1.17.31,1.39-1.06,3.08-.42,4.65-.2a3.66,3.66,0,0,0,3.83-1.3c1-1.23,2.36-2.61,4.38-2.31a.57.57,0,0,0,.56-.22,2.18,2.18,0,0,1,2.44-.53c1.47.36,2.86-.09,4.29-.1a2.06,2.06,0,0,0,1.63-1.08,6.56,6.56,0,0,1,7.11-2.4,3.22,3.22,0,0,0,2.54-.24,31.53,31.53,0,0,0,5.46-3.14,4,4,0,0,0,1.49-2.76,3.65,3.65,0,0,1,3.2-3.47,1.32,1.32,0,0,0,1.2-1.38c.11-2.39.32-4.75,2.37-6.44.25-.21.14-.51,0-.8a4.54,4.54,0,0,1,0-3.19,9.75,9.75,0,0,0,.4-4.62c-.07-.33-.12-.78-.5-1-2.24-1.06-2.4-3.29-2.72-5.27-.25-1.5-.75-2.92-1-4.42-.11-.74-.78-.73-1.21-.9-2.56-1-3.62-2.56-3.52-5.32.07-1.6-.55-2-2-2.59-1.7-.69-3.57-.17-5.25-1.27a6.53,6.53,0,0,1-2.85-3.89,27.74,27.74,0,0,0-2-3.8c-.16-.37-.67-.3-1-.47-1.94-1-3.92-.44-5.85-.07A9.46,9.46,0,0,1,92,27.26a29.83,29.83,0,0,1-4.8-2.39c-.67-.34-1.19.44-1.72.74s-.84.8-1.4.09c-.28-.36-.4.09-.54.24-.93,1-2.92,1.13-4.22.63-1.94-.73-3.8-2.07-6.1-1.25-1,.35-1.77,1-2.76,1.31a2,2,0,0,1-1.75,0c-.57-.33-.9-.43-1.11.46a11,11,0,0,1-1.73,3.43c-1.18,1.77-2.34,3.59-3.64,5.23-1.65,2.08-3.36,4.26-6,5.42a9.91,9.91,0,0,0-2.68,1.77,6.53,6.53,0,0,1-3.71,1.5c-.61.11-1.2.69-2,.2,1,.66.44,2.15,1.62,2.71a.72.72,0,0,1-.33,1.12c-.45.14-1.06.57-1.37-.25a17.65,17.65,0,0,1-.65-1.85c-.41-1.58-1.76-2-2.94-.87-.32.32-.61.59-1.09.47-.27-.07-.25-.34-.25-.53,0-.46,0-1,.61-1.06.78,0,1-.78,1.28-1.16a1.2,1.2,0,0,1,1.87-.13c.84,1,1.66.35,2.44.18,2.19-.46,3.85-2,5.79-3a18.35,18.35,0,0,0,4.08-3.12,8.42,8.42,0,0,0,3-4c.28-1.07,1.36-1.81,2-2.82a23.75,23.75,0,0,1,3.08-4.5.44.44,0,0,0,0-.58,5.22,5.22,0,0,1,.69-6.64A1.48,1.48,0,0,0,68,17.11c-.64-2.93-.53-4.06,2.73-5.77,1.66-.87,3-2.05,3.15-4.06A2,2,0,0,1,75,5.5c.94-.39,1.73-1.15,2.83-1.18a2.46,2.46,0,0,0,1.67-.66c1.52-1.44,3.34-.43,5-.46a13.26,13.26,0,0,0,2.91-.55c.46-.12.85-.88,1.37-1.25A6.28,6.28,0,0,1,95.39.58c2.06.86,4.24,2.11,6.75.7,1.15-.64,2.33.56,2.88,1.46.84,1.35,2.21,1.6,3.38,2.28.53.31,1.43-.1,1.66.84a.36.36,0,0,0,.31,0c.95-1,1.56-.08,2.33.33,1.61.87,3.19,1.82,4.79,2.7a9.42,9.42,0,0,1,3,2c.39.47,1.42.46,2.17.56.27,0,.58-.17.83.08a3.26,3.26,0,0,0,3.24.58c1.9-.41,3.34.89,5,1.17.65.11,1.12,1.15,1.23,1.87.23,1.59,1.65,2.42,2.24,3.8.28.65,1.78.84,2.76,1.13A35.82,35.82,0,0,1,143,22.27,14.41,14.41,0,0,1,147.67,26a4.13,4.13,0,0,1,1.22,2.85,4.47,4.47,0,0,0,.72,2.56c.95,1.46,1.4,3.2,2.61,4.56s.83,3.18,1.21,4.78a12.32,12.32,0,0,0,2.91,6c.3.31.39.56.21.86-1,1.6-.47,3.17-.25,4.85a16.49,16.49,0,0,1-.44,2.95c-.15,1.42-.39,2.72.7,4.18a5.13,5.13,0,0,1,.4,5.5,9.24,9.24,0,0,0-1,6.66c.63,2.33-.59,4.4-1.64,6.45a7.38,7.38,0,0,0-.84,3.19,2.36,2.36,0,0,1-.83,2.22c-.48.34-.12,1.12-.28,1.7a15.22,15.22,0,0,0-.57,3.18,9.82,9.82,0,0,0,.47,2.78c.67,2.32-.35,3.92-2,5.25a6.63,6.63,0,0,0-2.15,3.84c-.77,2.91-1,6-3.1,8.48a1.59,1.59,0,0,0-.32,1.18c.25,1.65-.73,2.46-2,2.94-1.79.68-2.86,2.34-4.5,3.18-2.4,1.23-3.11,3.85-4.74,5.72-.6.68-.32,1.81-.29,2.72,0,1.5-.93,2.3-1.9,3.06a21.79,21.79,0,0,0-4.35,4.93c-1,1.46-.38,3.18-1.35,4.54-.29.41.35.74.47,1.18.63,2.42.2,4.46-1.79,6a1.33,1.33,0,0,0-.46,1.67c.73,1.69,1.61,3.31,3.64,3.78a1,1,0,0,1,.72.44c1,1.53,2.82,1.91,4.33,2.58,1.18.53,2.73.31,4.11.31.4,0,.83-.17,1.25-.12a2.19,2.19,0,0,0,1.86-.73,5.42,5.42,0,0,1,4.17-1.77c.56.05.8-.41,1.22-.54.88-.25,1.61.43,2.38.46a8.44,8.44,0,0,1,5.15,2.36,1.59,1.59,0,0,0,1.09.23c1.74,0,3.49-.06,5.22-.16a11.5,11.5,0,0,0,2.84-.63c1.74-.58,3.64-.31,5.29-1,1.28-.52,2.73-.37,3.91-1.2.36-.25,1-.16,1.48-.19,2.53-.18,5-1,7.57-.77a1.05,1.05,0,0,0,.49-.1c1.8-.68,3.74-.73,5.56-1.45a10.62,10.62,0,0,1,3.72-.24c1.89,0,3.79-.16,5.68-.28a21.82,21.82,0,0,1,5.74.78c1.27.26,2.62-.07,3.88.37a11.62,11.62,0,0,0,5,.57c1.25-.13,2.19.73,3.21,1.26a34.63,34.63,0,0,0,5.14,1.76c1.76.59,3.65.41,5.42,1.11,1,.38,2.18,0,3.27.19,2.26.3,4.17,1.56,6.17,2.51a22,22,0,0,0,7.41,2.37,22.49,22.49,0,0,0,2.72,0c3.32-.1,6.68-.51,10,0a44,44,0,0,1,7.15,1.71,41.5,41.5,0,0,1,6.38,2.32c2.64,1.41,5.59,2.14,8.09,3.91,2.18,1.54,4.66,2.63,7,3.95,1.47.83,2.87,1.77,4.35,2.59,2.34,1.3,4.53,2.82,6.76,4.3,1.05.69,2.22,1.25,3.28,1.89a33.52,33.52,0,0,0,3,2c1.56.73,2.94,1.76,4.5,2.49a11.56,11.56,0,0,1,2.61,1.87c.33.28.61.56.93.27s-.11-.61-.27-.86c-1.08-1.64-2.07-3.29-3.91-4.37-1.32-.78-2.37-2.07-3.77-2.84-.34-.18-.7-.25-1-.42s-.72,0-.59-.43.52-.25.77-.13a15.25,15.25,0,0,1,3.08,1.53c1.06.81,2.28,1.34,3.34,2.16a6.64,6.64,0,0,1,2.32,2.7c.09.24.21.49.53.4s.25-.36.2-.54c-.41-1.48-.64-3-1.86-4.18a21.23,21.23,0,0,1-3.12-4.13c2.41,1.94,5.11,3.62,5.95,7,.82-6.68,3.35-12.34,8.37-16.89.36.54.24.86,0,1.05a25.38,25.38,0,0,0-6.15,10.33,19.59,19.59,0,0,0-1.24,7c0,.87.19,2,.93,2.11s1.18-1,1.55-1.77a25.77,25.77,0,0,0,1.68-5.26c.54-2.43,2.08-4.31,3.14-6.45a41.26,41.26,0,0,1,2-4.2,30.07,30.07,0,0,1,4.19-5.3c1.25-1.22,2.49-2.45,3.84-3.54a5.86,5.86,0,0,1,3.14-1.53c.43,0,.85-.39.95.44.05.42.52.26.79,0,.61-.53,1.65-.65,1.87-.2.35.71-.7,1.13-1.19,1.27-2.25.6-3.4,2.46-4.85,4a7.54,7.54,0,0,0-1.57,2.57,8.55,8.55,0,0,0,2.34-2.3c2.59-3,6-4.18,9.64-5.19a23.35,23.35,0,0,1,8.15-.38,9.23,9.23,0,0,1,6.73,3.09c.42.51,1.23.22,1.77.57A9,9,0,0,0,358,162c.64.14.94.69,1.28,1.21,1.13,1.7,4.17,3.75,6.42,3.18a2.54,2.54,0,0,0,1.56-.92,1.82,1.82,0,0,1,2.2-.72,41,41,0,0,1,9.88,3.9,14.28,14.28,0,0,1,5,4.21,28.61,28.61,0,0,1,3.74,6.24,12.63,12.63,0,0,0,2.21,2.91c.52.69.79,1.53,1.36,2.15.27.29-.27,1.84,1,.75a7.33,7.33,0,0,1,.69.72,8.26,8.26,0,0,0,2.26,1.83,8.15,8.15,0,0,1,3,3.66,56,56,0,0,1,2.21,5.16,4.38,4.38,0,0,1,0,2.88c-.69,2.14-1.57,4.22-2.25,6.37-.56,1.76-.79,3.61-1.38,5.38a3.89,3.89,0,0,0,.78,3.19,4.93,4.93,0,0,1,0,5.47,29.38,29.38,0,0,1-1.84,3.68,25,25,0,0,1-2.58,3.24c-1.19,1.16-1.79,2.78-2.73,4.13-1.23,1.78-1,3.78-1.14,5.8-.58-.19-.44-.65-.45-1-.12-2.34-.67-4.78,1.47-6.63a.52.52,0,0,0,.07-.7c-.26-.23-.53,0-.74.21-1.44,1.45-2.09,3.41-3.22,5.06a2,2,0,0,0,.26,2.28,2.2,2.2,0,0,1,.43,2.13,1.87,1.87,0,0,0,.07,1.12,10.73,10.73,0,0,1,0,7.69c-.29.88-.45,1.83-.68,2.72-.4,1.54-1.44,2.6-2.22,3.81a5.71,5.71,0,0,0-1,1.74ZM165.36,414.32c.14-1.38,1.07-2.16,1.42-3.2.29-.86,1.29-1.81.87-2.5-.66-1.07-.1-2.1-.38-3.1a1.7,1.7,0,0,1,.28-1.57c.19-.22.1-.8.61-.64a.88.88,0,0,1,.58.91c0,.55,0,1.1,0,1.65,0,.3-.18.73.31.83s.51-.2.67-.47c.38-.62,1.11-1,1.55-.47,1.13,1.25,1.15-.06,1.22-.53a20.07,20.07,0,0,1,1-2.94,3.77,3.77,0,0,1,.87-1.89,34.25,34.25,0,0,1,3.22-2.79c.4-.27.53-.37.9-.05.63.52.85.21.94-.48a9,9,0,0,1,2.34-4.33c.66-.82,1.28-1.68,2-2.5,1.15-1.42,1.94-3.11,3.31-4.38.59-.54,1.52-.7,1.77-1.64.64-2.42,2.29-4.13,4.09-5.75.35-.31.59-.6,1.16-.54s.76-.31.42-.88a12.85,12.85,0,0,0-2.52-2.79c-1.53-1.39-3.31-2.67-3.15-5.14,0-.44-.16-.73-.73-1a49.53,49.53,0,0,1-5.79-2.88c-1.42-.85-2.53-2.23-4.33-2.4-.3,0-.36-.31-.51-.51a45.82,45.82,0,0,0-3.36-4c-1.46-1.51-2.73-3.23-4.28-4.65a4.33,4.33,0,0,0-2.49-1.33,14.57,14.57,0,0,1-4.28-.74,7.3,7.3,0,0,1-2.9-1.46,6.26,6.26,0,0,0-5.66-1.71,5.58,5.58,0,0,1-4-.87,7.68,7.68,0,0,0-2.51-.95c-2-.21-4-.65-6-.94-.75-.11-1.13-.14-.84.87a10.14,10.14,0,0,1,.25,6.05,9.67,9.67,0,0,0-.29,2.9c0,.55-.1,1.59.82,1.36a1.16,1.16,0,0,1,1.55,1.14c.27,2.42,1.06,4.75,1.25,7.2a42.67,42.67,0,0,1-.14,7,1.88,1.88,0,0,0,1.44,2.19c.72.21.82.65.89,1.3a8.63,8.63,0,0,1-.53,2.69c-.34,1.61.38,3,1,4.41.91,2.19.59,4.58.91,6.87.13.92,0,2.13.81,2.64a3.51,3.51,0,0,1,1.5,3.68c-.07.89-.15,1.77-.19,2.66-.15,2.81.92,5.48,1,8.29,0,1.12,0,2.27,0,3.4,0,.24-.1.56.22.65a.49.49,0,0,0,.61-.32c.42-.95.75-.62,1.25,0,.63.79.69,1.87,1.51,2.53a2.28,2.28,0,0,0,.63-.49c.58-1,1.15-.67,1.89-.15a7.87,7.87,0,0,1,3,2.82c.13.29.38.77.83.67s.31-.61.31-1a2.29,2.29,0,0,0-.32-1.33c-.24-.35-.35-.85.21-1.05s.47.4.58.69a43.68,43.68,0,0,1,1.6,4.85c.15.62.58.72,1,.29.87-.91.7-3.4-.33-4.09a2.15,2.15,0,0,1-.74-1.11c-.49-1.17-.91-2.36-1.37-3.54-.26-.65.33-1.06.63-1.2.49-.22.48.43.58.76s.12.75.23,1.11A14.68,14.68,0,0,0,165.36,414.32Zm32.18-25.48a12.33,12.33,0,0,0-.87-4.95c-.45-1.56-1.86-2.61-2.43-4.13-.17-.45-.45-.18-.56,0-1.2,1.62-2.87,2.95-3.17,5.14a1.77,1.77,0,0,1-1.16,1.49,6.54,6.54,0,0,0-2.82,2.71,31.34,31.34,0,0,0-2.58,3.56c-.93,1.77-2.66,3.08-2.88,5.29-.17,1.65-1.16,2.05-2.56,1.15-.26-.18-.61-.13-.67,0-.23.57-.85.62-1.2,1.06a13.34,13.34,0,0,0-2.55,5.07,5.28,5.28,0,0,1-1.3,2.2c-.46.49-1.09-.1-1.64-.23a1,1,0,0,0-1.3.69,4,4,0,0,1-.94,2c-.84,1.05-1,2.58-1.68,3.83a1.55,1.55,0,0,0,.3,1.61,26.92,26.92,0,0,0,2.58,3.14c.2.22.52.4.28.72s-.51.15-.78-.06a6.56,6.56,0,0,1-1.81-1.79c-.21-.4-.46-.73-.92-.62s-.41.57-.44,1c0,.54.09,1.28-.38,1.54-.95.53-.74,1.32-.75,2.1s0,1.62-.06,2.42c-.15,1.83-1,3.48-1.42,5.21-.44,2-1.11,3.94-1.42,6s.16,3.9.35,5.83a2.31,2.31,0,0,0,.38.75c.62,1.1,2,.51,2.77,1.29.19.2.6-.77,1-1.1a1.43,1.43,0,0,1,.82-.27c2.14-.19,4.42.31,5.61,2.72.86,1.77,1.37,2,2.59,1.49a2.27,2.27,0,0,1,2.83.72c.33.33,1,.76,1.29.63.9-.42,1.56.13,2.31.3,2.94.68,4.19,2.8,4.73,5.53a9,9,0,0,1-.22,4.39c-.08.28-.08.52.17.67s.56,0,.73-.29c.92-1.56,1.85-3.1,2.74-4.67a27.65,27.65,0,0,0,2.49-5.56c.47-1.53,1.46-2.87,1.71-4.43.46-2.9,1.62-5.64,2-8.57a12,12,0,0,1,.4-2.63c.83-2.34,1.09-4.85,2-7.14.47-1.13-.22-2.18.12-3.2.46-1.39.17-2.85.93-4.28,1.11-2.1,1-4.56.9-6.92,0-.86-.29-1.52-1.13-1.77a.81.81,0,0,1-.61-1,7.63,7.63,0,0,1,.3-2.14,7.15,7.15,0,0,0-.17-5.47c-.14-.32-.12-.73-.8-.49-.85.3-1.59-.53-1.7-1.47s.55-1.44.56-2.28A44.69,44.69,0,0,0,197.54,388.84ZM1.21,75.72c-.24,3,.62,5.77.64,8.62A7.94,7.94,0,0,0,2,86.47c.69,2.41,1.53,4.78,2.17,7.2a37.52,37.52,0,0,0,2.39,5.79,17.11,17.11,0,0,0,2.91,4.75c.8.86,1.39,2,2.13,2.89,2.09,2.56,3.82,5.46,6.51,7.52.23.16.34.56.69.38s.17-.54.16-.81a25.74,25.74,0,0,1,.26-4.49c.3-2.26.46-4.63,1.7-6.68-.54-1.45.54-2.54.88-3.78s1.41-2.39,2.2-3.54,1.68-2.23,2.41-3.43a19.14,19.14,0,0,0,.91-2.67,2.81,2.81,0,0,0,0-2.39c-.87-2.2-1.85-4.39-1.34-6.88a34.5,34.5,0,0,1,1.24-4,27.42,27.42,0,0,1,2.15-4.48c1-1.83,2.28-3.5,3.15-5.44.72-1.61.78-3.33,1.31-5,.47-1.43-.26-3.06.66-4.43-.71-.85-.4-1.93-.62-2.88-.37-1.58-1.51-2.86-1.8-4.42-.17-.91-.6-.92-1.24-1-1.49-.1-2.93.39-4.43.29a17.8,17.8,0,0,0-7.56,1.22c-2.15.8-4.22,2-6.34,2.59-3,.84-4.48,3.24-6.32,5.1-1.54,1.55-2.3,4-3.09,6.21-.49,1.38-.28,2.9-.83,4.19C1.56,70,1.62,71.74,1.2,73.44,1,74.22,1.4,75,1.21,75.72Zm234.4,395.73c-3-2.14-2.45,1.92-4.11.19a12.89,12.89,0,0,0-2.47-3.12,2.78,2.78,0,0,0-3.46-.53,2,2,0,0,1-1.66,0c-1.66-.46-2.47-1.91-3.69-2.88-.36-.29-.6-.37-1-.14-2.86,1.71-5.1.53-7.25-.84a1.13,1.13,0,0,1-.48-.71,14.14,14.14,0,0,1-.78-2.12c0-.25-.09-.67-.46-.66s-.38.48-.45.78a2.64,2.64,0,0,0,0,.63c.08,4.28-.14,8.59,1.91,12.58.3.59.65,1,1.07.43a2.06,2.06,0,0,1,2.61-.73,2.07,2.07,0,0,0,1.36-.11,2.51,2.51,0,0,1,1.41,0c2,.16,3.42,1.58,5.07,2.38a18.1,18.1,0,0,0,6.74,1.59,2.12,2.12,0,0,0,2.36-2c0-.29,0-3.82.35-3.9.57-.13,2.14,4.56,4,6.81,1.47,1.8,1.5,4.4,1.59,4.16.44-1.2.4-4.4.05-7.11C237.84,472.84,236.25,471.9,235.61,471.45ZM95.09,462.93c-.67.17-1.78-.29-2.64.46-1.88,1.66-3.78,3.26-4.89,5.63s-.61,4.53-.13,6.79a.74.74,0,0,0,.75.58c.4,0,.4-.4.43-.68a3.82,3.82,0,0,1,1.52-2.51,17.06,17.06,0,0,0,2.07-1.79c1.81-2.15,4-3.38,6.86-3a5.45,5.45,0,0,0,1.14,0,1.64,1.64,0,0,0,1.51-2.21c-.5-1-.66-2.19-1.76-2.78-.68-.37-1.77-1.3-1.94-1.07C97.22,463.42,96.27,462.82,95.09,462.93Zm26.18,47a1.42,1.42,0,0,0,.81-1.11,8.6,8.6,0,0,1,2.53-3.9,5,5,0,0,1,2.86-1.65c1.42-.2,2.7-1.15,4.24-1,.21,0,.37-.15.48-.35a3.89,3.89,0,0,0-1.83-5c-.58-.22-1.12-1.15-1.94-.24-.12.13-.65-.42-1.33,0a10.47,10.47,0,0,0-3.25,3.17c-.83,1.2-2.06,2.2-2.09,3.88a13.77,13.77,0,0,1-.5,2.59A6.27,6.27,0,0,0,121.27,510Zm10.9-30.44a2.68,2.68,0,0,0-.56-1.87,4.59,4.59,0,0,0-2.94-1.5c-2.7-.43-4.36.2-5.94,2.52-1.38,2-1.78,4.31-2.21,6.62a.83.83,0,0,0,.42.85c.4.25.54-.23.78-.43.51-.41.42-1.15,1-1.58a26.08,26.08,0,0,1,4.36-2.66,5.27,5.27,0,0,1,3.33-.57C132.17,481.3,132.15,481.39,132.17,479.53ZM67.05,453.32c0,.33-.09.67-.1,1s-.13.86.34,1,.52-.39.69-.72a3.08,3.08,0,0,1,2.34-1.89,3.74,3.74,0,0,0,2.09-1.08c.47-.46.83-.54,1.29-.09.72.69,2,0,2.59,1a.46.46,0,0,0,.3-.14,6.55,6.55,0,0,0,1-4c0-1-.84-1.09-1.27-1.24-1.34-.47-2.65-1.05-4.25-.51C68.73,447.71,67.36,450.07,67.05,453.32ZM84.7,436.41c-.07-.68.25-1.78-.72-2.2-.57-.25-1.06-.4-1.27-1-.14-.38-.44-.28-.73-.32a8.1,8.1,0,0,0-6,1.66c-1.7,1.27-3.16,2.74-2.76,5.16,0,.24-.07.54.24.66s.38-.18.55-.35c2.16-2,6.1-4.36,9.36-2.06,1.11.78,1.35.56,1.37-.85C84.71,436.93,84.7,436.76,84.7,436.41Zm98.71,12.82c-.5,0-.57.42-.45.79a15.92,15.92,0,0,1,.74,3.21c0,.46.55.53.91.45s.28-.49.2-.75a14.89,14.89,0,0,1-.57-3C184.2,449.53,183.86,449.35,183.41,449.23Z"/><path d="M172.37,282.39c1,.41,1,1.44,1.35,2.15a48.69,48.69,0,0,0,4.41,6.14,33.2,33.2,0,0,0,3.34,3.67,29.55,29.55,0,0,0,5.23,4c2,1.24,3.63,2.93,5.76,4a50.17,50.17,0,0,1,4.85,2.95c2.17,1.4,4.36,2.78,6.46,4.29a20.48,20.48,0,0,0,3.54,1.83,19.38,19.38,0,0,1,6.28,4.21,1.18,1.18,0,0,0,1.59.24c1.16-.67,2.62-.66,3.65-1.67a2.74,2.74,0,0,1,1.72-.64,2.65,2.65,0,0,0,2.58-2.13c.25-1.18-.61-2-1.62-2.58a56.89,56.89,0,0,0-5.56-2.41c-2.23-1-4.57-1.68-6.8-2.71-2-.92-4-1.74-6-2.75a42.16,42.16,0,0,1-5.52-3.4c-2.88-2.11-5.67-4.35-8.43-6.62a16.8,16.8,0,0,1-3.47-4,8.08,8.08,0,0,1-.56-2.44c1.36,0,1.36,1.33,1.94,2a52.21,52.21,0,0,0,4.71,4.58,53.41,53.41,0,0,0,7.16,5.33,77.21,77.21,0,0,0,10.55,5.73c3.27,1.45,6.4,1,9.64.83,1.48-.05,3-.16,4.42-.26a3.28,3.28,0,0,0,2.62-3.13,1,1,0,0,0-.42-.86,22.85,22.85,0,0,0-5.25-2.81c-2.23-.7-4.44-1.41-6.74-1.92a24.2,24.2,0,0,1-10.89-5.5c-2.54-2.23-5.34-4.2-7.65-6.67-2.68-2.87-5.88-5.1-8.82-7.65-1.27-1.1-2.38-2.36-2.19-4.25.05-.45-.16-.69-.48-1a6.23,6.23,0,0,1-2.06-4.1c0-.24-.2-.64.25-.71s.41.3.51.58a12.49,12.49,0,0,0,3.21,4.47c.48.47,1.43,1-.11,1.33-.3.07-.07.95.33,1.29,1.32,1.09,2.7,2.11,3.93,3.3,2.39,2.3,4.9,4.49,7.33,6.75,3.14,2.92,6.36,5.91,10.28,7.82a10.64,10.64,0,0,0,5.26,1,9.26,9.26,0,0,0,6.09-3.07c.69-.66.59-1.31-.14-2a16.08,16.08,0,0,0-6.41-3.44c-2.51-.77-5.14-1.5-7.31-3.17-.62-.48-1.43-.46-2.14-.83-2.44-1.26-4.28-3.26-6.5-4.77a2,2,0,0,1-.65-.87c-.19-.35-1-.63-.44-1.06s.91.19,1.34.44c3.25,1.92,5.88,4.81,9.56,6,.32.1.85.53.86-.14,0-1,.71-.85,1.28-.91a4.85,4.85,0,0,0,3.15-1.85c.77-.92.1-2.11-1-3.35-1.89-2.1-4.42-3.05-6.85-4-1.83-.71-3.73-1.39-5.64-1.94a35.57,35.57,0,0,1-8.12-3.86c-1.4-.83-2.9-1.5-4.29-2.37a15.22,15.22,0,0,1-4.89-4.32c.85-.84,1.59-.14,2,.38a13,13,0,0,0,3.3,2.44,44.92,44.92,0,0,0,4.59,2.58c1.66.76,3.32,1.56,5,2.31,1.07.47,2,1.31,3.38.9.4-.12.86.61,1.42.86,2.27,1,4-.38,5.61-1.35a11.11,11.11,0,0,0,3.2-3.24c.7-1,.53-1.35-.65-1.37a36.58,36.58,0,0,1-8.65-1.32c-2.3-.59-4.58-1.38-6.9-1.81a19.71,19.71,0,0,1-5.91-2,20.27,20.27,0,0,1-7.17-5.74c-.75-1-1.17-2.33-2.2-3.19-.33-.28-.27-.67-.11-1.06.09-.22.2-.35.45-.34.47,0,.44.46.61.71a26.5,26.5,0,0,0,3.51,4.33,30.73,30.73,0,0,0,5.33,3.92,10.21,10.21,0,0,0,4.27,1.5c.27,0,.69.12.67-.34-.07-1.6,1.06-.88,1.45-.58,1.71,1.32,3.45.48,5.11.12,1-.21,2-.9,3.06-1.18a16,16,0,0,0,6-3.19,13,13,0,0,1,1.29-1.08c.91-.54.55-1.33.45-2s-.78-.41-1.21-.42a30.44,30.44,0,0,0-6.34.1c-2.42.5-4.89.48-7.31,1a7.5,7.5,0,0,1-4.45-.23c-1-.4-2.16-.4-3.26-.78-2.05-.71-3.12-2.29-4.37-3.78-.18-.23-.25-.56-.46-.74-.42-.34-.51-.73-.13-1.06s.76,0,1.09.29c.95.71,1.38,1.86,2.24,2.65.17.16.4.37.48.23.79-1.31,1.16-.12,1.67.26a8.31,8.31,0,0,0,6.7,1.41,55.09,55.09,0,0,1,6.64-.76c1-.08,2-.64,3.05-.39.87-1.8,3.19-.39,4.27-2a9.68,9.68,0,0,0,1.06-1.39,52.29,52.29,0,0,0,1.86-5.89c.38-1.46,0-1.84-1.57-1.66a6.32,6.32,0,0,0-3,1,11.45,11.45,0,0,1-2.9,1.14c-1.71.58-3.53.63-5.22,1.27a7.24,7.24,0,0,1-2.52.22c-2.19,0-4.42.59-6.55-.14-1.27-.43-2.81-.42-3.67-1.8-.29-.48-.53-1-.11-1.35s.65.3,1,.45a9.12,9.12,0,0,0,3.75,1.26,41.92,41.92,0,0,0,7.35-.37c1.74-.32,3.42-1,5.16-1.28a7.45,7.45,0,0,0,3.53-1.28,8.38,8.38,0,0,0,2.46-2.63,9,9,0,0,0,.65-4c0-1.12-.61-1.62-1.72-1.7-2.27-.16-4.27.74-6.39,1.28s-3.68,1.61-5.69,2.11c-1.45.36-3,.68-4.44,1.15a13.25,13.25,0,0,1-5,.52,1.81,1.81,0,0,1-1.6-1c-.22-.53-.27-1.49.18-1.58a2.47,2.47,0,0,1,2.28.49c.15.15.15.5.47.45,1.59-.26,3.29.35,4.79-.7.8-.56,1.84-.4,2.78-.83a41.39,41.39,0,0,1,6.75-2.67,6.39,6.39,0,0,1,2.86-.31c1.05.2,1.94-.75,3-.62.47.06,1-.06,1.08.57s.67-.12,1,.36c.57.75,1.58,3.41,1.09,4.23-.65,1.1-.41,2.45-1.22,3.5-.42.55.18.66.61.72,1.76.24,1.85.42,2,2.15.4,3.65-1.28,6.65-2.84,9.71-.18.35-.55.34-1,.58a2.83,2.83,0,0,1,2.54,2,3.65,3.65,0,0,1-1,3.94c-2,1.93-4.17,3.77-7.12,4.42-1.78.39-3.52,1.1-5.32,1.53,0,.09,0,.17.05.17,1.85,0,3.52.87,5.35,1.1,2,.25,4,.56,6.09.68,1,.06,2.36,2.54,1.82,3.45a9.7,9.7,0,0,1-3.67,4.1c-.92.46-1.6,1.32-2.73,1.66a21.77,21.77,0,0,0,2.23,1.08c2.58.92,4.37,2.86,6.08,4.81,1.33,1.52.8,3.17-1.08,4.77a5.29,5.29,0,0,1-3.83,1.29c-.24,0-.67-.19-.67.3,0,.32.34.32.56.42,2.4,1.12,5,1.59,7.47,2.51s4.72,2.46,5.58,5.23c.33,1.05-.82,3-1.87,3.41a25,25,0,0,0-2.3,1.19,3.14,3.14,0,0,1-1.58.58c-.26,0-.53,0-.53.38a.45.45,0,0,0,.49.47,17.94,17.94,0,0,1,5.61,1.59,14.25,14.25,0,0,1,6.38,4.08c1.36,1.69.86,3.69-.74,5.13-1.87,1.68-4.06,1-6.08,1.43a8.27,8.27,0,0,1-1.65,0c-.32,0-.75-.11-.85.35s.44.33.67.48c1.8,1.16,4,1.58,5.45,3.43,1.56,2,1.55,3.15-.34,4.72a8.89,8.89,0,0,1-3.38,1.65c-1.52.44-2.85,1.46-4.39,1.95-.2.07-.42.18-.38.44.42,2.63-1.63,3.31-3.38,4a11.85,11.85,0,0,1-7.95.66,13.72,13.72,0,0,0-4.79-.31c-.68,0-.87.56-1.28.87a6.48,6.48,0,0,1-4.07,1c-3.8,0-7.6-.15-11.41-.19a21.07,21.07,0,0,1-8.48-1.52c-1.2-.54-2.54-.75-3.8-1.17a10.94,10.94,0,0,1-2.35-1.22c-1.13-.7-2.33-1.3-3.42-2.07a31.86,31.86,0,0,1-7.38-6.62c-1.8-2.39-3.27-5-5-7.44-.77-1.11-.8-2.57-1.67-3.67a27.27,27.27,0,0,1-3.75-7.54,9.17,9.17,0,0,0-1.6-2.42c-.83-1-.75-2.44-1.61-3.44a2.72,2.72,0,0,1-.82-2.71c.18-.59-.32-.43-.62-.35-.63.18-1.14,1-1.8.68a6.42,6.42,0,0,1-3-2.55,29.36,29.36,0,0,1-2.65-5.14c-.69-2.21-2.32-3.93-3.71-5.74a48.93,48.93,0,0,0-4.31-4.89c-2.16-2.18-4-4.63-6.11-6.84a3.2,3.2,0,0,1-.41-.6c-1.29-2.12-2.31-4.39-3.39-6.6-.79-1.62-1.36-3.37-2.14-5-1-2.21-2.1-4.41-3.15-6.61a1.76,1.76,0,0,1-.15-.35c-.37-2.44-1.11-4.84-.86-7.36.21-2,1.29-3.66,2.07-5.42.94-2.12,2.39-4,3.24-6.17.44-1.14,1.56-1.78,2-3a31,31,0,0,1,2-3.85c1.32-2.62,2.6-5.27,3.89-7.92a31.27,31.27,0,0,0,2.66-7.38c.61-3,1.08-6,1.63-8.95a21.55,21.55,0,0,0,.56-5.47c0-.39.06-.69.42-.8s.5.2.71.5a4,4,0,0,1,.37,3.42,45.91,45.91,0,0,0-.58,4.62c-.42,2.72-1.19,5.36-1.65,8.06a17.07,17.07,0,0,1-2.52,6.5c-1.13,1.76-1.55,3.8-2.52,5.62a93.82,93.82,0,0,1-5.06,9,24.13,24.13,0,0,0-3.17,6.29,25,25,0,0,1-2.11,4,4.07,4.07,0,0,0-.24,2.23,18.33,18.33,0,0,0,2.24,7.69c.8,1.52,1.35,3.18,2.08,4.75,1,2.13,1.64,4.43,2.78,6.46a44.8,44.8,0,0,0,5.64,8.25c2.22,2.48,4.67,4.76,6.77,7.33a27.4,27.4,0,0,1,4.79,7.62,21.42,21.42,0,0,0,3.41,5.77,1,1,0,0,0,.41.3c1.18.45,2.39-.11,3.62,0,.7.08.48-1.43.74-2.19.14-.41-.13-.93.45-1.21.4-.19.53-1,1.18-.52a1.21,1.21,0,0,1,.2,1.71,2.11,2.11,0,0,0-.5,1.23,3.13,3.13,0,0,1-2,2.73c-.32.15-.41.32-.22.55,1.09,1.33,1.59,3,2.67,4.38a15.19,15.19,0,0,1,2.22,4.36,13.65,13.65,0,0,0,2,3.33,12.78,12.78,0,0,1,1.34,2.59c1.24,3.19,3.32,5.85,5,8.73a34.26,34.26,0,0,0,13,11.22c1.51.6,3,1.54,4.81,1.61a8.55,8.55,0,0,1,2.5.75,9,9,0,0,0,3.93.55c2.57-.16,5.13.15,7.7.21,1.65,0,3.28-.07,4.92-.1.16,0,.33-.15.48-.12.42.06.95.49,1.19-.11s-.52-.68-.81-1c-1.3-1.34-3.11-1.73-4.79-2.31-1.93-.68-4-1.05-5.62-2.39-1.07-.86-2.47-.9-3.61-1.7a44.28,44.28,0,0,1-6.4-5c-1.16-1.17-2.68-1.95-3.92-3a25,25,0,0,1-3.46-3.93c-.9-1.19-1.73-2.44-2.61-3.64-1.39-1.89-2.67-3.87-4.17-5.66-.83-1-.85-2.29-1.63-3.24a.39.39,0,0,1,.12-.64.52.52,0,0,1,.74.2,22.28,22.28,0,0,1,2.12,3.4c.75,1.68,2.16,2.75,3.13,4.2,1.25,1.87,2.84,3.48,4,5.4a12.35,12.35,0,0,0,2.56,2.26c.7.62,1.79.84,2,2,.08.52.86.28,1.27.61,1.21,1,2.47,1.91,3.73,2.84a52.76,52.76,0,0,0,5.62,3.56c2,1.1,4.32,1.35,6.16,2.78a7.24,7.24,0,0,0,2.5.84,14.4,14.4,0,0,1,5,2.59,2.58,2.58,0,0,0,1.79.38c3.53-.05,7.06.44,10.59.08,1.09-.11,1.9-.81,2.9-1.11.83-.25.83-1.65-.05-2.35a30,30,0,0,0-5.49-3.66c-1.74-.84-3.65-1.32-5.2-2.55-1.08-.87-2.2-1.69-3.29-2.55-1.76-1.39-3.84-2.26-5.71-3.47-3.64-2.36-7.13-4.94-10.65-7.5a39.19,39.19,0,0,1-7.11-7.4,19.58,19.58,0,0,1-2.62-3.53A6.93,6.93,0,0,1,172.37,282.39Z"/><path d="M87.37,55.45c.61-.54.65-1.91,1.86-.86.33.29.55-.65.91-.44,1.1.65,2.16-.15,3.22,0,.87.12.62.88.39,1.26-.69,1.13-3.43,1.92-4.71,1.44a2.06,2.06,0,0,0-1.93.09.78.78,0,0,1-.72.1c-.25-.09-.58-.47-.72,0s.34.49.66.53.94-.15.9.54-.35.9-1,1a7.17,7.17,0,0,1-3.79-1.11,8.06,8.06,0,0,1-2.27-1.45c-.91-.89-2-1.68-2.08-3.11,0-.08,0-.19-.1-.22-3.34-1.86-1.1-4.36-.78-6.65a18.53,18.53,0,0,1,1.08-2.94,9.53,9.53,0,0,1,3.33-4.23c1-.81,2.2-.9,3.15-1.63.06,0,.2-.07.24,0,1,.9,1.82-.26,2.77-.18,1.1.08,2.19-.21,3.18.64.7.6,1.88.22,2.55,1.12a5.45,5.45,0,0,1,1.33,2.28c.17,1,1,1.68.9,2.79-.24,3.41-1.28,6.37-4.37,8.2a9.58,9.58,0,0,1-3.47,1.4c-.41.07-1-.08-1.1.41S87.23,55,87.37,55.45Zm.39-15.51c-2.6-.52-4.82.73-6.66,2.18a8.28,8.28,0,0,0-2.49,4.48c-.36,1.45.33,2.42,1.5,3.38a9.29,9.29,0,0,0,6.17,2.14c.6,0,.85-.6,1.48-.59,1.95,0,3.18-1.29,4.47-2.49.9-.84.81-2,1.27-3a3.14,3.14,0,0,0-.09-3.06c-.32-.59-1.06-.91-1.2-1.35-.46-1.39-1.46-1.6-2.66-1.73A12,12,0,0,0,87.76,39.94Z"/><path d="M151.4,519.93c-.05-3.08.82-5.52,1.36-8a29.86,29.86,0,0,0,.51-3.26,9.14,9.14,0,0,1,5.28-6.45,19.34,19.34,0,0,0,2.26-1.06c.19-.09.4-.31.55-.28,2,.51,2.69-1.36,3.9-2.25.2-.15.4-.52.54-.49,1.95.44,2.36-1,2.85-2.31a1.63,1.63,0,0,1,1.87-1.13c1.41.08,2.66-.08,3.17-1.72a2.17,2.17,0,0,1,1.76-1.41,2.61,2.61,0,0,0,1.78-1.25c1.21-2.34,3.31-4.1,4.38-6.52.67-1.52,1.22-3.08,2-4.55a54.59,54.59,0,0,1,3.3-5.81,23.15,23.15,0,0,0,1.13-2.16c.22-.39.58-.66.87-.58.48.13.24.63.19,1-.29,1.69-1.7,2.79-2.27,4.31s-1.85,2.71-2.26,4.36c-.46,1.87-1.7,3.42-2.27,5.27-.24.75-.88,1.41.27,1.94.33.16.27.53.14.79s-.42.19-.68.13a2.73,2.73,0,0,0-3.25,1.73c-.21.68-.2,1.4.7,1.64a1.45,1.45,0,0,1,.79.55c.29.34,1.13.46.6,1.11s-1,.08-1.34-.23c-1.2-1.11-2.56-1-3.92-.56a1.8,1.8,0,0,0-1,2.82,4.74,4.74,0,0,1,.31.54c.17.38.43.87,0,1.13s-.72-.13-1-.52c-.7-1-2.65-1.52-3.36-1a2.5,2.5,0,0,0-.13,3.84c.34.38,1.07.64.53,1.44-.35.5-.59.61-.88,0-.52-1.06-1.59-1.47-2.48-2a1.34,1.34,0,0,0-1.94.24c-.48.74-1.42,1.39-.56,2.54.63.84,1.49,1.66,1.22,2.91-.09.43,0,1-.65,1.06s-.42-.6-.49-.94a4.87,4.87,0,0,0-1.88-2.68c-.55-.47-1.21-.18-1.94,0-2.11.48-3.46,2-5.08,3.19a1.61,1.61,0,0,0-.53,1.38c0,.64.25,1,1,.64,2-.88,2-.88,3.17.94a8.5,8.5,0,0,1,.88,1.79,2.22,2.22,0,0,1-1.23,3,8,8,0,0,0-3.46,4.8,17.65,17.65,0,0,0-1.19,6.41c0,.44,0,1.08-.49,1.19s-.86-.39-1.24-.73A5.45,5.45,0,0,1,151.4,519.93Zm1.93,2.29,1.62-5.08a7.35,7.35,0,0,1,2.78-4,3.48,3.48,0,0,0,.76-5.14c-.17-.23-.41-.52-.56-.31-.5.74-1.44.65-2,1.34-1.53,1.74-2,3.84-2.47,5.94-.35,1.57-.32,3.21-.66,4.78A3.38,3.38,0,0,0,153.33,522.22Z"/><path d="M344.88,176.84c1.6-2.12,3.51-3.66,6.28-3.76.22,0,.35-.18.52-.3.7-.52,1.41-.83,2.14.05.34.4.84.28,1.27,0a2.19,2.19,0,0,1,2.52.15c.77.5,1.82.32,2.65.81,1.91,1.14,4.07,1.94,5.38,3.91.08.13.16.4.23.4,1.73-.11,2.3,1.69,3.68,2.28a4,4,0,0,1,2.18,2.68c.1.54.6.68.85,1.1.8,1.34.5,2.79.78,4.16,1.23,5.86.9,11.79.8,17.71a20.8,20.8,0,0,0,.38,5.79,4.23,4.23,0,0,0,2.09,3c.28.13.56.29.36.67s-.47.31-.78.27a4.42,4.42,0,0,1-2.93-2.89,21.73,21.73,0,0,1-.66-7.22c.11-1.54-.08-3.12.51-4.63.42-1.09-.22-2.13-.29-3.2a66.2,66.2,0,0,0-.52-7.34c-.3-1.71-.13-3.47-.62-5.13a8.4,8.4,0,0,0-3-4.1c-1.94-1.56-3.78-3.23-5.73-4.78a11.76,11.76,0,0,0-5.34-2.74c-.21,0-.5,0-.6-.09-.77-.89-1.69-.08-2.52-.15-.34,0-1,.29-1.49.23a9.71,9.71,0,0,0-5.14,1.22,7.45,7.45,0,0,0-1.55,1.31A1.59,1.59,0,0,1,344.88,176.84Z"/><path d="M364.82,204.6c0-.47,0-.93,0-1.4,0-1.86-.11-1.64-1.92-2.2s-3.46-1.29-4.47-3.38-1.87-4.28-2.85-6.39c-.71-1.54-1.24-3.19-2.05-4.68-1.14-2.11-2.44-4.12-4.95-4.89-.18,0-.29-.28-.46-.38s-1-.1-.57-.64c.24-.32,1.15-.65,1.31-.17.3.86,1.07.95,1.59,1.15,2,.75,2.95,2.51,3.87,4.15,1.13,2,1.77,4.37,2.83,6.47,1,1.91,1.6,4,3,5.68a4.69,4.69,0,0,0,3.59,1.66,2.58,2.58,0,0,1,2.37,3.4,1.8,1.8,0,0,0,.05,1.55c.48,1,.05,2.24.38,3.37a16.76,16.76,0,0,0,3.77,7,9.41,9.41,0,0,0,3.51,2.76,5.7,5.7,0,0,0,1.86.19c.6,0,1.14,0,1.1.82s-.66.5-1,.47a9.69,9.69,0,0,1-7.34-4.36,31.82,31.82,0,0,1-2.7-4.82A9.85,9.85,0,0,1,364.82,204.6Z"/><path d="M344.87,214.8a6.55,6.55,0,0,1-.38-2.91c0-1.89.1-3.78,0-5.66-.19-3.33-4.53-6.71-7.75-5.87a22.11,22.11,0,0,1-3.94.76c-1.21.08-2.41.11-3.26-.83s-2.43-.77-3.5-1.65a6.14,6.14,0,0,1-2.67-4.5.23.23,0,0,0-.1-.17c-1.74-1.19-.06-1.89.52-2.38a9,9,0,0,1,4.36-1.87,3,3,0,0,1,2.23.54,12.87,12.87,0,0,1,3.13,2.29c.21.27.85.48.22,1-.48.38-.86-.1-1-.27a5.36,5.36,0,0,0-5.87-1.62,11.7,11.7,0,0,0-2.67,1.21c-.65.37-.4,1.36,0,2a10,10,0,0,0,5,3.74c1.18.43,2.18,1.32,3.57,1.06a20.25,20.25,0,0,1,3-.43,7,7,0,0,0,3.05-.65c.58-.29.76,0,.68.67,0,.11,0,.28.07.33a.46.46,0,0,0,.67-.11.94.94,0,0,1,1.59.05c.89,1.72,2.29,3.06,3.25,4.74s.49,3.51.22,5.24a7.87,7.87,0,0,0-.24,2.08A5.61,5.61,0,0,1,344.87,214.8Z"/><path d="M369.15,173.77a6.42,6.42,0,0,1,3.23,1.63c1.09.86,2,1.81,3.5,2.12a13.6,13.6,0,0,1,8.69,5.88c.73,1.06,1.86,1.82,2.37,3.06a6.39,6.39,0,0,1,.12,4c-.49,2.11-1.91,4-1.37,6.38a10.64,10.64,0,0,1-.07,2.1,11.3,11.3,0,0,0,2.26,5.91c.13.2.54.44.26.74s-.51,0-.76-.18a6.56,6.56,0,0,1-2.62-4.41,24.5,24.5,0,0,1,.21-8.95c.12-.5.47-.82.56-1.34.38-2.1.32-3.84-1.55-5.48-1.53-1.33-2.66-3.14-4.31-4.42a10.26,10.26,0,0,0-3.43-1.34c-2.61-.85-4.33-2.81-6.3-4.49-.34-.29-.69-.57-1-.85Z"/><path d="M202.1,465.07c.36-1.76.49-3.55.74-5.32q.43-3.12,1-6.22c.32-1.63.76-3.24,1.12-4.87a7.12,7.12,0,0,0,.16-1.38,41.38,41.38,0,0,1,.59-7.72c.6-2.95,1-5.94,1.51-8.9.1-.56.67-.74.78-1.26,0-.2.35-.21.56-.13a.55.55,0,0,1,.33.62,14.21,14.21,0,0,1-.26,2.27c-.85,3.43-1.15,7-1.83,10.42-.36,1.81-.12,3.65-.49,5.4a35.85,35.85,0,0,0-1,5.52c-.16,3.29-1.41,6.37-1.68,9.64-.1,1.32.06,2.62,0,3.93,0,.38.11.95-.44,1s-.58-.42-.75-.82A5.13,5.13,0,0,1,202.1,465.07Z"/><path d="M161.87,273.81c.58-1.54-1.17-1.36-1.84-1.88s-.59-1-.28-1.43.74-.38,1.19.1a6.11,6.11,0,0,0,1.5.8c.72.4,1.68.37,1.95-.18s1.35-1.39.44-2.38a1.64,1.64,0,0,1-.3-.94.87.87,0,0,1,.55-1c.49-.19.48.28.68.49,1.19,1.21.74,2.59.31,3.9a9.78,9.78,0,0,1-.49,1.12c-.29.6-.66,1.05-1.46.89s-1.2.18-1.18,1.1a3.09,3.09,0,0,1-.63,2.34,3.27,3.27,0,0,1-3.87.44c-1.41-.82-3-1.45-3.74-3.08-.17-.34-.51-.51-1.07-.26a4,4,0,0,1-5-1.5c-.64-.84-1.31-1.66-1.93-2.5s0-1,.21-1.3c.63-.67.56.31.74.47.8.69,1.46,1.53,2.2,2.29.92.94,3.53.9,4.38-.1.21-.25.49-.29.7-.48.11.31.37.68.29.93-.61,2,1.14,2.51,2.17,3.27a5.11,5.11,0,0,0,2.21,1C161.17,276.16,161.87,275.59,161.87,273.81Z"/><path d="M330.55,183.67a24.3,24.3,0,0,0-6.74,3.36c-2.07,1.4-4.39,2.64-5.5,5.14-.61-.46-.7-.88-.38-1.4a13.1,13.1,0,0,1,3.28-3.6,1.94,1.94,0,0,0,1-1.86,9,9,0,0,1,1.11-3.95c1-2.07,2.25-4,3.33-6a7.69,7.69,0,0,1,1.63-1.93c1.4-1.28,2.29-3,3.86-4.14a31.53,31.53,0,0,1,5.85-3.11c.18-.08.54-.21.61.18a.8.8,0,0,1-.34.85c-1.08.89-2.33,1.49-3.45,2.28-1.53,1.07-3.36,1.87-4.53,3.23a37.53,37.53,0,0,0-3.06,4.14c-1,1.61-1.95,3.3-2.88,5-.59,1-.64,2.24-1.34,3.28-.45.66.56.55.86.45a18.07,18.07,0,0,0,3.62-1.35A5.35,5.35,0,0,1,330.55,183.67Z"/><path d="M368.78,222.72a19.12,19.12,0,0,0,0,8.93c.42,1.62.59,3.24,1.82,4.5a.36.36,0,0,1-.15.54c-.25.14-.23.45-.05.5,1.89.54,2.45,2.47,3.41,3.75,1.9,2.51,2.05,5.68,1.11,8.73-.43,1.38-.43,2.84-.92,4.18-.33.91-.29,2.05-1.56,2.87.37-1.58,0-2.94.68-4.24a5.17,5.17,0,0,0,.22-2,16.17,16.17,0,0,1,.78-3.08c.59-2.34-.64-3.88-1.84-5.54a41.05,41.05,0,0,1-4-6.57,11.66,11.66,0,0,1-.7-3.61,21.25,21.25,0,0,1,0-7.75A1.35,1.35,0,0,1,368.78,222.72Z"/><path d="M326.43,221.12a7.1,7.1,0,0,0,2.44,4.69c1.49,1.16,4.43,1,5.29-1.11a9.76,9.76,0,0,0,1.15-3.13c0-.33.06-.62.48-.54s.42.36.38.68a9.14,9.14,0,0,1-1.76,4.38c-.55.69-.61,1.08,0,1.56s1.27.16,1.68-.43c.88-1.24.83-1.13,1.92.07,1.66,1.81,3.67,3.09,6.31,2.6,1.51-.27,2.26-1.47,2.94-2.68.15-.28.08-.76.57-.64s.43.52.29.84c-.57,1.33-1,2.77-2.61,3.29-.08,0-.21,0-.25,0-1.92,2.51-3.82.63-5.58-.17a3.2,3.2,0,0,1-2.08-2,.76.76,0,0,0-1.41-.1c-.67,1.07-1.49.72-2.08.19a2.49,2.49,0,0,0-2.43-.73,3.16,3.16,0,0,1-2.37-.54,5.87,5.87,0,0,1-3.31-4.72A2.72,2.72,0,0,1,326.43,221.12Z"/><path d="M37.77,134c-1.36.23-2.21.36-3.15-.38-1.38-1.11-.94-2.52-.77-3.7A12.34,12.34,0,0,1,36.41,124c.21-.26.34-.56.73-.64s.46-.81.85-.33a1.08,1.08,0,0,1,0,1.31c-1.6,1.41-2.22,3.33-2.8,5.25-.25.82-.5,1.87.12,2.54,1.32,1.42,1.4,1.44,2.88-.34A4.12,4.12,0,0,1,40,130.65c.2-.08.44-.11.55.12a.38.38,0,0,1-.2.52c-.64.36-.94,1-1.4,1.56a1.62,1.62,0,0,0-.56,1.72,9.25,9.25,0,0,1-.5,3.81c-.26,1,.33,4,1.08,4.72a1.38,1.38,0,0,0,2.08.11c.54-.47,1.36-.57,1.69-1.33.1-.21.38-.17.58-.1a.31.31,0,0,1,.16.42,3.75,3.75,0,0,1-2.1,2.3c-1.23.47-2.9.75-3.63-.36a6.14,6.14,0,0,1-1.23-3.58C36.65,138.41,36.22,136.19,37.77,134Z"/><path d="M32.39,185.35a6.22,6.22,0,0,1-2.14,5.27c-1.45,1.49-1.62,2-.94,4.3a9.45,9.45,0,0,0,1.08,3.14c.41.6.73,1.08,1.44,1.22,1.4.28,2.9,1.11,3.92-.73a.51.51,0,0,1,.68-.14c.25.2.16.54,0,.83a3.57,3.57,0,0,1-3.94,2,5.6,5.6,0,0,1-4.12-3.89,11.3,11.3,0,0,1-.61-5.37,1.17,1.17,0,0,0-.75-1.39,5.26,5.26,0,0,1-2.85-6.08c.16-.56-.11-1.71.81-1.58s.28,1.09.23,1.64c-.25,2.41,1.07,3.92,2.94,4.95.88.48,1.71-.38,2.25-1.12C31.1,187.48,31.65,186.51,32.39,185.35Z"/><path d="M329.78,192.16c1.7,2.39,3.77,3.36,6.48,2.81a2.73,2.73,0,0,1,1.13-.08c1.48.38,2.69-.53,3.82-1.07a2.37,2.37,0,0,1,2.89.19c1.09,1,2.47,1.39,3.65,2.2a6.25,6.25,0,0,1,1.9,2c.41.67.66,1.43,1.13,2.08.15.2.3.6,0,.78s-.5,0-.74-.28c-1.07-1.2-1.78-2.74-3.3-3.54-1.24-.65-2.41-1.42-3.68-2a3.24,3.24,0,0,0-2,.1c-1.38.26-2.55,1.11-3.95,1.31a8.69,8.69,0,0,1-5.84-1.05A3.2,3.2,0,0,1,329.78,192.16Z"/><path d="M169.2,237.66a7.65,7.65,0,0,1-3.68-2.5,1.1,1.1,0,0,1,.07-1.49c.56-.55.73.18,1.07.39a5.29,5.29,0,0,1,1,.57c.55.57,1.28,1.45,1.89,1a2.66,2.66,0,0,0,1.24-2.44c-.1-.59.72-1.13.25-1.44-.62-.41-.82.57-1.32.8-1,.45-3.38-.3-4.25-1.18-1.24-1.25-1.72-2.91-2.65-4.32-.19-.29-.28-.68.21-.79s.77.05.93.58a7.18,7.18,0,0,0,2.24,3.44c1.79,1.54,2.57,1.5,4-.34a6.65,6.65,0,0,0,1.25-1.72.52.52,0,0,1,.62-.32.46.46,0,0,1,.31.7c-1,1.32-.07,2.61,0,3.91a5.86,5.86,0,0,1-1.82,4.71A2,2,0,0,1,169.2,237.66Z"/><path d="M167.74,260.26a1.88,1.88,0,0,0-1.22-2c-.27-.12-.38-.41-.67-.54-.61-.26-.45-.86-.36-1.34s.61-.32.94-.32c.86,0,1.76.22,2.06-1a.88.88,0,0,0,0-.82,6.93,6.93,0,0,0-2.22-2.58c-.89-.63-.86-1.77-1.48-2.57-.22-.29.37-.47.55-.73s.35.1.49.25c1.25,1.4,2.56,2.75,3.73,4.22a3.56,3.56,0,0,1-.32,4.14,1.77,1.77,0,0,0-.34,1.76c.55,1.68-.38,3.17-.81,4.71-.08.27-.38.28-.62.37-1.4.52-3.38-1.25-3-2.7.07-.27,0-.61.42-.67s.58,0,.64.4a.5.5,0,0,0,.17.33c.51.26.48,1.27,1.36,1S167.7,261.12,167.74,260.26Z"/><path d="M339.61,276.89a8.24,8.24,0,0,1,0-1.05.69.69,0,0,1,.56-.62c.34-.06.33.27.46.47.85,1.31.45,2.84.79,4.23.22.92.13,2,1.22,2.53a3.83,3.83,0,0,0,3.83-.87c.23-.3.42-.77.85-.53s.19.66.07,1c-.24.7-.36,1.49-1.26,1.68-.39.08-.38.37-.42.67a9.49,9.49,0,0,0,1,5c.37.84,1.29.5,2,.51s1.54-.65,1.75.11-1,.58-1.47,1c-2,1.5-4-.45-4-2.35a32.28,32.28,0,0,1-.23-3.67c0-.57-.1-.76-.71-.58-1.69.5-3.51-.18-3.57-2.23A14,14,0,0,0,339.61,276.89Z"/><path d="M362.3,217.61c.36,1.54-.4,3.24-.67,5-.19,1.25.62,1.91.89,2.85.05.19.41.34.15.58s-.43,0-.67-.1c-1.37-.88-1.74-2.67-1.64-4.43.08-1.38.71-2.61.84-4a11.6,11.6,0,0,0-1.11-5.18,23.75,23.75,0,0,0-3.29-5.68,11.85,11.85,0,0,0-1.88-2c-.59-.5-.52-1.28-1.15-1.67-.25-.16-.13-.58.14-.75s.79-.27.91.07c.7,1.93,2.75,2.75,3.63,4.53,1.05,2.11,2.56,4,3.17,6.35A15.84,15.84,0,0,1,362.3,217.61Z"/><path d="M176,227.31l-1-.21c-.42-.09-.79-.07-.85.46,0,.3,0,.59-.48.53s-.46-.29-.51-.6a1.75,1.75,0,0,0-.61-1.29,1.17,1.17,0,0,1,0-1.69c.51-.53,1,0,1.35.36.62.69,3.25.85,3.94.32a2.35,2.35,0,0,0,.65-2.85c-.19-.57-.24-1.19.4-1.4s1,.37,1.09,1c.32,1.73,1.85,2.07,3.13,2a2.65,2.65,0,0,0,2.45-2.76c0-.34-.18-.86.4-.92s.45.57.5.84a3.38,3.38,0,0,1-1.11,3.3c-.87.69-2,1.56-3.32.49-.34-.27-.85-.15-1.17-.73s-.59-.06-.73.41A4,4,0,0,1,176,227.31Z"/><path d="M314.19,196.5c-.59,2.23-.76,4.77-2,7-.59,1-.46,2.33-1.3,3.27-.19.2-.2.61-.58.48s-.2-.51-.18-.77a11.36,11.36,0,0,1,.83-2.55c.61-1.93,1.16-3.88,1.8-5.78.82-2.44-.29-4.16-1.15-6-.54-1.17-1.89-1.77-2.52-3-.12-.21-.54-.2-.84-.12a12.15,12.15,0,0,0-5.38,3c-.39.39-.92.84-1.25.54-.59-.53.05-.91.49-1.24a18.72,18.72,0,0,1,6.06-3.18,3.71,3.71,0,0,1,2.91.67.61.61,0,0,1,.26.24c.74,2.08,2.24,3.82,2.75,6A11.06,11.06,0,0,1,314.19,196.5Z"/><path d="M167.75,241.05a7.38,7.38,0,0,1-2.27,5.09,4.77,4.77,0,0,1-3.54.35,5.53,5.53,0,0,1-3.43-4.22c-.11-.47-.35-.93.32-1.11s.59.32.77.71c.89,2,2.19,3.25,4.24,3a1.78,1.78,0,0,0,1-.43c.68-.58,1.22-3.56.93-4.44s-.27-2-1.28-2.58c-.2-.11-.13-.48,0-.69s.6-.23.93-.13c.93.25.87,1.24,1.32,1.84A4.88,4.88,0,0,1,167.75,241.05Z"/><path d="M361.54,253.79a35.89,35.89,0,0,1-1,8.12,12.47,12.47,0,0,0,.66,6.16,6.06,6.06,0,0,0,2.34,3.52.58.58,0,0,1,.22.69.39.39,0,0,1-.56.11c-1.54-.94-3-2.07-3.44-3.88a21.14,21.14,0,0,1-.53-4.77,16.85,16.85,0,0,1,.9-6.43,9,9,0,0,0,.29-3c0-1.09.62-2.21-.13-3.31a.65.65,0,0,1,.58-1c.69-.06.59.49.6.87C361.56,251.84,361.53,252.81,361.54,253.79Z"/><path d="M40.65,151.22a16.69,16.69,0,0,0,1.18,6.12A3.39,3.39,0,0,0,43.39,159c1.37.61,2.87-.77,2.89-2.61,0-.37-.14-.9.16-1s.42-1,1.06-.59c.48.34.3.76.07,1.21a6.37,6.37,0,0,0-.56,2.28,3.28,3.28,0,0,1-.95,1.83,3.09,3.09,0,0,1-4.27-.09,6,6,0,0,1-1.73-3.5,26.41,26.41,0,0,1-.92-6.43c0-.62-.1-1.34.74-1.32s.79.7.77,1.32C40.64,150.46,40.65,150.84,40.65,151.22Z"/><path d="M334.31,235.39a4.49,4.49,0,0,1-1.68,4.23,4,4,0,0,1-6.14-.94,6.69,6.69,0,0,0-1.66-2.18,3.62,3.62,0,0,1-1.24-2.44c-.07-.3-.18-.69.11-.82a.72.72,0,0,1,.89.45c.59,1.68,2.06,2.72,2.94,4.2s3.93,1.21,4.91-.27a5.11,5.11,0,0,0,.31-5.27,2.17,2.17,0,0,1-.21-.85c0-.47-.28-1.19.36-1.3s.42.7.66,1C334.45,232.35,334.25,233.65,334.31,235.39Z"/><path d="M41.19,194.83A3.52,3.52,0,0,0,41.7,193c0-.2.17-.28.35-.3s.35.15.38.38a17.58,17.58,0,0,1,.24,1.88,11.55,11.55,0,0,0,1.8,5.84,3.05,3.05,0,0,0,3.32,1.15,2.89,2.89,0,0,0,2.48-2.06c.19-.75.71-1.27.89-2a.43.43,0,0,1,.62-.27.31.31,0,0,1,.16.51c-.66.8-.52,1.82-.71,2.73a2.52,2.52,0,0,1-1.54,1.88c-1,.46-2,1.23-3.3.92a4.67,4.67,0,0,1-3.54-2.43,12.38,12.38,0,0,1-1.18-4.65A2.31,2.31,0,0,0,41.19,194.83Z"/><path d="M345.76,251.76a5.92,5.92,0,0,0-.26-2.25.48.48,0,0,1,.32-.71c.38-.11.56.19.64.46,1.18,4-.41,8.17-4.11,9.71-1.22.5-2.37-.38-3.34-.93a8.21,8.21,0,0,1-3.28-4.45,13.66,13.66,0,0,0-1-2.61c-.27-.4.16-.47.27-.7a.49.49,0,0,1,.63-.28c.33.1.21.42.22.65.09,1.85,1.31,3.17,2.24,4.59a4.23,4.23,0,0,0,1.68,1.8c2.11,1.07,3.63.82,4.91-1.25A6.22,6.22,0,0,0,345.76,251.76Z"/><path d="M45.21,61.76c.16,1-.29,1.29-.92,1.69-1.7,1.06-3.21,2.34-3.38,4.56,0,.68-.1,1.33-1,.72-.5-.35-.57.83-1.14.16-.21-.25-.47-.4-.43-.75a6.68,6.68,0,0,1,1.29-3.87,21.59,21.59,0,0,1,2.62-3,4.76,4.76,0,0,1,2-.83A.93.93,0,0,1,45.21,61.76Z"/><path d="M41.78,125.21c.83-2,.51-4.53,2.37-6.35.43-.42,1-.58,1.4-.94s1,.31,1.1.73.49,1.22-.41,1.13c-1.16-.11-1.48.83-1.83,1.44a7.68,7.68,0,0,0-1,4.18c0,.78.31,1,1,1.08,1.16.11,2.28.4,3-1,.11-.21.61-.56,1-.26s.18.57.08.84c-.81,2.21-4.66,2.9-6.26,1.17C41.67,126.65,42,126,41.78,125.21Z"/><path d="M30.38,143.64a.34.34,0,0,0,.09-.08c.33-.45.8-1.06,1.29-.72s.38,1.22.1,1.73a4.06,4.06,0,0,0,0,3.83c.42.95.09,2.11,1,3,1.24,1.13,2,1.07,2.93-.33.75-1.11.73-2.51,1.56-3.57.14-.17.24-.37.47-.35s.36.36.31.58c-.57,2.21-1,4.49-3.21,5.82a2.94,2.94,0,0,1-2.84-.59A11.09,11.09,0,0,1,30.39,145a8.05,8.05,0,0,0,0-1.39Z"/><path d="M48.4,172.76c.14.65.29,1.25.41,1.85A10.37,10.37,0,0,0,52,180.48a2.17,2.17,0,0,0,3.66-.83A3.34,3.34,0,0,1,57,177.6c.47,1.42-.24,2.49-.89,3.49-1.46,2.29-4.15,2-5.89,0a12,12,0,0,1-2.55-5.76C47.42,173.77,47.28,173.73,48.4,172.76Z"/><path d="M341.94,243.46c0-.28,0-.49,0-.7s-.13-.64.33-.69.53.16.67.54c1.11,3-1.08,4.73-3.61,4.8-3.27.09-4.94-2-6.46-4.37a2.19,2.19,0,0,1,.05-2c.15-.33.41-.78,1-.65s.39.57.38.92a3.21,3.21,0,0,0,1.59,3.22c1.57.9,3.2,1.55,5,.91A1.6,1.6,0,0,0,341.94,243.46Z"/><path d="M54.9,165.68c.4,1-.39,2-.88,2.95a1.41,1.41,0,0,1-1.71.72,8.27,8.27,0,0,1-3.5-2.66,15.14,15.14,0,0,1-1.93-4.83,1.58,1.58,0,0,1-.06-1c.1-.34.12-.8.67-.78s.42.49.55.82c.71,1.75.63,3.84,2.27,5.18.62.51,1.23,1,1.83,1.55s.94.38,1.22-.32a7.47,7.47,0,0,0,.72-2.38c0-.34-.11-1,.53-.93.47.06.24.62.29,1C54.92,165.15,54.9,165.32,54.9,165.68Z"/><path d="M42.71,219.36c.38,1.66.08,2.31-1.05,2.38s-2.62.91-3.69-.48c0,0-.18-.06-.23,0-.3.24-.59.83-1,.3-.6-.83-1.62-1.34-1.88-2.43a11.34,11.34,0,0,1-.09-5.15,1.14,1.14,0,0,1,.71-.81.81.81,0,0,1,.85,0c.32.25.06.61-.06.8-1.19,1.89-.47,3.76.57,5.19a4,4,0,0,0,4,1.2C41.45,220.22,42.32,220.66,42.71,219.36Z"/><path d="M33,182.89a8,8,0,0,1,.75-4.18c.18-.37.37-.55.75-.49s.32.44.29.7a9.62,9.62,0,0,1-.38,2.36c-.62,1.57.11,3,.17,4.54a.72.72,0,0,0,.7.63,5.55,5.55,0,0,0,3.44-.22c.35-.19.76-.38,1-.06s-.34.38-.43.71c-.42,1.44-1.86,1.55-2.94,1.73-2,.34-3.18-1-3.37-3.63C33,184.31,33,183.63,33,182.89Z"/><path d="M44.36,138.42c.39-1.73.75-3.47,1.17-5.19a1.47,1.47,0,0,1,.62-.92c.42-.19.7-.93,1.21-.61s0,.79-.15,1.14c-.7,2.28-1.54,4.51-1.23,7a3.9,3.9,0,0,0,2.05,3.1c.57.2,1-.12,1.46-.19.33-.06.71-.19.81.29.07.29,0,.48-.33.71-2,1.51-4.15.33-4.89-1.93A8.08,8.08,0,0,1,44.36,138.42Z"/><path d="M165.53,159.34c.29.69.34,1.4.59,2.1.56,1.61-1.05,3.61-2.34,4.05-2.52.87-4.39-.07-6.37-1.51-1.06-.78-1.85-2-3.3-2.25a1.28,1.28,0,0,1-1-.95.48.48,0,0,1,.21-.4,1.86,1.86,0,0,1,1.6.07,39.57,39.57,0,0,1,3.28,2.65,5.83,5.83,0,0,0,5.09,1.19,2.49,2.49,0,0,0,1.9-2.18C165.19,161.18,165.56,160.3,165.53,159.34Z"/><path d="M35.72,203.81c.25,1.66.09,3.15.8,4.59s2,1.95,3.29.93c.95-.74,1.62-1.74,2.5-2.55.31-.28.54-.8,1-.43s-.33.53-.37.82c-.18,1.41-1.17,2.3-2,3.28-1.47,1.68-3.55,1.92-5.12-.33-1.16-1.67-.92-3.49-.93-5.3C34.83,204.35,35.26,204.15,35.72,203.81Z"/><path d="M41,178.58c-3.56-.27-5.39-2.26-5.39-5.71,0-1.8-.28-3.68,1.18-5.17.18-.19.18-.63.59-.44s.36.5.25.85a6.17,6.17,0,0,1-.3.95c-1.42,2.73-.19,5.07,1.07,7.42.17.32.56.15.78.3.58.39,1.41-.14,1.91.59.13.17.49-.05.67-.37a.7.7,0,0,1,1.08-.26c.33.29,0,.69-.2,1C42.19,178.48,41.45,178.47,41,178.58Z"/><path d="M53.18,249.3a4.11,4.11,0,0,1,.21,3.82,3,3,0,0,1-1.64,1.72,4.31,4.31,0,0,1-4.43-1.08c-1.41-1.4-2.52-2.89-2.35-5a2.06,2.06,0,0,1,.22-1c.13-.2.24-.33.49-.31s.29.25.31.45a13.32,13.32,0,0,0,1,3.39,3.73,3.73,0,0,0,4.34,2c1.12-.39,1.05-1.56,1.47-2.39A6,6,0,0,0,53.18,249.3Z"/><path d="M45.81,230.64c-1.86,0-2.93-1.17-3.88-2.62a4.89,4.89,0,0,1-.23-5.55.45.45,0,0,1,.51-.27c.39.07.4.4.36.69a10.07,10.07,0,0,0,0,2.63,4.11,4.11,0,0,0,1.18,2.4,3.44,3.44,0,0,0,2.74,1.2A3.68,3.68,0,0,0,49,227.54c.16-.23.1-.64.53-.45s.19.47.17.77C49.61,229.27,47.49,230.69,45.81,230.64Z"/><path d="M72.22,131.63c-.49,1.71.22,3.68.23,5.69a3.18,3.18,0,0,0,2.75,2.8c.25,0,.52,0,.57.34a.7.7,0,0,1-.35.74c-.88.63-2.63.08-3.24-.87-1.87-2.89-1.57-6.09-1.48-9.28,0-.58.55-.78.82-1.17s.73-.2.7.42C72.21,130.64,72.22,131,72.22,131.63Z"/><path d="M49,147A11.59,11.59,0,0,0,51.4,153c.55.61,1.59.22,2.41.18a1.5,1.5,0,0,0,.71-.24c.48-.32.93-.31,1.12.24s-.14.85-.71.92c-.77.1-1.33.71-2.2.7a3.62,3.62,0,0,1-3.63-2.08,11.71,11.71,0,0,1-1.25-6.53c.06-.49.26-1,.75-1s.42.58.41,1S49,146.73,49,147Z"/><path d="M57.2,235.78a2.33,2.33,0,0,0-.52,1.62c-.11,1.69-2.51,3.94-4.08,3.56a6.78,6.78,0,0,1-3.29-2.15,5.81,5.81,0,0,1-1.5-5c.06-.4,0-1.08.63-1.05s.43.68.38,1c-.35,2.54,1.23,3.91,3.07,5.08a2.5,2.5,0,0,0,3.77-1.51C55.88,236.63,55.8,235.65,57.2,235.78Z"/><path d="M57.46,141.65a3.58,3.58,0,0,1-3.2-2.5A12.26,12.26,0,0,1,53.12,135a5.34,5.34,0,0,1,.13-1.38.59.59,0,0,1,.74-.49c.38,0,.6.17.63.61.07.88.27,1.76.27,2.64a4.41,4.41,0,0,0,1.5,3c1,1,2.09.82,2.85-.46.21-.36.38-.9.9-.61s.35.67.15,1.11A3.44,3.44,0,0,1,57.46,141.65Z"/><path d="M53.12,243.48a4.5,4.5,0,0,1,.11-.84c.08-.3,0-.74.51-.76s.39.46.42.73a12.51,12.51,0,0,0,1.74,4.16c.34.64,1.07,1.38,1.9,1.16a2.23,2.23,0,0,0,1.65-1.76c0-.25,0-.51,0-.76s-.18-.75.38-.76.74.32.82.79A7.25,7.25,0,0,1,59,249.13c-1.69,1-2.07.81-3.6-.76C53.08,246,53.38,245.48,53.12,243.48Z"/><path d="M138.79,272.66c-1.71,0-2.59-1.33-3.63-2.39-.39-.4-.56-1-1-1.36a1,1,0,0,1,.05-1.57c.54-.46.85-.08,1.19.37a18.82,18.82,0,0,0,2.44,2.61,2.06,2.06,0,0,0,2.33.32c1-.31.46-1,.59-1.58.07-.32,0-.67.11-1s.28-.77.76-.69.35.53.34.9c-.05,1.06.11,2.08-.64,3.07S140,272.85,138.79,272.66Z"/><path d="M63.61,228.34c-.11.95.06,1.93-.61,2.78a3.83,3.83,0,0,1-6.31-.81,4.66,4.66,0,0,1-.76-3.09c.07-.32-.21-.87.39-.88a.83.83,0,0,1,.87.87,4.44,4.44,0,0,0,1.33,3c.78.82,2,.27,2.72,1,.59-.76,1.4-1.4,1.33-2.52-.06-.8.27-1.66-.45-2.38-.18-.18-.28-.71.2-.82s.81-.12,1,.47A8.78,8.78,0,0,1,63.61,228.34Z"/><path d="M27.16,170.83a3.25,3.25,0,0,1,1.37-3.37c.15-.13.18-.39.46-.21s.09.31.08.51c-.09,1.58-1,3.07-.45,4.72.43,1.4.64,2.79,1.78,4,.75.77,1.41.19,2.06.41.25.08.62-.27.76.16s-.24.44-.46.63a2.47,2.47,0,0,1-4.17-1c-.46-1.23-1-2.43-1.4-3.69A8,8,0,0,1,27.16,170.83Z"/><path d="M50.36,186.6A4.61,4.61,0,0,1,48,190.24c-.94.53-2.57-.22-3.73-1.14a7,7,0,0,1-2.51-4.42,3.38,3.38,0,0,1-.07-.63c0-.43.08-1,.51-1s.43.51.5.86c.41,2.13,2.73,4.73,4.24,4.91A1.86,1.86,0,0,0,49,187.34c.06-.35-.12-.8.35-1s-.05-.93.62-.71C50.5,185.8,50.17,186.31,50.36,186.6Z"/><path d="M383.75,254.86c-.74,2.56-1.6,5-4.08,6.52-1.09.68-2.4,1.09-3.27,2.12-1.21,1.43-2.27,2.89-1.95,5a12.75,12.75,0,0,1-.26,2.19c-.2-.93-.39-1.84-.59-2.74a5.32,5.32,0,0,1,1.34-4.47c1.16-1.49,2.86-2.1,4.23-3.23a13.23,13.23,0,0,0,3.78-4.81c.17-.39.35-.67.84-.53Z"/><path d="M55.86,115.62c.16.13.41-.06.23.54-.4,1.37-1.57,2.33-1.69,3.86,0,.75-.43,1.64-.16,2.29.68,1.63.13,3.57,1.38,5,.16.19.26.77-.17.86a1.1,1.1,0,0,1-1.33-.59c-1.62-3.11-1.45-6.35-.73-9.63A4.2,4.2,0,0,1,55.86,115.62Z"/><path d="M29,213.18c-.07-1-.95-1.47-1.4-2.23a8.69,8.69,0,0,1-.74-7.62c.09-.27.22-.45.51-.45a.46.46,0,0,1,.48.49,9.92,9.92,0,0,1,0,1.89A6.31,6.31,0,0,0,30.67,212a2.26,2.26,0,0,0,1.81.07c.42-.15.74-.29,1.12-.07a.57.57,0,0,1,.06.43c-.42.15-.53.71-1.12.69-1.17,0-2.35.05-3.52.08Z"/><path d="M57.7,192.53c.29-.47-.59-1.6.6-1.61s.58,1.18.65,1.79c.28,2.43-1.2,4.08-3,4.25-2.36.23-4-.68-4.7-2.78a1.44,1.44,0,0,1,0-1.2c.12-.27.11-.6.51-.61s.33.31.48.49c.72.88.89,2.15,2.37,2.47,1.85.4,3-.31,3.06-2.21Z"/><path d="M44,247.12a5.92,5.92,0,0,1-2.66-1.56c-1.27-1-2.46-3.33-1.41-4.89.17-.26.18-.72.66-.61s.32.48.29.73c-.29,2.27,1.16,3.45,2.81,4.49,1.13.7,2.66-.1,3.25-1.63.13-.35,0-1.06.66-.79.4.17.17.76,0,1.15-.07.23-.26.43-.33.66C46.67,246.79,46.3,247.09,44,247.12Z"/><path d="M326.15,214.16c.09-.47-.32-1,.41-1.1s.55.43.6.83c.27,2,2.75,4.5,4.71,4.7a2.43,2.43,0,0,0,2.23-.6,3.32,3.32,0,0,1,1-.52c.32-.16.72-.24.92.08a.84.84,0,0,1-.23,1,4.87,4.87,0,0,1-5.47,1A6.91,6.91,0,0,1,326.15,214.16Z"/><path d="M61.8,204.38a6.4,6.4,0,0,0,.82,2.93c.53,1,1.19,1.9,2.57,1.69,1.16-.18,2.67.49,3.09-1.41,0-.24.66-.38,1-.23s.13.59.07.88a2.93,2.93,0,0,1-2.07,2.18,5,5,0,0,1-5-.64c-.79-.66-1.7-4.13-1.21-5C61.19,204.62,61.49,204.55,61.8,204.38Z"/><path d="M51.93,224a5.28,5.28,0,0,1-4.77-6.68c.08-.24,0-.68.44-.64s.44.43.43.78c-.08,2.62,1.48,4.22,3.56,5.38,1.08.6,2.84-.46,3-1.87.06-.5-.22-1.35.47-1.34s.43.89.45,1.36C55.62,223,54.54,224.19,51.93,224Z"/><path d="M44.7,171.72c-2.84.39-5-.51-5.9-2.9a9.9,9.9,0,0,1-.49-4.49c.09-1-.28-2,.37-2.83.13-.19.26-.34.5-.29s.19.28.17.41c-.22,1.57.42,3,.49,4.58a4.31,4.31,0,0,0,3.84,4.53A1,1,0,0,1,44.7,171.72Z"/><path d="M44.43,209.07c.74.38.7,1.14.78,1.74A4.83,4.83,0,0,0,47.53,214c1.18.87,2.65-.32,2.78-2.14,0-.64,0-1.27,0-1.91a.47.47,0,0,1,.49-.47.44.44,0,0,1,.43.39c0,1.51.45,3.09-.6,4.46-1.32,1.74-2.7,2-4.36.73C45,214.09,44,210.83,44.43,209.07Z"/><path d="M30.3,155.26a1.88,1.88,0,0,1,.16,1.43c-.36,1.81.86,3.25,1.15,4.92.13.74,2.46,1,3.15.51.4-.28.93-.14,1.34-.51.2-.19.52,0,.36.48A3.86,3.86,0,0,1,33.59,164a2.62,2.62,0,0,1-3-1.51A15.18,15.18,0,0,0,29,159C28.45,158.27,29.29,156.11,30.3,155.26Z"/><path d="M164.68,264.82a2.43,2.43,0,0,1-1.35,2.51,4.15,4.15,0,0,1-4-.54A14.16,14.16,0,0,1,156.9,264a1.92,1.92,0,0,1-.42-1.3.63.63,0,0,1,.44-.68c.28-.09.44.11.6.34.63.86,1.26,1.72,1.91,2.56s3,1.15,3.69.54c.39-.37.21-.79.36-1.16s.2-1.08.75-1,.47.72.45,1.19Z"/><path d="M51.1,204.33a6.59,6.59,0,0,1,0-.89.83.83,0,0,1,.84-.79c.57,0,.4.54.38.89a5,5,0,0,0,1.93,4.26c.74.63,2.36-.12,3-1.33a3.43,3.43,0,0,0,.48-1.56c0-.2,0-.46.28-.48s.44.2.47.48a4.29,4.29,0,0,1-.23,1.74c-.64,2.2-2.41,3.51-4,2.79A5.23,5.23,0,0,1,51.09,205c0-.21,0-.42,0-.63Z"/><path d="M346.63,268.87c.27,1.31-.76,1.75-1.36,2.45,0,.05-.18,0-.25,0-2,1-2.48.86-3-1.3a31.32,31.32,0,0,1-.86-6,4.91,4.91,0,0,0-.41-2.47c-.2-.33-.34-.88.12-1.12s.43.42.67.62c.72.59.53,1.43.63,2.2.26,1.93.5,3.87.75,5.81a1.49,1.49,0,0,0,.43,1c.34.27.66.79,1.21.1S346.2,269.8,346.63,268.87Z"/><path d="M62,183.56c.09-1-.18-2.13.74-2.95a1,1,0,0,1,.88-.35c.36.11.21.52.18.77a14.52,14.52,0,0,0-.2,3c.14,2.49.94,3.27,3.41,3.13.21,0,.45-.12.57.1s0,.42-.12.67c-.65,1.05-1.67.85-2.65.89-1.28.06-1.57-1-2-1.78A5.08,5.08,0,0,1,62,183.56Z"/><path d="M198.36,155.71c1.28.83.62,2,.4,2.85a2.37,2.37,0,0,1-2,1.65,14.17,14.17,0,0,1-9.13-1.61,2.33,2.33,0,0,1-1-1.11c.45-.38.85-.05,1.09.1,1.79,1.09,3.84,1.23,5.8,1.63a4,4,0,0,0,3.71-.82C198,157.67,198,156.69,198.36,155.71Z"/><path d="M74.26,268.31c-1.82.28-2.42-1.46-3.55-2.35s-.86-2-.79-3.13c0-.24-.06-.54.29-.61s.38.18.52.41c.6.94.72,2.08,1.5,3a3.67,3.67,0,0,0,3,1.27c1-.06,1.52-1.19,1.59-2.26,0-.39.11-.71.55-.65s.23.46.24.7C77.71,267,76.53,268.52,74.26,268.31Z"/><path d="M352.53,281.86a3.91,3.91,0,0,1-3.79-3.29,14.37,14.37,0,0,0-1.09-4.26c-.17-.32-.24-.73,0-.94s.51.16.76.35a1.78,1.78,0,0,1,.62,1.32c.34,1.64.43,3.37,1.83,4.61a2.28,2.28,0,0,0,3.55-.14c.11-.12.35-.17.39-.3.2-.5.6-.69,1-.38s-.26.47-.33.76C355.1,281.29,353.85,281.75,352.53,281.86Z"/><path d="M72,271c0-.68-.13-1.22.42-1.33s.75.52.75.92a11.77,11.77,0,0,0,.71,2.65A2.61,2.61,0,0,0,76,275a2.16,2.16,0,0,0,2.4-.91c.24-.3.33-1,.81-.65s.25,1,0,1.41c-.36.75-2.78,2-3.46,1.81-1.51-.47-3-1-3.4-2.84C72.19,272.8,72.08,271.74,72,271Z"/><path d="M71.7,284.88a3.89,3.89,0,0,1-3.78-3.09,15.51,15.51,0,0,1-.26-2.25c0-.35,0-.82.5-.87s.43.46.51.79a5.59,5.59,0,0,0,2.62,3.77c.75.45,1.12,0,1.53-.16a4,4,0,0,0,1.4-1.27c.21-.31.37-.63.7-.47s.15.53.07.81C74.4,284.16,73.48,284.92,71.7,284.88Z"/><path d="M93.68,268.33c-1.1.26-1.31-1-2-1.6-1.45-1.15-1.73-2.8-2.07-4.43a1,1,0,0,1,.58-1.13c.46-.24.72,0,1,.08s.33.31.28.61a4.64,4.64,0,0,0,2.23,4.77c.55.34.82.46,1-.3.11-.42.08-1.24.84-1s.22.89.1,1.32C95.41,267.56,95.1,268.44,93.68,268.33Z"/><path d="M67,276.26a3.38,3.38,0,0,1-3.58-2.81c-.19-1.06-.66-2.16.09-3.26a.9.9,0,0,1,1.3-.32c.57.33.09.6-.18.93-.64.8-.31,2,.77,3.09,1.59,1.6,3.1,1.31,4.22-.84.15-.28.22-.59.59-.5s.24.47.22.74A3.17,3.17,0,0,1,67,276.26Z"/><path d="M155.82,279.43a5.39,5.39,0,0,1-3.17,4.13c-1.13.34-3.58-1.05-3.78-1.88s-1.2-1.35-1-2.37c.07-.34,0-.73.43-.82s.71.26.75.65a4.13,4.13,0,0,0,1.14,2c1,1.36,2.51,1.14,4-.36a3.5,3.5,0,0,0,.88-2.12c0-.32-.24-.89.4-.86s.31.6.39.92A2.58,2.58,0,0,1,155.82,279.43Z"/><path d="M66.11,267.57c-1.79.23-2.59-1.35-3.52-2.69C62,264,61.52,263,62.43,262c.12-.14.06-.47.36-.43a.58.58,0,0,1,.49.52c.11.62.15,1.26.32,1.86.4,1.45,1.71,1.8,2.9,2.16.75.23,1.32-.33,1.69-1,.16-.28.52-.39.53-.81s.33-.32.58-.25.24.3.23.51A3.17,3.17,0,0,1,66.11,267.57Z"/><path d="M61.85,216.82c.19,1.32.39,2.55-.76,3.53a3.91,3.91,0,0,1-3.6.58c-1.61-.73-2.09-2.31-2.87-3.67a1.2,1.2,0,0,1,0-.63c0-.42,0-.89.63-.91s.56.42.66.78a3.94,3.94,0,0,0,3.55,3c.81,0,1.55-.25,1.57-1.22C61,217.59,61.79,217.47,61.85,216.82Z"/><path d="M144.15,263.47c.24,0,.28.48.37.86a2.73,2.73,0,0,0,2.44,1.91,9.69,9.69,0,0,0,3.33-.81c.36-.11.83-.34,1,.06s-.07.72-.44,1.05a4.92,4.92,0,0,1-2.31.84,5.77,5.77,0,0,1-3.16.26,3.48,3.48,0,0,1-2.69-2.58C142.45,264.18,142.91,263.55,144.15,263.47Z"/><path d="M81,104.13c.23,1.65-1,2.84-.89,4.43a8.21,8.21,0,0,0,1.33,4.55.64.64,0,0,1,0,.89.57.57,0,0,1-.89-.07,6.55,6.55,0,0,1-2-3.48c-.19-1.79.49-3.4.82-5.07A1.64,1.64,0,0,1,81,104.13Z"/><path d="M82,282.94c-2-.05-4.11-2.78-3.72-4.74a.8.8,0,0,1,.63-.71c.58-.09.33.43.47.66.64,1,.95,2.25,2.14,2.88.84.45,1.48.45,2-.45.18-.35.45-.58.8-.45s.29.56.24.88A2.45,2.45,0,0,1,82,282.94Z"/><path d="M68.54,118.54c-1.57-.07-2.35-1-2.74-2.63a8.07,8.07,0,0,1,.1-3.29,2,2,0,0,1,.27-.83c.39-.52.91-1.29,1.5-1s.09,1.15-.12,1.53c-.92,1.65-.29,3.08.36,4.56.2.45.56.47.89.6s.7.11.61.61S69.12,118.57,68.54,118.54Z"/><path d="M68.06,234.27a10.22,10.22,0,0,0,.53,2.42c1,1.75,1.73,2.22,3.69,1.67.31-.08.79-.47,1,0a.91.91,0,0,1-.51,1.14,3.76,3.76,0,0,1-3.68.22,3.21,3.21,0,0,1-1.89-3.31C67.23,235.68,66.51,234.49,68.06,234.27Z"/><path d="M177.4,155.06c.32,1.22-.26,2.43-.78,3.65a3,3,0,0,1-4.33,1c-.39-.33-.94-.21-1.3-.65a1,1,0,0,1-.17-1.13c.4-.52.44.19.66.32,1,.54,2,1.12,3.11.69a2.66,2.66,0,0,0,1.55-2.49c.09-.81.52-1.55.56-2.4a4.37,4.37,0,0,0-.1-1c0-.21-.59-.22-.23-.54a.6.6,0,0,1,.68-.14.47.47,0,0,1,.35.56Z"/><path d="M162.47,257.84a5.32,5.32,0,0,1-3.6-1.73c-.32-.29-.43-.55-.26-.84s.55-.35,1-.21c.71.24,1.22.78,1.92,1.06,1,.4,1.94.15,2.16-.91.1-.49.16-1,.26-1.48a.75.75,0,0,1,1-.63c.66.32-.25.4-.2.67.21,1.12-.37,2.14-.46,3.24C164.18,257.94,163.21,258,162.47,257.84Z"/><path d="M84.06,269.62a2.31,2.31,0,0,1-2.46-1.72c-.28-.68-1.25-1.37-.29-1.93.64-.37.87.83,1.37,1.19a3.21,3.21,0,0,0,3.45.1c.22-.11.41-.35.66-.2s.18.54.13.81C86.74,268.81,85.38,269.64,84.06,269.62Z"/><path d="M317.26,208.24c-.3-.25-.34-.49-.26-.66,1.44-3,1.11-6.08.47-9.16a8,8,0,0,0-1.06-2c-.19-.35-.42-.77-.08-1.05s.54.22.79.44a5.42,5.42,0,0,1,1.57,3.64,16.91,16.91,0,0,1-.23,6.3A6.49,6.49,0,0,1,317.26,208.24Z"/><path d="M62.46,149.33a13.35,13.35,0,0,1,.32-2.65.71.71,0,0,1,.76-.5c.43,0,.29.46.26.7a10.56,10.56,0,0,0,0,3.32,1.9,1.9,0,0,0,1,1.48,1,1,0,0,1,.45,1.39c-.2.51-.7.07-1,0a2.41,2.41,0,0,1-1.77-2.46C62.48,150.1,62.46,149.64,62.46,149.33Z"/><path d="M85.89,288.43a4.55,4.55,0,0,1-3.16-2.26,1,1,0,0,1,.34-1.25c.44-.29.62.23.89.44.47.36.56,1,1.26,1.29,1.41.59,1.79.64,2.71-.62.2-.27.35-.5.66-.38s.26.55.16.86A3,3,0,0,1,85.89,288.43Z"/><path d="M219.42,417.87c.17-1.11-.35-2.18-.23-3.28,0-.42-.14-1.06.57-1.06s.44.62.49,1a8.6,8.6,0,0,1,.11,2c-.13,1.71.57,3.3.65,5,0,.45.23,1.11-.31,1.2s-.53-.66-.58-1.06C220,420.38,219.16,419.22,219.42,417.87Z"/><path d="M328.55,205.79c2.24.12,5.16,2.45,5.89,4.76a1.67,1.67,0,0,0,.52,1,.53.53,0,0,1-.06.79c-.33.18-.49-.14-.61-.44a8.45,8.45,0,0,0-3.73-4.14,5.24,5.24,0,0,0-1.79-.59c-.52-.1-.69-.54-.73-1C328,206,328.2,205.74,328.55,205.79Z"/><path d="M156.78,260.05a2.93,2.93,0,0,1-1.31,2.52,2.1,2.1,0,0,1-2.77-.25,1.25,1.25,0,0,0-.68-.3c-.66-.14-.66-.6-.5-1.06s.43-.4.92-.14c1.54.79,2.61.36,3.37-1.16.12-.24.25-.45.56-.42S156.77,259.51,156.78,260.05Z"/><path d="M219.11,424.68c-.16.55-.55.3-.87.16a6.09,6.09,0,0,1-3.24-3c-.16-.34-.42-.63-.55-1a.85.85,0,0,1,.5-1.22c.65-.27,1,0,1.11.6.33,1.23,1.57,2,1.63,3.4,0,.37.48.25.73.37S219.09,424.18,219.11,424.68Z"/><path d="M93.26,279.57c0,.23,0,.49.13.6.46.44.33,1.45.91,1.51s.54-.9.85-1.36c0,0,0-.11,0-.11.57-.16.7-1.28,1.27-.92s0,1.06-.3,1.54-.69,1.05-.91,1.54c-.47,1-1,.68-1.58.36A1.82,1.82,0,0,1,93.26,279.57Z"/><path d="M318,179.52c-.09,1.67-.24,3.33-.27,5s-.81,3.11-.84,4.72c0,.27.09.69-.37.64s-.27-.47-.27-.73a18.15,18.15,0,0,1,.43-3.94C317,183.31,317.47,181.42,318,179.52Z"/><path d="M165.31,518.65c-.25.09-2.2,1.07-2.31,1.13-1.49.8-2.39.8-3.49-.33a12.68,12.68,0,0,1-1.31-1.33c-.23-.32-2.06-2.1-1.59-2.56s2.24,1.5,2.47,1.83a9.48,9.48,0,0,0,1.83,1.7c.21.18.51.37.66.22A4.31,4.31,0,0,1,165.31,518.65Z"/><path d="M210.76,418.42a10.73,10.73,0,0,1,1.08-3.52c.22-.41.65-.83,1.08-.55s-.12.6-.24.93a8.68,8.68,0,0,0-.4,3.25c0,.62,0,1.31-.79,1.27S210.63,419.11,210.76,418.42Z"/><path d="M344.73,301.92a1.88,1.88,0,0,1-2.06-1.95,11,11,0,0,1,.13-2c0-.24.16-.64.53-.62s.37.38.37.68a6.44,6.44,0,0,1,0,.76,1.88,1.88,0,0,0,1.28,2.13c.37.15.6.25.5.68S345,301.84,344.73,301.92Z"/><path d="M225.29,406.72a4.86,4.86,0,0,1,.81.62c.54.67,1,1.37,1.53,2.08.27.39.45.92.05,1.25s-.85-.34-.91-.51c-.34-.91-1.22-1.26-1.77-1.93C224.58,407.74,224.73,406.79,225.29,406.72Z"/><path d="M216.77,406a4.52,4.52,0,0,1-.25,2.82,4.91,4.91,0,0,0-.15,3,.39.39,0,0,1-.2.53c-.26.12-.42,0-.45-.26-.25-2-.52-4,.65-5.87C216.43,406.15,216.57,406.1,216.77,406Z"/><path d="M158.52,421.56c-1.12,1.79-.89,3.9-1.55,5.8-.39,1.14-.49,2.36-1,3.48a13.27,13.27,0,0,1-3.84,5.62,32.7,32.7,0,0,0-5.08,4.32,9.63,9.63,0,0,1-3.21,2.13c-1.39.72-2.46,1.86-3.87,2.55a7.91,7.91,0,0,0-2.21,1.16c-.67.74-1.47,1.25-2.18,1.91a1.71,1.71,0,0,1-.76.43.6.6,0,0,1-.69-.18c-.16-.26,0-.43.22-.63a15.6,15.6,0,0,1,3.39-2.36,10.51,10.51,0,0,0,2.76-1.94c1-1.14,2.37-1.53,3.46-2.4a62.59,62.59,0,0,0,5.89-4.89c.7-.7,1.71-1.07,2.36-1.92a13.9,13.9,0,0,0,2.7-5.67,39.76,39.76,0,0,0,1.15-6.06c0-1,1.06-1.69,1.75-2.26S158.16,421.21,158.52,421.56Z"/><path d="M154.13,405.34c0-1.48.23-3-.64-4.38a.74.74,0,0,1,.38-1.07c.48-.15.78.27.9.67a9.76,9.76,0,0,1,.44,3c0,1.26-.13,2.52-.22,3.78,0,.27,0,.67-.39.68s-.43-.39-.45-.65C154.1,406.69,154.13,406,154.13,405.34Z"/><path d="M158.67,407.17c-.21.57.42,1.78-.52,1.82s-.5-1.17-.6-1.83a9.41,9.41,0,0,1,0-1.76c0-.37.27-.49.6-.48s.39.26.41.52C158.6,406,158.63,406.53,158.67,407.17Z"/><path d="M89.1,46a2.45,2.45,0,0,1-1.18,2.59,2.89,2.89,0,0,1-2.9-.07,4.49,4.49,0,0,1-1.53-2.11A2.81,2.81,0,0,1,84.1,44c.78-1.27,1.93-1.15,3-1.23,1.32-.1,1.56,1.13,1.92,2.07A4.21,4.21,0,0,1,89.1,46Zm-1.93.31c.11,0,.55.16.6-.46s-.37-.74-.84-.82-.67.09-.7.59S86.44,46.32,87.17,46.26Z"/></g></g></svg>