<svg xmlns="http://www.w3.org/2000/svg" viewBox="0 0 582.39 573.82"><defs><style>.cls-1{fill:#343131;}</style></defs><title>hand</title><g id="Lager_2" data-name="Lager 2"><g id="Lager_2-2" data-name="Lager 2"><path class="cls-1" d="M517.75,95.15C516,90.46,513.41,86,512.5,80.86S509.33,70.63,508,65.44a126.52,126.52,0,0,1-3-21.16c-.34-4.28-1.09-8.82.6-12.77,1.59-3.71,2.15-7.8,4.12-11.22,1.71-3,2.35-6.33,5-9.11,2-2.11,4.46-3.65,6.25-5.83a12.71,12.71,0,0,1,6.7-4c4.29-1.1,8.87-1.83,13.4-1,1.69.31,3.29,1.27,5,1.38,2.56.16,3.59,1.72,4.47,3.71,2,4.38,3.62,8.93,6,13.05,2.17,3.72,3.13,7.75,4.14,11.75a23.33,23.33,0,0,0,3,7.46c.44.68,1.2,1,1.44,2,2.28,8.94,6.17,17.28,9.71,25.75,2.73,6.55,5.33,13,5,20.47-.28,5.94.88,11.94,1.21,17.92.29,5.41.15,10.86.56,16.26.29,3.8.4,7.57.36,11.38,0,4.67-1.06,9.29-.54,14a26.71,26.71,0,0,1-.15,6.8,42.62,42.62,0,0,0-.18,10.83c.26,2.29.63,4.7,1,6.92.35,2.51-.75,4.62-.42,7,1.6,11.39.32,22.7-1.21,34-.87,6.4-4.7,11.28-8.35,16.32-2.27,3.14-4.24,6.85-6.68,9.53-2.69,2.95-5.32,6.28-8.73,8.89-3.7,2.82-6,7.49-9.47,10.89-3,2.9-4.39,7.1-7.58,9.93-1.29,1.15-3.09,2.29-3.69,3.55-3.49,7.36-9.06,13.35-13,20.49-3.72,6.81-8.4,13.17-12.16,20-1.67,3.05-4.11,5.51-5.64,8.76a43.2,43.2,0,0,1-7.63,10.82c-3.29,3.52-5.41,7.73-8.17,11.55-.63.87-.62,1.63.71,2.4a3.75,3.75,0,0,1,.41,5.95c-2.29,2.08-4.51,4.2-6.62,6.47-3.69,4-7.86,7.49-11.35,11.6A61.73,61.73,0,0,1,460.6,379c-6.84,4.72-14,9.06-20.86,13.69-10.05,6.74-19.93,13.74-30.06,20.35-8,5.23-15.48,11.21-23.34,16.64a56.53,56.53,0,0,0-8.17,7.51c-3.19,3.27-6.95,6-10.34,9.07s-6.51,7.17-11.44,8.55c-.4.11-1.58.05-1.07,1.37,1.07,2.74-1,4.14-2.95,4.48-6.49,1.14-11.82,4.61-17.1,8.07a121.41,121.41,0,0,1-17.47,9.4,67,67,0,0,0-10.74,5.47,75.72,75.72,0,0,1-13.94,7.4c-6.76,2.77-13.83,4.78-20.71,7.24a26.93,26.93,0,0,1-9.89,2,41.7,41.7,0,0,0-7.64.31c-4.27.72-8.63.94-12.87,2-6.14,1.54-12.64,2.18-18.22,5.18-9.41,5.06-19.54,8.11-29.47,11.73-4.3,1.57-9,2.05-11.83,6.34a11.82,11.82,0,0,1-4.58,3.72c-5.76,3.08-10.36,7.62-15.43,11.59-5.48,4.29-10.51,9.11-17.07,12.07-6.2,2.8-12.59,5.13-18.76,8-7.83,3.63-14.11,10-22.67,12.42-3.38,1-7.46-.82-7.56-4.47-.09-3.11,1-6.26,1.94-9,1.85-5.28,3.92-10.26,2.37-16a10.5,10.5,0,0,1-.32-4.87c.34-1.84-.28-3.15-2.8-2.76-3,.46-7.13-2.63-7.51-5.58-.63-4.84-2.49-9.69.42-14.55,1.36-2.28,0-3.15-2.35-2.74a9.65,9.65,0,0,0-2.92.75c-3.22,1.76-6.77,1-9.72.24-3.26-.88-6.89-2.35-7.94-6.73-.41-1.75-2.23-3.2-4.65-1.55-3.26,2.23-7.36,2.33-10.9,4.27-3,1.65-6.67,2.55-10,3.75-3.62,1.3-7.27,1.22-8.19-2.71-.62-2.65-1.8-5.21-.52-8.2a6.88,6.88,0,0,0-.22-4.86c-1.23-3.05-.69-6.53-.59-9.61.1-2.85-1.06-5.86.19-8.71.23-.53-.49-.75-.88-1.09-3.7-3.15-7.7-6-10.3-10.27-.77-1.26-2-2.58-4.16-1.14-1.72,1.15-8-1.71-8.81-3.73a4.63,4.63,0,0,0-3.95-3.23c-3.87-.64-6.06-6.65-3.37-9.46,1.57-1.66,3-3.49,4.59-5,3.19-3,6.83-5.53,10.29-8.24.39-.31.83-.43.72-1.16-.35-2.47,1.47-3.58,3.17-4.75,2.2-1.51,4.88-2.07,7.13-3.37a96.59,96.59,0,0,0,14.73-10.57c3.42-2.95,7.85-4.24,11.8-6.31s6.67-5,10-7.52a86.19,86.19,0,0,0,6.82-5.34c3.64-3.31,7.28-6.6,11.07-9.76a68.42,68.42,0,0,0,9-9.11c3.23-3.93,5.43-8.61,9.22-12.22,3.27-3.11,6-6.83,6.26-11.61s1.91-9.4,3.35-14c1.13-3.59,3.52-6.6,4.72-10,2.23-6.41,6-11.95,9-17.9,2.08-4.07,5.64-7.09,8.28-10.77,1.58-2.2,2.35-5.19,4.6-6.63a30.14,30.14,0,0,0,9.74-9.36c3.6-5.74,9.14-9.76,14-14.39,7-6.75,13.44-14.15,21.27-20.06,5-3.79,9.06-8.46,13.06-13.32,4.26-5.17,9.79-9.27,14.41-14.18,2.35-2.5,5.44-4.59,6.53-8.07a16.71,16.71,0,0,1,3.51-6.47c3.58-4,7.9-7,12.21-10.06,4.58-3.22,10.25-5.09,12.4-11.07a10.53,10.53,0,0,1,2.46-3.36c3.22-3.47,7.43-5.83,10.36-9.64,1-1.36,2.07-3.55,4.57-3.34,1.15.09.84-.93,1-1.59,1.48-6,2.63-12.1,5.58-17.65.18-.34.93-1.13,0-1.53-.49-.22-1.08-.63-1.74-.16-5.21,3.7-11.13,3.19-17,2.73-3.8-.29-7.09-2.51-10.7-3.4-2.29-.56-2.6-2.79-4.37-3.51a5,5,0,0,1-3.19-3.23c-1.19-4.21-4.66-8.07-2.11-12.89.07-.14-.07-.41-.14-.61-1.21-3.14.62-5.73,2-8.1,2.24-3.91,6.34-6.29,9-10a31.5,31.5,0,0,1,4.75-5c3.74-3.24,7.66-6.26,11.37-9.53a58.39,58.39,0,0,1,9.1-7.11c6.1-3.55,11.3-8.38,16.48-13.15,2.34-2.16,4.52-3.46,8-3,5.93.79,10.7,4.79,16.68,5.42a8.93,8.93,0,0,0,4.05-.26c6.47-2.07,12.38-5.49,20-2.91a199.82,199.82,0,0,0,23.08,6.12c2.51.53,4.83,2,7.17,2.44,4.92,1,9.58,2.76,14.37,4,7.23,1.92,7.22,3.67,6.67-5.39-.11-1.85-.26-3.81,1.31-4.93,3.32-2.34,5.68-5.8,9.43-7.64a17,17,0,0,0,5.35-3.66,26.4,26.4,0,0,1,10.53-6.77c8.79-3.44,17-8.25,26.37-10.4a35.54,35.54,0,0,0,9.05-3.24c4.1-2.29,8.65-3.08,12.76-3.65,6.55-.91,13.31-1,20-1.71,2.44-.25,5.23-.9,7.23.4a19.35,19.35,0,0,1,7.19,8.55c2.05,4.89,3.44,9.91,6.26,14.65a121.74,121.74,0,0,1,9,19.45c3.7,9.86,8.64,19.18,12.53,29.8C519,108.86,520.47,102.38,517.75,95.15ZM316.26,97.81c1.7,1.85,4.07,4.58,4.23,7.55.22,3.84-2.17,6.33-6,7.5-6.18,1.9-11.31,5.57-16,9.86a21.21,21.21,0,0,0-4.34,5.39c-1.37,2.46-6,2.27-8-.21a15,15,0,0,1-2.76-4.48c-1.27-3.94-4.15-6.55-7-9.2-1.2-1.12-2.29-2.28-3.78.28-3,5.2-3.46,10.68-2.92,16.43a3,3,0,0,0,.91,1.94c3,2.83,5.91,5.72,8.91,8.54a4.64,4.64,0,0,0,3.78.89c4.88-.6,9.83.95,14.62-.34A80.89,80.89,0,0,0,311,137.65c5.91-2.73,12.14-4.65,17.95-7.51a17.74,17.74,0,0,1,10.22-2.1c3,.36,3.79,1.86,2.38,4.46-.62,1.15-.46,1.27.65,1.93,5,3,9.81,6.36,14.82,9.36,5.18,3.11,10.08,7.15,16.83,6a12.93,12.93,0,0,0,5.31-2,86.19,86.19,0,0,1,12.49-7.6c2.28-1.08,4.73-1.9,7.05.05,1.63,1.37,1.74,2.49.2,4.38-2.58,3.17-6.67,3.49-9.68,6a50.86,50.86,0,0,1-13.88,8.1,6.19,6.19,0,0,1-5.33-.11c-4.75-2.75-8.17-.17-11,2.82-3,3.17-6.7,5.55-9.25,9.13-4.76,6.66-11.87,11.09-16.67,17.87-2.94,4.15-8.26,5.54-13.45,5.7a4.22,4.22,0,0,1-4.05-3c-.58-1.68-.79-3.73,1.9-3.95,2.06-.17,3.78-1.49,5.89-1.46.56,0,1.24-1,.37-1.27-7.31-2.46-3.65-7.59-2.11-11.15,2.38-5.49,3.34-11.28,5.06-16.89,1.59-5.15,4.53-9.73,5.76-15,0-.2.24-.37.25-.57.06-1.48,1.64-3.19.28-4.34s-2.5.73-3.7,1.26c-5.92,2.6-11.89,5-17.95,7.27-5.23,2-10.67,3.17-15.87,5.18-3.83,1.48-8,.59-11.92-.07-1.05-.18-2.68.6-3.26-1.32-1.85,4.29-3.63,8.23-6.38,11.58-1,1.21-.56,2.7-.62,3.72-.11,1.51.06,3.17-.17,4.79-.17,1.17.46,1.45,1.49,1.27,4.8-.79,9.64-.26,14.46-.31a16,16,0,0,1,6,.93,54,54,0,0,0,8.42,2.28,4.9,4.9,0,0,1,3.7,4.17A3.11,3.11,0,0,1,305,181c-1.48.3-3,.73-4.88-.09-4.55-2-9.47-3.36-14.54-2.29-3.44.72-7-.11-10.36,1s-7.14-.09-10,3.41c-1.65,2-4.54,3.25-6.7,5.1a13.64,13.64,0,0,0-4.88,8.16c-.56,3-3.14,4.78-6,5.25-5.68.95-10,4.4-13.91,7.95-2.61,2.34-5.48,4.59-7.53,7.68-2.61,3.95-2.79,8.31-3.16,12.71,0,.28.17.62.06.85-.6,1.3.41,3.59-1.8,3.86a4.23,4.23,0,0,1-4.22-3.06c-.91-3.77-2.44-2.09-3.72-.69-7.41,8.13-15.45,15.68-22.7,24a116.31,116.31,0,0,1-11,10.59c-9.19,8-17.84,16.61-26.19,25.49-5.11,5.45-10.24,10.9-15,16.62-7.18,8.61-13.39,17.84-17.67,28.34-2.82,6.95-5.89,13.75-6.85,21.28a12.49,12.49,0,0,1-1.1,4.05c-1.69,3.39-.65,6.65.23,9.91,1.33,4.9,2.8,9.76,4.17,14.65.19.69.25,1.5-.7,1.83-.79.28-1.64.63-2.31-.19a12.2,12.2,0,0,1-2.47-3.86c-.81-2.46-1.59-4.94-3.46-6.88-1.34-1.4-.84-3.25-.89-5-4.34,2.18-5.23,6.8-7.94,10-4.39,5.17-8.14,10.84-13.94,14.84-4.09,2.81-7.19,7.08-11,10.19-6.88,5.55-13.56,11.66-22.46,14.13-2.39.66-4,2.58-5.9,4.05a142.62,142.62,0,0,1-12.19,8.49c-3.27,2.07-7.27,4-8.36,8.58a3.28,3.28,0,0,1-3.12,2.6c-2.43.13-2.77,2.77-4.46,3.9-.91.61.54,1.32.95,1.41,4.4,1,9,2.88,13.28.44,3-1.74,6.57-.79,9.51-2.79,1.48-1,3.83,0,5.82-.37,4.84-1,9-4.22,14.08-4.37a23.31,23.31,0,0,0,5.55-.58c2.74-.78,6.16,0,7.51-4.09.84-2.53,6.81-2.95,8.32-.45s3.37,4.52,3.65,7.45c.13,1.32,1.18,2,2,2.65A5.8,5.8,0,0,1,90.49,453c-.93,3.49,1.88,3.35,3.07,3.14,3.93-.67,7.72.37,11.57.35,1.21,0,2.15.29,3.43-.44,3.06-1.75,6,.89,6.55,4.25,1,6.42-3,11.43-4.09,17.24-.41,2.22-.26,4.27-.47,6.71,4.8-2,9.4-3.41,14.23-1.18.09,0,.25,0,.31.05,5,5.34,10.41,1.81,15.53.36,3.26-.93,6.72-1.39,9.72-3.51.64-.45,4-1,5.83,1.19,2.65,3.15,4.22,6.22,3.18,10.58-1.51,6.37-5.84,10.41-10.77,13.91a57.14,57.14,0,0,0-7.69,7.2,3.13,3.13,0,0,0,0,4.06c2.08,2.57,2.18,4.82,0,7.43a15,15,0,0,0-2.71,5.07c-1.06,3.51-4.52,4.75-6.59,7.32a37.4,37.4,0,0,0-3.27,5.54c-1.61,2.79-3.1,5.64-4.74,8.41s-4.29,4.39-6.64,6.36c3.52,0,6-2.46,8.77-4.08,4.16-2.46,8.78-3.55,13.15-5.3a61.25,61.25,0,0,0,20.73-14.19c5-5.06,10.8-9,16.5-13.17,1.87-1.36,3.27-3.19,5.34-4.46,3.76-2.3,8.12-2.24,12.05-4,5.35-2.38,10.59-5.3,16.17-6.91,5.12-1.47,9.39-4.73,14.62-5.81,2.49-.51,4.72-2.16,7.2-2.81,2.29-.59,4.72-.56,7.08-1.14a21.91,21.91,0,0,0,4.35-1.23c3.4-1.63,7.12-.31,10.53-1.29,3-.88,6.35.19,9.21-1.52.09,0,.22-.15.28-.12,3.52,1.53,6.41-1.38,9.77-1.4,2.09,0,4.2-1.12,6.26-1.83,8-2.73,15.29-6.75,22.68-10.73,7.8-4.2,15.91-7.82,23.82-11.84,6.51-3.31,13.14-6.66,18.68-11.19,7.16-5.86,14.82-11.26,21.15-18,3.13-3.35,7-5.8,10-9s6.51-5.5,9.58-8.43c1.92-1.84,4.48-2.6,6.61-4.13,5.43-3.88,11.08-7.48,16.72-11.06,5.41-3.45,11.15-6.38,16.18-10.42,6.55-5.25,14.26-8.7,21-13.77,7-5.3,14.86-9.52,21.06-15.81a131.55,131.55,0,0,0,11.41-13.63c.78-1,2-1.46,2.61-2.75a26.76,26.76,0,0,0,1.5-4.33c2.39-8.36,8.76-14.36,12.94-21.67s9.7-13.88,13.61-21.4c3-5.69,7.05-10.71,10-16.32,3.64-6.83,8.55-12.74,12.81-19.09,2.54-3.79,6.08-7,8.4-11,2.8-4.86,7.41-8.06,10.75-12.37,4.44-5.74,9.58-10.88,13.72-16.91,2.64-3.85,5-7.84,7.37-11.83a12,12,0,0,0,1.38-5.34c.31-5.79,1.93-11.52,1.78-17.23-.21-8.11-.33-16.25-.79-24.37-.29-5.08-1.47-10.28-1.08-15.17.36-4.46.35-8.88.46-13.32.16-5.84-.62-11.7.53-17.51a2.65,2.65,0,0,0-.17-1.23c-2.27-7.39-1.09-14.9-.78-22.37.06-1.67,0-3.33.06-5.18-1.15-.08-2.26,1.74-3.24.21-.78-1.23-.5-2.43.08-3.82,1.52-3.6,1.07-7.36.24-11.06-1.29-5.79-4.73-10.79-6.14-16.52-.56-2.28-2.79-1.68-4.12-2.47a5.87,5.87,0,0,1-3-2.9c-2.47-6.73-5.78-13.11-7.9-20-1.47-4.8-4.19-9.2-5.9-13.94-1-2.8-3.08-5.41-1.06-9.06,1.14-2.06-2.57-2.23-3.54-2.31-5.63-.48-10.27,3-13.95,6.24-4.58,4-7.19,10-8.65,16.26-2.16,9.24-1.61,18.53-.23,27.67a96,96,0,0,0,6.24,21.79c2.43,6,5.51,11.83,6.85,18,1,4.52,3,3.78,5.93,3.42,2-.24,4-.75,5.91.66,1.17.87,2.41,1.94,1.79,3.25s-1.34,2.88-3.47,3.18c-3.06.44-5.52-.9-8.15-1.85l-1.51-.58c1.25,3.15-.32,5.6-1,8.12-3,10.55-5.34,21.19-5.81,32.19a197.4,197.4,0,0,1-2.09,20.57,12.27,12.27,0,0,0,.22,4c1,5.61.65,11.38,2.34,16.93a3.8,3.8,0,0,1-1.46,3.9c-5.43,3.86-9.62,9.05-14.31,13.67s-8.3,10.11-12.83,14.84c-2.44,2.55-5.17,4.84-7.56,7.43-3.91,4.26-7.68,8.63-11.44,13-3.18,3.71-6.34,7.43-9.33,11.29-1.4,1.8-2.87,3.25-1,6.38a31.52,31.52,0,0,0,11.51,11.26,7.87,7.87,0,0,1,3.46,4.63c.39,1.17,1.16,2.32-.31,3.25-1.26.81-2.58,1.36-4.06.47a69.73,69.73,0,0,1-19.18-16.79,3.78,3.78,0,0,1-1-2.85c.58-3.54.68-7.14,3.09-10.25,5-6.5,9.84-13.25,15.6-19.09,4.34-4.4,8.72-8.85,12.74-13.49,5.5-6.34,12-11.75,16.79-18.79,1.88-2.78,4-5.8,7.16-7.61a3.27,3.27,0,0,0,1.63-3.46c-.83-4.18-.31-8.41-.61-12.6a79.54,79.54,0,0,1,1.21-22.87,98.11,98.11,0,0,0,1.9-17.19c.06-1.41-1.14-2.11-1.48-3.35A176,176,0,0,0,504,105.54c-3.54-8-6.73-16.12-10.33-24.07-2.81-6.2-5.94-12.27-9.09-18.31-2.23-4.28-4.59-8.51-8.34-11.73-2.87-2.45-6-.62-8.77-.19-7.33,1.14-14.6,2.8-21.82,4.56-5.38,1.31-10.26,4-15.22,6.43-1.1.54-1.24.91-.19,2,3.46,3.56,5.55,8,7.29,12.58.68,1.76-1.28,5.3-3.12,6.5-5,3.29-10.23,6.32-14.41,10.78-2.64,2.82-8.16,2.11-10.57-1.06-3.22-4.24-7.05-7.94-12.28-9.23a28.25,28.25,0,0,0-5.87-.85c-1.17,0-1.83.47-1.81,1.64.13,7.52,1.19,14.34,7.63,19.82,5.6,4.77,11.86,6.53,18.68,7.44,4.18.56,8.19-1,12-2.23,6.27-2,12.74-2.94,19.08-4.46,4-1,8-1.46,10.74-4.93,2.05-2.55,4-5.15,4.85-8.4s5.72-5.21,8.39-3.31c1.93,1.37,1.33,3.71.43,4.82-2.15,2.65-2.92,5.86-4.5,8.72-1.94,3.52-5.32,5.43-8.61,7.37-2.74,1.62-3.82,3.64-3.28,7,1.45,9.13,2.21,18.37,3.93,27.44.74,3.88,1.6,7.83,5.75,10.77,4.88,3.45,9.65,7.22,14.41,10.93a9.84,9.84,0,0,1,2.3,2c.86,1.3,1.49,2.77.48,4.36s-1.93,1.88-3.86,1.55c-2.16-.37-4.33-1-5.55-2.41-2-2.26-3.66-4.6-6.47-5.94-2.51-1.19-3.36-4-5.39-5.82-1.39-1.22-2-1.24-3.25-.1a159,159,0,0,0-13.44,14.38c-2.9,3.46-5.57,7.16-8.8,10.32-1.09,1.06-1.25,2.33-1.91,3.45-2.83,4.81-7.48,8.17-10.06,13.23-1.48,2.89-5.85,3-8.35.86-.92-.79-1-4.9.12-5.26,2.16-.71,2.4-2.73,3.41-4.23.56-.83,1-2,1.79-2.38,4.48-2.26,3.87-6.31,4.68-10.35,1.06-5.26-.32-10.31.27-15.48.42-3.73-1.63-7.64-1.77-11.66A101.55,101.55,0,0,0,421.6,137a126.26,126.26,0,0,1-2-14.3c-.19-2.59-1.22-4.34-3.94-3.63-6.15,1.6-11.48-1.25-16.69-3.33a28.68,28.68,0,0,1-13.85-11.59c-1.17-1.89-2.57-3.22-5-2.78a2.54,2.54,0,0,1-2-.53C373,97.37,367,96.27,361.24,94.58c-3.53-1-7-2.24-10.46-3.43-3.07-1.06-6.32-1.42-9.44-2.51-5.75-2-12.15-.75-17.83-2.28-6.31-1.71-10.42,2.51-15.72,3.59C311.36,91.88,313.77,95.12,316.26,97.81ZM37.85,472.07c4.73,2.36,4.27,7.22,4.29,11.55a21.49,21.49,0,0,0,.59,5.32c1,4.15,3.56,8.58-.09,12.85-.61.72-.12,1.94.41,2.59.37.46,1.25-.24,1.88-.39,4.11-1,8-2.61,12-3.89a22.66,22.66,0,0,0,6.5-3.11c3.88-2.85,8-3.36,11.48.78A3.85,3.85,0,0,1,76.13,501c-.43,3.79,1.62,5.44,5.53,5.27,3.68-.15,7.12-1.49,10.84-1.62,3.26-.12,4.38,2,5.2,4,1.5,3.69,2.3,7.47-.46,11.33-1.73,2.42,2,8.8,4.77,8.72,1.64,0,3.18-.32,3.94,1.43.9,2.11,3,4.17,1.58,6.6a6,6,0,0,0-.19,5.33,12.89,12.89,0,0,1,.06,9.54,7,7,0,0,0-.16,1.8c4.52-2,7.47-5.13,10.07-8.91,2.94-4.28,5-9.1,8.86-12.84a38.48,38.48,0,0,0,5.76-8.05c1.27-2.1.19-4.52,0-6.74-.33-3.54.28-6.27,2.95-9,3.78-3.86,8.07-7.23,11-12.08a36.46,36.46,0,0,1,5.22-6c-6.44,1.56-12.55,2.89-18.57,4.56-3.42.95-5.77-1.22-8-2.67-2.67-1.71-4.73-.94-7.2-.28-3.83,1-7,3.41-10.82,4.61a8.61,8.61,0,0,1-9.16-2.26c-2-1.9-2.06-4.51-.75-6.89a114.7,114.7,0,0,1,6.31-10.57c1.89-2.7,2-5.87,3-8.78.47-1.31-.43-2.06-2-1.89-3.56.37-7.08.64-10.63-.56a5.09,5.09,0,0,0-4.06.78c-1.53,1-3.05,1.84-5,.73-2.8-1.63-4.55-4.1-4.18-7.17.13-1,.09-1.64-.46-2.18-2-2-3.48-4-3.2-7.1.12-1.4-.75-2.67-2.35-1.74a7.77,7.77,0,0,1-4.25.78c-6.51-.09-11.95,3.51-18,4.95-4.53,1.08-9.34,1.09-13.54,3.34-4,2.13-8,2.42-12.9,1.12C28.55,464.68,32.16,469.23,37.85,472.07Zm393.68-326.8c.25,3.54.9,7.12.94,10.59.06,4.54,1.18,8.93,1.07,13.42a2,2,0,0,0,.3,1.45c.61.71,1.11-.14,1.65-.26,1.64-.36,2.47-2,3.24-3.05,3.28-4.39,7.16-8.19,10.71-12.3,1.41-1.62.91-4.48.45-6.69a109.15,109.15,0,0,1-1.5-13.11c-.49-5.52-1.45-11-2.2-16.48a41.85,41.85,0,0,1-.53-4.45c-.09-2.5-1.3-2.31-3.06-1.56a79.19,79.19,0,0,1-16.08,4.74C430.93,126.37,430.87,135.88,431.53,145.27ZM304.9,108.62c4-2.63,3.66-10.37-.84-11.82-3-1-6.54-3.42-10.57,0-3.42,2.87-8.29,4-12,6.83-1.88,1.43-1.82,2.54-.18,3.94,2.64,2.24,5.3,4.47,7.91,6.74,1.08,1,1.13,2.38,1.35,4.24C295.47,114.76,300.21,111.73,304.9,108.62Zm24.72,70.59a1.44,1.44,0,0,0,1.08-.4c2.1-1.71,3.3-4.17,5.35-6,1.43-1.3,3-2.71,4.4-4.17,4.95-5.17,9.84-10.39,14.83-15.5.9-.93.22-1.18-.31-1.53-3.94-2.62-7.93-5.18-11.85-7.82-1.92-1.29-2.48.27-3,1.43-1.77,4.28-4,8.5-4.9,13-.8,3.78-2.23,7.36-3,11.16-.48,2.53-2,4.85-3.09,7.27-.2.46-.34.94-.45,1.25C329,178.54,328.9,179.17,329.62,179.21Zm84.15-95c2,2.2,3.81,1.87,5.79-.06a24.5,24.5,0,0,1,4.35-3.46c4.7-2.81,5.06-6.46.85-10-.08-.07-.23-.08-.27-.16-2.22-4.33-5.32-3.89-9.11-2-3.13,1.52-6.5,2.59-9.22,4.83a22.58,22.58,0,0,1-5.06,2.69C405.62,78.8,410.37,80.5,413.77,84.25Zm-120.7,1.33c-5.86-1.34-10.51,1.61-14,5.72-3.17,3.77-7.46,5.7-11.11,8.62-4,3.22-8,6.51-12.27,9.38-.61.41-1.27,1-1,1.8s1.09.17,1.65.27a7.87,7.87,0,0,1,4.7,2.06c1,1,2.15,1.42,2.28-.46A7.68,7.68,0,0,1,266,107.9c2.46-2.41,3.41-5.82,5.73-8.28a6,6,0,0,1,2-1.4c5.19-2.16,10.39-4.3,15-7.51,2.68-1.86,5.73-2.68,8.8-3.86C296.27,85.22,294.5,85.91,293.07,85.58Zm-36.42,34.3c-2.17-.77-4.37-1.63-6.61-2.27a3.59,3.59,0,0,0-4,1c-5.51,5.37-5.26,6.43,1.62,9.31,2.51,1.06,5.22,2.15,6.63,4.92a2.16,2.16,0,0,0,3.06.68c1-.54,2.73-.25,2.76-2.29s.51-4.13.17-6.32C262.33,121.1,258.6,120.57,256.65,119.88ZM258,142.57c-3,2.89-6.93,2.15-9.28-2s-5.91-5.85-9.69-7.74a1.19,1.19,0,0,0-1.61.29c-1.71,2.26-.41,7.67,1.8,9.62,7.35,6.48,15.22,5,23.17,1.69,4.75-2,4.69-2.22.72-7.11C262.24,140,259.7,140.89,258,142.57Z"/><path class="cls-1" d="M378.78,220.45c-1.68,1.71-3.9,2.78-5.09,5.19a70.21,70.21,0,0,0-6.28,18.54c-1.44,7.85-1.57,15.74-2.28,23.62-.54,5.86.39,11.67.62,17.5.2,5,2.51,9.61,5.44,13.6a11,11,0,0,1,2.25,6.29c.08,2-.66,3.68-3.21,2.42-5.1-2.53-9.48-.73-13.75,2.11-1.2.8-2.43,1.57-3.7,2.25a71.81,71.81,0,0,0-11.14,6.72,138.84,138.84,0,0,1-17.83,11.93c-3.59,2-8,2-11.72,3.83a19.12,19.12,0,0,1-6.24,1.77c-3.48.39-7.06.53-10.41,1.46-5.71,1.58-11.29,3.68-16.91,5.59-8.87,3-18,5.24-27,7.52a56.46,56.46,0,0,0-10.72,3.68c-7.81,3.77-15.4,8.14-21.9,14.07a15.94,15.94,0,0,1-1.6,1c-1.14.81-2.21,1.73-3.5.15s-1.87-3.08-.41-4.47c4.67-4.45,8.69-9.4,14.52-12.81A104.37,104.37,0,0,1,253,341.71c1.73-.48,3.42-1.12,5.13-1.63,3.65-1.08,7.47-.9,11.11-2,7.78-2.35,15.17-5.88,23.11-7.72,5.68-1.32,11.37-2.6,17.07-3.79,3-.62,5.65-2.32,8.58-3,4.52-1.05,7.81-4.28,11.44-6.59,4.38-2.8,8.49-6.26,13-8.78,5.51-3,10.81-6.38,16.17-9.66,1.38-.84,2.24-2.57,1.65-3.15-2.59-2.5-1.73-5.47-2.11-8.42-1.16-9-1.05-18-1.07-27.07,0-1.53-.81-3-.24-4.6,2.05-5.95,1.44-12.34,2.95-18.42.82-3.3,1.26-6.84,2.41-9.94,1.8-4.83,5.48-8.8,9.18-12.39,3.88-3.76,8.84-6.17,13.39-9.05,1.69-1.07,3-3.09,5.42-2.77,1.57.2,2.45-.55,3.09-2,.9-2,2.95-3.48,4.84-2.81,2.41.86,4.84.61,7.22,1.1,6.77,1.4,11.68,5.53,16.52,9.95a2.38,2.38,0,0,1,.66,1.67c1.24,8.73,4.78,16.87,6.52,25.45.59,2.87,2.2,5.47,1.77,8.79-.23,1.81-1.11,4.28-.55,5.49,1.63,3.53,1.49,7.28,2,10.85.55,3.93,2.58,7.65,1.81,11.82-.22,1.22.43,2.64.83,3.91,1.22,3.89,1.53,8,2.29,11.94,1,4.9,1.83,9.9,3.13,14.68,1.75,6.45,1.65,13.06,2.9,19.52.29,1.5-.1,3.57-1.88,3.85-2.79.45-3.6,2.31-3.91,4.48-.54,3.81-3.34,6.37-5.11,9.44-3.89,6.78-9.72,12.17-14.5,18.33-5.7,7.35-11.7,14.46-17.39,21.8-5.53,7.13-11,14.32-16.17,21.71a45.84,45.84,0,0,0-6.24,11.66c-.84,2.51-1.06,5.23-2.44,7.61-1.09,1.87-3,1.94-4.49,1.8a3.71,3.71,0,0,1-3.41-4c.2-1.62.2-3.45,1.19-5a112.49,112.49,0,0,0,7.32-14.17c2.58-5.64,7.37-9.34,10.21-14.58,2-3.68,5.12-6.63,7.42-10.17a108.69,108.69,0,0,1,9.72-12.59c1.76-2,4-4.11,5.53-6.16,4.06-5.4,8.51-10.52,12.32-16.16,3.27-4.83,6-9.93,8.95-14.9.41-.68.87-2.58-1-2.63-2.35-.06-4-1.42-5.81-2.52-2.9-1.77-5.77-3.57-8.65-5.36a10.11,10.11,0,0,0-5-1.39,60.4,60.4,0,0,1-8.6-.88c-2-.39-4.26-1.23-3.94-4,.27-2.33,2.38-2.35,4-2.31,5.43.13,10.9-.71,16.23,1.64,1.53.67,2.5,2.13,4.18,2.34,4,.52,6.41,4.78,10.75,4.45.61-.05.37,1.31,1.31,1,.87-3.35.2-4.89-2.68-5.23a18,18,0,0,1-8.82-3.91c-.91-.69-1.51-1.27-1-2.6s1.3-2.26,2.49-1.81c2.76,1.06,5.64-1.53,8.38,1-.84-4.41-1.61-8.29-2.3-12.18-1-5.62-2.1-11.23-2.86-16.88-.41-3-2.06-5.59-2.58-8.54A1.31,1.31,0,0,0,423,265c-.94.19-1.24-.42-1.85-1.08-3.23-3.47-6.82-6.73-12-6.05a13.11,13.11,0,0,1-6.53-.64,14.38,14.38,0,0,0-4.46-.84c-2.55-.07-10.26-5.37-10.41-7.81-.27-4.45-2.31-8.55-2.36-12.95,0-3.48-1.92-6.93-.52-10.35,1.28-3.14.62-6.44,1.95-10.44C383.53,217.06,380.79,218.4,378.78,220.45Zm15,17.84c-.06,5.1,6.54,12.33,11.16,11.27,2.24-.52,4.14-1.14,6.55-.72,3.32.59,6,2.2,8.83,3.78.5.29.82,1.18,1.51.71a1.51,1.51,0,0,0,.52-2c-2.13-4.66-1.89-9.47-1.12-14.37a5.44,5.44,0,0,0-.61-3c-2.3-4.71-1.51-10.26-4-14.87-3-5.65-7-10.33-13.48-12.18-1.88-.53-5.63,2-6.2,4.27-1.28,5.1-1.72,10.39-3.5,15.39-.11.31.17.76.43,1.84C392.64,231.25,393.79,234.77,393.76,238.29Z"/><path class="cls-1" d="M339.28,286.22c-1.64.57-2.92-.67-4.24-1.21-7.49-3.09-15.34-5.29-22.32-9.62a115.38,115.38,0,0,0-17.32-8.6,31.38,31.38,0,0,1-9.13-5.65c-3.09-2.77-7.38-3.47-10.46-6.19-3.31-2.93-7.53-3.67-11.55-4.78-1.57-.43-4-.59-4.44,1.56a4.24,4.24,0,0,0,2.54,5.25c3.94,1.74,8.1,3,11.64,5.62,5.7,4.18,12.5,6.48,18.16,10.86,2.22,1.72,5.68,2,8.18,3.85,4.39,3.27,9.83,4.52,14.36,7.78,3.15,2.27,7.62,2.83,11.58,3.81,4.41,1.09,8.15,3.77,12.62,4.8,2.93.68,5,.27,6.17-2.58.77-1.88-.69-4-3.39-4.65C340.94,286.3,340.21,285.42,339.28,286.22Z"/><path class="cls-1" d="M346.73,192.24c-1.45-.05-2.59.4-2.76,1.95-.22,2,.27,3.75,2.3,4.61,3.29,1.41,6.67,2.55,9.65,4.71,1.95,1.42,4,2.71,5.83,4.28a5.36,5.36,0,0,0,4.72,1.33c3.67-.79,4.3-3.91,1.63-7.3-.43-.55-.92-1.35-1.49-1.46-5.15-1-8.52-5.48-13.65-6.67C350.89,193.21,348.83,192.61,346.73,192.24Z"/></g></g></svg>