<svg xmlns="http://www.w3.org/2000/svg" viewBox="0 0 1247 1247"><defs><style>.cls-1{fill:#fff;}</style></defs><title>rp logo round white_1</title><g id="Lager_2" data-name="Lager 2"><g id="Lager_1-2" data-name="Lager 1"><path class="cls-1" d="M741.36,950.82l-1.53-1.18a35.64,35.64,0,0,0-4.33,4c-7.32,9.52-9.63,21.12-13.18,32.2-.05.15.21.4.82,1.55C731.64,976,736.94,963.62,741.36,950.82Z"/><path class="cls-1" d="M578.08,984.14a11.33,11.33,0,0,0-5,1c-1.29.69-2,2-4,5a28.52,28.52,0,0,0-3,6l17-12Z"/><path class="cls-1" d="M429.31,1194a207.41,207.41,0,0,0-50.22-58.5c-7.71-6.15-15.23-12.54-23.06-18.54a16.35,16.35,0,0,1-6.21-11.54c-1.84-15.48-3.81-31-4.71-46.52-.51-9,1.47-18.18,1.4-27.27-.22-26.22-.82-52.44-1.49-78.66-.13-5.4-1.24-10.77-1.9-16.16l-1.38-.09a23.44,23.44,0,0,0-1.12,4.28c-.79,11.33-1.44,22.68-2.24,34a56.26,56.26,0,0,1-1.16,6.43l-1.06-.05a57.78,57.78,0,0,1-.67-7.43c.91-24.7,1.82-49.4,3-74.09.25-5.2,1.74-10.33,2.49-15.51.63-4.37-.66-5.38-4.71-3.39-5.89,2.91-11.3,6.46-13.57,13.19a11.88,11.88,0,0,1-1.48,2.43l-1.2-.27a27.61,27.61,0,0,1,.93-5.26c3-7.81,6.37-15.46,9-23.37,1.89-5.63,2.73-11.62,4.26-17.39,1-3.68,3-7.18,3.42-10.9a272,272,0,0,0,2-28.38c.24-36.35,1-72.72-.06-109-1.1-39.87-5.7-79.43-17.74-117.74a122.31,122.31,0,0,0-7.24-18.46c-3.85-7.67-7.85-8.09-14.34-2.41a7.07,7.07,0,0,1-3.32,1.75,19.1,19.1,0,0,1,1.31-4.13c2.36-3.95,2.45-8.06,1.28-12.3-1.29-4.69-2.49-9.42-4.12-14-5.6-15.69-3.32-31,2.07-46.15,1.58-4.46,3.24-8.91,5-13.3a45,45,0,0,1,2.77-5.06l1.16.27c-.23,2.1-.14,4.29-.73,6.27-2.29,7.64-4.52,15.32-7.3,22.78-3.31,8.86-3.74,17.46.52,26.07,3.25,6.59,6.05,13.45,9.93,19.65,2,3.16,5.68,5.41,8.95,7.55,2.32,1.52,4.58.39,4.88-2.5.42-4.08,1-8.27.46-12.29-3.55-29.24-7.32-58.45-11.11-87.66-.27-2.13-1.27-4.16-2.13-6.86a39.44,39.44,0,0,0-4.12,2.93c-5.34,5.08-10.6,10.23-15.91,15.34-1.35,1.3-2.69,2.62-4.14,3.8-5.59,4.57-10.31,3.26-12.42-3.74A28.6,28.6,0,0,1,275.66,439c4-6.94,9.5-13,14.4-19.45a6.88,6.88,0,0,1,2.1-1.53,13.63,13.63,0,0,1,2.39-.71,28.62,28.62,0,0,1-2.16,3.86,10.62,10.62,0,0,1-2.15,1.47c-5.7,4.17-13.75,27.79-11.65,34.57.41,1.29,1.51,3.09,2.53,3.27s2.81-1,3.55-2.15q4.47-6.69,8.46-13.66c5.17-9,12-16.24,21.72-20.38a39,39,0,0,1,4.2-1.27c1.21,9.18,2,18,3.59,26.7a300.4,300.4,0,0,0,6.76,29.9c4.35,14.78,13.58,26.82,23.44,38.35a29.7,29.7,0,0,0,3.59,2.75c-.43-3.48-.54-5.89-1-8.21Q344.38,462.4,333.2,412.39a32.21,32.21,0,0,0-1.67-5.35c-2.29-5.62-5.95-8.35-11.94-7.54-15.59,2.08-31.13,5.34-44.13,14.4-13.71,9.53-22.38,22.81-21.26,40.54,1.79,28.34,5.53,56.34,14.32,83.51,2.68,8.27,3.94,17,6.75,25.23A136.85,136.85,0,0,0,294,599.63c13,17.89,20.77,38.43,26.08,59.68,4.45,17.75,7.15,35.94,10.76,53.91,1,5,2.57,9.88,3.76,14.85a38.67,38.67,0,0,1,1.35,7.77,466.38,466.38,0,0,1-6.66,97c-.51,2.86-1.84,5.58-2.79,8.36l-1.49-.34a31.41,31.41,0,0,1,0-4.55c3.7-23.25,3.13-46.57,1.1-69.89-2.08-23.78-5.56-47.37-12.6-70.26-4.94-16.09-10.38-32-15.65-48a35.16,35.16,0,0,0-2.22-4.53h-1.19c-.65,2-1.81,4-1.85,6.08-.11,5.48.56,11,.37,16.45-.55,16.73-1.08,33.47-2.13,50.17a269.35,269.35,0,0,0,2.9,56.38c1.09,7.36,1.8,14.77,2.68,22.16l-1.06.33c-.48-1.16-1-2.3-1.44-3.49C286,769,281.19,746,281.84,721.71a473.18,473.18,0,0,0-1.43-53.52c-1-11.44-4.61-22.68-7.32-34-6-25.1-12.67-50-21.66-74.31-.78-2.1-1.68-4.15-2.56-6.21-.06-.14-.41-.15-1.1-.37-.79,19,1.3,37.63,3.16,56.33q-3.8-12.18-7.61-24.35l-.75.19c0,5.64-.18,11.29,0,16.93.87,23.22,1.75,46.43,2.85,69.64.44,9.22,1.18,18.45,2.32,27.6,1.57,12.62,7.11,23.7,15.31,33.22,7.2,8.35,9.71,17.83,10.13,28.57,1.27,32.33,2.91,64.64,4.57,97,.35,6.8,1.42,13.56,2.2,20.73a34.29,34.29,0,0,1-7.5-18.65c-.64-6.6-.8-13.25-1.17-19.87h-1.37a25,25,0,0,0-.61,3.1c-2.06,31.24-7.74,61.89-15.33,92.2a36.9,36.9,0,0,0,.72,21c7.58,23.19,16.32,45.79,30.25,66.12,9.8,14.3,16.14,30.09,17.7,47.55.16,1.79,0,3.6,0,5.4l-1.25.3c-.69-1.34-1.88-2.65-2-4-1.22-14.17-8-26.16-15-37.94-5.14-8.55-11-16.68-16.45-25-2.53-3.85-5.24-7.63-7.38-11.7-1.78-3.37-2.75-7.16-4.25-10.68-1.9-4.47-3.44-9.2-6.07-13.21-8.69-13.26-10.57-27.74-7.5-42.77,5-24.32,6.34-49,8.6-73.61.64-6.84,1-13.71,1.79-20.52a66.76,66.76,0,0,0-2.8-29.6,119.27,119.27,0,0,1-5.87-44.84c.21-4.49.11-9,.11-13.49,0-6.18-2.08-11.52-5.56-16.72a147,147,0,0,1-11.87-21.13c-1.9-4.27-2-9.38-2.67-14.14a39.14,39.14,0,0,1,0-5.73l-1.7-.39c-1.22,2.29-3,4.46-3.56,6.9-1.75,8.41-2.94,16.93-4.53,25.38-1.7,9-3.58,18.08-5.47,27.09-.63,3-1.91,6-2.23,9.07-.54,5.13-3,9.2-6.21,12.92a200.72,200.72,0,0,0-25,35.46,6.26,6.26,0,0,1-1.07,1.49c-.22.22-.67.21-2.1.6.55-2.17.64-4,1.42-5.37,4.55-8.3,8.41-17.17,14.11-24.61,9.54-12.45,14.2-26.47,16.71-41.54.52-3.07,1.16-6.14,1.42-9.24.29-3.36-.61-3.91-3.65-2.61-1.77.76-3.52,1.57-6.11,2.74,2.66-8.33,4.86-15.8,7.42-23.14,3.74-10.71,7.45-21.45,11.7-32,4.91-12.13,6.89-24.67,7.16-37.64.67-32,1.11-64,2.43-95.91.63-15.42,3.42-30.73,4.54-46.14.93-12.93.86-25.93,1.17-38.9a6.45,6.45,0,0,0-1.46-3.87,47.71,47.71,0,0,0-2,4.78c-3.33,11.62-5.67,23.63-10.08,34.81a321,321,0,0,0-15,47.73c-2.93,13.25-5,26.7-7.15,38.56-1.2-12.38.2-26.68-3.46-41.11-1.23.82-2.19,1.11-2.49,1.72-5.21,10.48-11,20.75-15.33,31.58-8.23,20.52-12.54,42-14.12,64.08-.57,8-1.83,15.87-2.81,23.79a2.68,2.68,0,0,1-1.42,1.94c-.14-1.51-.4-3-.43-4.52-.3-19.76.53-39.46,4-59,.64-3.54,2.06-6.93,2.88-10.44.24-1-.33-2.28-.54-3.42-1.34.37-2.92.43-4,1.2a6.93,6.93,0,0,0-2.06,3.45c-2.07,7-7.08,11.17-13.15,14.41l-.85-.56c5.51-8.66,11.07-17.3,16.52-26,2.3-3.66,4.35-7.47,6.56-11.18a59.54,59.54,0,0,1,4.39-7c9.27-11.5,15.38-24.76,20.69-38.31C203.88,481.66,212.46,443.84,217,405c2.75-23.3,6.14-46.52,9.26-69.77,1.72-12.73,2.68-25.62,5.4-38.13,5.55-25.6,15.77-49.63,26.62-73.37,1.61-3.52,3-7.17,4.75-10.58,9-16.85,9.77-34.76,6.63-53-2.54-14.81-5.37-29.56-8.18-44.31C103.21,228.86,0,414.12,0,623.5c0,279.89,184.42,516.7,438.37,595.55A70.06,70.06,0,0,0,429.31,1194Z"/><path class="cls-1" d="M267.66,118.36c3.76,12.92,7.11,26,9.89,39.13,3.34,15.79,9.27,30.58,16.4,44.86,16.38,32.82,28.7,67.13,39.84,102,4.29,13.43,2.06,24.67-6,35.45-1.43,1.9-2.83,3.81-4.26,5.7-5.59,7.35-11.13,14.73-16.8,22a28.42,28.42,0,0,1-5.19,5.32c-2.8,2.09-5.27,1.31-5.86-2.11-1.07-6.13-1.56-12.36-2.21-18.56-.38-3.6-.62-7.21-.87-10.82-.69-9.92-7.57-15.65-14.5-21.26-1.93-1.57-3.43-.09-4.67,1.5-5,6.47-6.5,13.9-5.91,21.88.7,9.58,3.72,18.55,7.22,27.39.63,1.58,1.14,3.21,1.71,4.82l-.77.62a41,41,0,0,1-3.37-3.35c-10.43-13.12-12.71-27.87-8.5-43.81a114.3,114.3,0,0,1,4.34-13.91c3.15-7.62,7.41-8.81,14.47-4.56,2.3,1.39,4.58,2.82,6.87,4.23l1.37-.49c0-3,.73-6.23-.14-9-2.46-7.68-5.39-15.24-8.55-22.67-.75-1.77-2.93-3.3-4.81-4.18-6.57-3.06-10-13.73-6.87-22.06,2.66-7,8-10.68,14.24-9.43a14,14,0,0,1,5,2.27c.72.48.82,1.86,1.2,2.84a12.91,12.91,0,0,1-2.68.71,11.17,11.17,0,0,1-2.56-.51c-3.54-.72-6.65-.52-8.71,3.16-2.41,4.32-2.41,7.53.48,11a16.59,16.59,0,0,0,2.86,2.94c12.24,8.76,17.05,21.63,18.87,35.7,1.64,12.6,2.16,25.36,3.16,38,.2,2.54.33,5.08.49,7.63l1.24.38c5.2-9.38,10.79-18.65,15.38-28.38a19.42,19.42,0,0,0,1.2-12.39c-5.57-20.68-11.18-41.4-18.08-61.66-3.12-9.16-8.92-17.51-14.17-25.81-3.54-5.62-6.38-5.57-10.33-.11-3.7,5.12-7.37,10.54-9.6,16.39-5.72,15-11.21,30.16-15.66,45.58-3,10.37-3.13,21.56-6.14,31.93-7,24.3-3.5,48.24,1,72.21.61,3.24,2.59,6.44,4.69,9.06.9,1.13,3.73,1,5.64.92,1.24-.08,2.49-1.13,3.57-2,10.09-7.69,21.71-10.94,34.15-11.92,2.48-.19,4.94-.72,7.42-.94a16.89,16.89,0,0,0,13.38-7.84c6.14-9.39,12.75-18.54,18.13-28.35,12.21-22.26,25.43-43.83,40.67-64.15,1.33-1.77,2.45-3.69,4-6-8.24-2.12-16-3.77-24-1.35-5.1,1.56-8.2,5.58-8,10.95.15,4.83,1.22,9.63,1.74,14.45a20.8,20.8,0,0,1-.35,4.09l-1.8.32c-1.37-3.09-3.14-6.07-4-9.3-4.68-17-10.4-33.57-18.23-49.41-7.68-15.54-15.13-31.2-22.62-46.84a13.49,13.49,0,0,1-1.63-5.28c-.2-16.35-.83-32.73-.15-49,.74-17.69,8.32-33,19.64-46.4a23.42,23.42,0,0,1,2.92-2.54l.92.59a36.65,36.65,0,0,1-2.08,5.32c-20.19,35.16-18,71.1-3.8,107.45,4.06,10.4,9.17,20.24,16.42,28.83,8.75,10.33,19.55,16.87,33.27,18.17,20.6,2,41.16,1.86,61.58-1.75,5-.88,9.85-2.49,15.83-4-3.54,3.22-6.38,5.6-8.95,8.25-.92.95-1.18,2.55-1.73,3.85,1.24.41,2.53,1.27,3.73,1.17,6.71-.57,13.39-1.68,20.1-2,14.81-.81,29.63-1.29,44.48-1.31-17.15,2.4-34.49,3.39-51.35,10.16,3,2.5,5.51,4.94,8.35,7a41.75,41.75,0,0,1,15.89,23c5.59,20.05,11.2,40.1,16.44,60.25,4.95,19.05,13.52,35.89,28,49.45,2.28,2.13,4.31,4.51,6.41,6.82a21.81,21.81,0,0,1,1.77,2.88c-2.08-.86-3.27-1.23-4.35-1.81-10.62-5.72-18.56-14.18-25-24.23-9.53-14.85-15.26-31.32-21.1-47.8-4.28-12.09-9.22-24-14.25-35.78-4.79-11.27-14.63-17.16-24.69-22.66l-1.06.62a64.39,64.39,0,0,0,2.25,7.19,228.54,228.54,0,0,1,14.89,44.25c6.44,29.44,11.81,59.08,11.31,89.34-.35,21.1-2.3,42.16-2.86,63.26-.59,22.46-.45,44.94-.47,67.41a31,31,0,0,0,1.53,8.43c.41,1.39,1.74,2.5,2.65,3.73,1.23-.95,2.84-1.66,3.62-2.9a52.38,52.38,0,0,0,4.25-8.3,144.43,144.43,0,0,0,10.38-47.68,20.17,20.17,0,0,1,.48-3.63c.74,15.08,1.51,30.09-3.29,44.86-4,12.37-4.67,25.35-3.69,38.21,1.82,24,3.49,48.09,6.69,71.94,3.56,26.57,8.73,52.92,13.29,79.35a48.53,48.53,0,0,0,2.07,6.53L502,752c.71-1.61,1.77-3.16,2.08-4.85,2.29-12.38,4.52-24.76,6.59-37.18,1.64-9.84,2.9-19.74,4.56-29.57.48-2.79,1.92-5.4,2.62-8.17,1.23-4.92,3.14-9.89,3.18-14.85.24-25.51-2-50.87-5.3-76.17-1.11-8.5-.7-17.19-.95-25.8a2.56,2.56,0,0,1,.95-2q4.9,38.11,9.82,76.21h.6c.78-9,1.37-18,2.4-26.92,1.49-13,3.48-26,4.89-39,1.11-10.17,1.19-20.47,2.59-30.59,1.52-11,4.33-21.77,6-32.73,1.6-10.22,2.23-20.59,3.72-30.83a790.1,790.1,0,0,1,22.74-105.65c4-13.65,7.24-27.49,11.21-41.14a129.82,129.82,0,0,1,6.64-17.06c4.93-10.81,6.67-22.37,9.13-33.84,4.12-19.12,9.21-38,13.93-57a34.58,34.58,0,0,1,1.39-3.72l1,.18c-.36,3.45-.62,6.91-1.11,10.35-1.47,10.12-3.33,20.2-4.42,30.37a73.25,73.25,0,0,0,.23,17.13c.72,5.42,4,6.52,7.57,2.47,8.31-9.44,16.68-18.94,23.9-29.2a242,242,0,0,1,30.71-36.22c1.35-1.29,2.84-2.44,4.31-3.6a2.83,2.83,0,0,1,2.59-.41c-2,2.38-3.77,4.94-5.94,7.13-9.81,9.9-16.93,21.51-22.43,34.24a53.22,53.22,0,0,0-3.25,34c3.84,16.55,10.19,31.86,21.92,44.44a38.39,38.39,0,0,0,9.22,6.9c6.63,3.74,10.76,3.37,16.23-2,3.87-3.81,7-8.41,10.28-12.78,4.63-6.16,8.87-12.62,13.69-18.63C726,282.24,737,269.23,742.62,252.82c4.71-13.77,7-28.07,8.66-42.47.68-5.82,1.22-11.66,1.84-17.72.34.36.72.57.73.81,1.08,23,.87,45.87-8.72,67.33-5.08,11.36-11.28,22.23-17.3,33.14-5.25,9.5-10.81,18.83-16.52,28.07a61.16,61.16,0,0,0-9.06,31.61c-.2,9.9,0,19.76,2.85,29.31.65,2.2,2.58,4,3.93,6,1-2,2.76-3.85,3-5.92,2.6-20,12.5-36.25,24.8-51.6,6.22-7.77,11.39-16.37,17-24.59.67-1,1.39-1.9,2.09-2.85l1,.34a33.8,33.8,0,0,1-.89,4.78,82.79,82.79,0,0,1-15.53,28c-11.15,12.83-16,27.78-16.19,44.4-.22,17.1-.11,34.21,0,51.31a24.77,24.77,0,0,0,4.71,14,90,90,0,0,1,15.73,47.68c.36,8.42,2.5,16.75,3.53,25.16,1.88,15.24,3.44,30.52,5.32,45.75,1.34,10.91,3.48,21.62,9.7,32.23.28-4.72.84-8.49.68-12.24-1-24.08-2.16-48.16-3.26-72.24-.52-11.23-1.34-22.46-1.46-33.7-.32-31.23-1.11-62.48-.22-93.69.6-21.16,3.42-42.28,5.89-63.34.84-7.21,4.14-14.1,5.38-21.29a100.78,100.78,0,0,1,11.15-31.31c5.35-9.84,9.76-20.2,14.77-30.24a57.7,57.7,0,0,1,6.22-10.2c9-11.32,16.6-23.4,21.83-36.92.39-1,.92-2,1.39-3l1,.26c-1,4.21-1.78,8.52-3.14,12.61-1.49,4.49-3.66,8.74-5.32,13.18a24.05,24.05,0,0,0-.74,5c1.78,0,3.7.52,5.33,0,4.3-1.27,8.44-3.06,12.71-4.44,2.53-.83,5.18-1.28,7.77-1.9l.55,1.12a23.15,23.15,0,0,1-3.55,2.5c-5.77,2.67-11.46,5.62-17.45,7.69C813.6,228.6,807.54,235,803,243.18c-7.28,13.05-12.06,27.1-16.41,41.3-1.71,5.59-2.86,11.36-4.17,17.07a13.06,13.06,0,0,0-.22,4.09c.07.71.73,1.84,1.25,1.91a2.5,2.5,0,0,0,2-1.2,10.74,10.74,0,0,0,1.36-4.22c.35-7.22,3.27-13.54,6.76-19.63,6.89-12,15.05-23,25.76-31.89,3.19-2.63,7.22-4.27,10.91-6.26,2.63-1.42,5.79-2.16,8-4.06,7.37-6.47,16.25-7.94,25.45-8.31,22.8-.92,41.86-10.12,58.42-25.43,7.65-7.08,12.48-15.78,16.23-25.28,5-12.56,10.06-25.23,10.83-38.76.47-8.18-1-16.64-2.73-24.75a175.94,175.94,0,0,0-10.64-34,623.95,623.95,0,0,0-670,29C266.48,114.61,267.12,116.47,267.66,118.36Zm562.53,51.89,1.92.41-3.18,11.54-1.74-.46Q828.71,176,830.19,170.25Z"/><path class="cls-1" d="M251.66,791.62l1.34-.35c0-14.55-.1-29.1-2.35-43.57a5.43,5.43,0,0,0-1.4,3.52c.18,12,.39,23.9.76,35.84.05,1.58,1.07,3.08,1.65,4.6Z"/><path class="cls-1" d="M488,1000.8c-5.63,6.69-11.49,13.11-17.2,19.69-.93,1.1-1.65,2.35-3,4.35,9.68-4.5,35.91-33.23,36-40.28-3,2.07-5.65,3.31-7.46,5.31C493.27,993.27,490.93,997.3,488,1000.8Z"/><path class="cls-1" d="M480.93,1001.14l-.93-1-9.61,10.19,1,.89C476.3,1009.53,479.15,1005.85,480.93,1001.14Z"/><polygon class="cls-1" points="652.99 992.96 653.93 993.84 659.44 986.96 658.09 985.96 652.99 992.96"/><path class="cls-1" d="M930.65,229.64c-3.44,4-7.14,7.69-10.61,11.62a33,33,0,0,0-2.71,4.16l.67,1c1.71-.39,3.6-.45,5.1-1.24a47.79,47.79,0,0,0,9.19-5.7c23-19.78,41.18-42.75,47.79-73.24,3.23-14.88,6.14-29.82,9.71-44.61.19-.78.39-1.55.58-2.32Q966.61,102,941.22,86.92q7.1,13.14,14.15,26.35a6.52,6.52,0,0,1,.59,2.86q.84,32.61,1.59,65.2A8,8,0,0,1,957,185C949.48,200.6,942.16,216.37,930.65,229.64Z"/><path class="cls-1" d="M637,999.85a36.39,36.39,0,0,0-4,3.45c-.05.05.84,1.05,1.85,2.28,1.49-1.88,2.57-3.24,3.66-4.59C638,1000.58,637.11,999.74,637,999.85Z"/><path class="cls-1" d="M995.58,123.15a378.24,378.24,0,0,0-3.32,40.92,81.8,81.8,0,0,0,5.82,31.83c9,23.14,17.15,46.61,28.9,68.56,6.77,12.65,8.62,26.27,8,40.27-.93,22.83-1.86,45.68-3.64,68.45a228.25,228.25,0,0,0,3.63,60c1.9,10.17,3.67,20.38,5.6,30.55a103.31,103.31,0,0,0,10.7,29.43c11.36,21.22,19,43.65,21.93,67.59.3,2.48.53,5,.78,7.45a14.32,14.32,0,0,1-.18,1.84,31.48,31.48,0,0,1-5.79-14.64c-1.71-13.64-7.75-25.7-13.28-38a15,15,0,0,0-3.48-4.79c4.48,32.89,3.72,65.8,2.77,98.68s-1.79,65.68-7.37,98.13h-1.45c0-2.16-.13-4.33,0-6.48,1.44-20.92,3-41.83,4.37-62.75a208.43,208.43,0,0,0,.68-22.07q-1.23-30.89-3.16-61.74a153.8,153.8,0,0,0-7.89-38.78c-3.72-11.24-7-22.65-10.52-33.94a56.56,56.56,0,0,0-3.12-6.81l-1.53.14a40.32,40.32,0,0,0-1.53,5.73c-1,9.18-1.89,18.37-2.84,27.55a3,3,0,0,1-1.39,2.11c-.19-1.95-.42-3.9-.55-5.85-.14-2.12-.22-4.25-.26-6.37-.29-23.36-.23-46.73-.91-70.08q-2-66.87-4.68-133.7c-.37-9.16-2.32-18.26-3.64-27.37-.17-1.17-.92-2.25-1.84-4.41-1.25,4.92-2.25,8.83-3.25,12.74h-1.53a45,45,0,0,1-1.45-6.38c-.62-8-.44-16-1.67-23.9-2-12.88-8.31-24.21-14.79-35.35-1.73-3-3.61-1.31-4.32.68-2,5.73-4.64,11.5-5.28,17.44-1.38,12.89-1.83,25.89-2.39,38.86-.64,14.72-1,29.45-1.45,44.18a2.35,2.35,0,0,1-1.17,2c-.38-2.81-.92-5.6-1.12-8.41-1.08-15.57-2-31.16-3.18-46.72-.57-7.15-.78-14.45-4.63-21.86-2.06,4.29-4.16,7.9-5.59,11.77-8.67,23.51-14.23,47.45-11.69,72.88,2.1,21.12-.26,42.06-3.41,63-1.68,11.22-.64,22.89-.44,34.35.15,8.86,1.39,17.71,1.23,26.55-.11,6.4-2,12.75-2.63,19.16a96.7,96.7,0,0,0,1.78,31,34.83,34.83,0,0,0,1.92,5l1.21.19c1.08-1.83,2.59-3.53,3.17-5.51,3.76-12.78,8.09-25.47,10.76-38.5,4.79-23.33,8.62-46.87,12.64-70.36.42-2.47-.55-5.17-.88-7.77-2.75.73-5.8.94-8.17,2.32-2.85,1.66-5.19,4.24-7.6,6.58-2.07,2-2.36,4.19-.41,6.64a34.12,34.12,0,0,1,2.73,5c-1.2.22-1.73.49-2.1.35-7.54-3-9.85-11.5-4.61-17.59,5.56-6.47,12.36-11.52,20.65-13.63,10.58-2.69,16.13-9.42,18.73-19.63,3.81-14.91,5.59-29.65-.6-44.43-1.43-3.41-2-7.2-2.78-10.86-1.44-6.76-.73-12.38,2.72-20.41-.36,16.88,7.76,30.77,9.85,46,2.34,17,1.47,34.16.31,51.24a17.46,17.46,0,0,1-.94,3.47c-5.27-1.37-6.94-1.14-8.59,3.84a218.13,218.13,0,0,0-7.16,27c-1.54,7.94-2,16.1-2.61,24.19-.44,6.06.36,6.7,6.39,6.83,6.28.13,11.12,2.9,14.12,8.31,1.15,2.07,1.18,4.77,1.73,7.18l-1.32.72c-1.84-1.56-3.66-3.16-5.54-4.68-4-3.2-7-3.05-9.11,1.52a234,234,0,0,0-9.19,22.86,322.33,322.33,0,0,0-17.44,93.88,67.9,67.9,0,0,1-1.6,12.77c-.66-6.61-1.58-13.22-1.91-19.85s-.07-13.37-.07-19.62c-.55,1.28-1.46,3.22-2.21,5.23-8.55,23-12.32,47-13.63,71.43-1.19,22.28.54,44.4,2.58,66.57a93.73,93.73,0,0,1-1.46,26c-2.38,12.48-4,24.94-3.2,37.58.94,15.57,2.35,31.12,3.62,46.67a26,26,0,0,0,1.2,5.85,11.35,11.35,0,0,0,2.07,2.75c.92-.76,2.36-1.36,2.66-2.31,1.21-3.78,2.64-7.63,2.93-11.53,1-13.69,1.65-27.42,2.36-41.13.78-15.08,1.22-30.19,2.34-45.25.61-8.13,4.17-15.49,8.87-22.4a23.67,23.67,0,0,1-.54,3.32c-4,13.59-4.08,27.63-4.58,41.59-.92,26-1.5,51.94-2.36,77.91-.17,5.1-.88,10.19-1.53,15.27-1.07,8.34,4.22,13.15,9.8,17.72,1.88,1.53,4,.9,5-1.32a28.09,28.09,0,0,0,2.31-7.08c3-19.09,9.2-37.29,15.48-55.43a132.18,132.18,0,0,0,7.57-47c-.27-11.24.22-22.48.38-33.73,0-.8.11-1.6.23-3.32L997,694l1.15-.13c4.36-14.85,4.73-30.26,4.83-45.58s-.87-30.56-1-46c1.88,8.45,4.32,16.82,5.53,25.37a393.59,393.59,0,0,1,3,76.64c-1.41,26.06-3.38,52.09-4.64,78.15-.89,18.47-1.18,37-1.36,55.45,0,5.26,1.24,10.53,1.93,15.85-2.88-1-3.74-3.67-4-6.33-1.1-11.17-2.22-22.35-2.86-33.56-.43-7.56-.08-15.17-.08-22.76l-1.64-.08c-1.73,11.94-3.56,23.86-5.16,35.81-1.4,10.39-2.18,20.87-3.91,31.19-1.06,6.34-3.87,12.39-5,18.72-2.2,12,.25,23.86,2.56,35.65,3,15.54,5.38,31.23.31,46.66a120.87,120.87,0,0,1-10.85,23.29,132.82,132.82,0,0,0-11.61,25.55c-1.88,5.63-4.68,10.95-7,16.43-1.92,4.46-3.68,9-5.71,13.4-1.18,2.58-2.75,5-4.14,7.46l-1.43-.49c0-1.34-.37-2.8.05-4,7.08-20.37,13.28-41.14,21.71-61,7.78-18.28,8.52-36.22,1.82-54.25-6.55-17.62-14.61-34.68-22.09-51.95-2.23-5.15-5-10.06-7-15.29-2.4-6.22-6.58-10.8-11.76-14.67-3.9-2.91-7.94-5.65-11.72-8.71a5.35,5.35,0,0,1-1.92-3.89c5.27-42.72,3.85-85.58,2.07-128.38-2.7-64.68-3.37-129.38-3.08-194.1.07-14.23-.76-28.47-1.21-42.7a81.4,81.4,0,0,1,2.69-24.37c2.54-9.31,3.5-19.14,4.36-28.81A984.15,984.15,0,0,0,924,311.09c-.08-4.86-.56-9.72-.69-14.58-.16-6.52-3.11-11.75-7.35-16.37a51.7,51.7,0,0,0-24.86-15.3,39,39,0,0,1-12.52-5.67c-8.19-6-16.85-6.83-25.9-3.41a100.84,100.84,0,0,0-44,31.87c-3.25,4.09-5,9.43-7.22,14.26-.52,1.12-.4,2.54-.74,5l32.17-20.12.78.63a15.69,15.69,0,0,1-1.88,3.55c-4.34,4.82-8.69,9.64-13.24,14.27-9.34,9.52-17.41,19.93-23,32.12-3,6.66-5.18,13.49-3.84,21,.29,1.68-.23,3.51-.38,5.27l-1.11.38-5.76-5c-.43,2.81-.71,5.64-.86,8.48.07,34.23,0,68.46.4,102.68.31,27.23,1.15,54.46,1.88,81.68C786,560,787,568,787.05,576.15c.31,29.79-1.52,59.45-7.41,88.68-2.13,10.59-6.6,20.69-9,31.24-6.32,28.17-8.88,56.72-6.49,85.58a76,76,0,0,0,3,16.52c1.32,4.13,4.14,7.79,6.38,11.61,1.13,1.92,2.45,3.73,3,6-9.82-6-12.4-16.91-18.13-26.56,0,15.65-.78,30.59.29,45.4.62,8.51,3.48,17.11,6.65,25.14,4.67,11.81,13.37,20.64,23.91,27.64l9,6-.39.84a39.26,39.26,0,0,1-3.91-1.35c-24.44-11.47-39-30.77-44.79-56.89a140.24,140.24,0,0,1-3.22-40.49c1.84-26.53,2.38-53.16,4-79.71.56-9.42,3-18.7,3.89-28.12a156.63,156.63,0,0,0-1.77-44.4,45.82,45.82,0,0,0-2.23-6.44l-1.68.17c-.08,2.53-.13,5.06-.24,7.59-.37,8.32-.72,16.63-1.18,24.94a6.62,6.62,0,0,1-1.82,3.83c-.18-.72-.33-1.44-.44-2.17-1.88-19.64-3.1-39.37-5.79-58.89-2.9-21-7.28-41.77-10.82-62.67-2.58-15.25-4.48-30.63-7.36-45.82-1.81-9.51-4.71-18.84-7.47-28.14a25.46,25.46,0,0,0-4.4-7.75c-1.88-2.47-4.16-2.1-4.9.91a59,59,0,0,0-1.77,12.55c-.78,38.86-1.42,77.84,2.61,116.47,4.13,39.64,1.27,79.12,1.31,118.66.06,45.22-.79,90.45-1.18,135.67a71.17,71.17,0,0,0,4.83,27.49,52.74,52.74,0,0,1,1.65,5.81l-.93.43c-1-1.22-2-2.4-2.9-3.66-7-9.54-10.2-20.16-10.66-32.07-1.76-45.93-4.85-91.83-5.67-137.78-.5-27.81-3.57-55.27-6.11-82.84-2.21-24.13-4.18-48.27-6.27-72.41q-1.86-21.64-3.78-43.29a6,6,0,0,0-1.5-3.44,26.69,26.69,0,0,0-1.82,4.47,171.23,171.23,0,0,0-3.75,45.77c.27,4.73.7,9.45.85,14.19A118.68,118.68,0,0,1,662.11,538c-.32-22,3.31-43.57,9.46-64.61A154.52,154.52,0,0,0,678,428c-.15-13.85-.32-27.72-.9-41.56-.34-7.9-3.55-15-8.08-21.46-3.56-5.08-6.74-4.9-10,.4a30.8,30.8,0,0,0-2.79,5.71c-5.7,16.36-11.54,32.68-16.82,49.18-1.72,5.39-1.92,11.26-2.8,16.92-.14.92-.23,1.86-.41,3.38-2.79-3-3.78-6-3.26-9.24,1.44-8.85,2.91-17.72,4.92-26.45,4-17.43,7.54-34.9,7.69-52.88.17-21.39-5.24-41-18.69-58-2-2.52-3.8-5.21-6-8.2-11.36,12.77-22.29,25.54-28,42.07,8-4,13.1-11.2,19.44-17l.88.55c-1.5,3.32-2.54,7-4.59,9.9-4.53,6.53-5.17,13.91-5.65,21.4-1.24,19.62.14,39.09,1.93,58.68,2,21.35,1.79,42.91,2.18,64.38.36,20,.12,40,.4,60a161.8,161.8,0,0,0,1.61,18.65A47.55,47.55,0,0,0,620,569.09a54.23,54.23,0,0,1,12.73,33.31,451.56,451.56,0,0,1-2,67,1.43,1.43,0,0,1-.76,1.08c-.12-1.6-.27-3.21-.35-4.81s-.19-3.5-.19-5.24c0-18.92-1.47-37.7-6.39-56A49.31,49.31,0,0,0,618.2,594a4,4,0,0,0-3.34-1.69c-1,.22-1.87,1.82-2.3,3a14.67,14.67,0,0,0-.62,4.42c-1.09,49.21-2.33,98.42-3.11,147.64-.21,13.58.9,27.18,1.5,40.78a12.94,12.94,0,0,0,6.92,11.29c5,2.78,10,5.54,15.21,8a15.22,15.22,0,0,0,6.56,1.15c9-.2,12.16-3.59,12.76-12.45,1.45-21.67,3.34-43.31,4.55-65,2-36.54,4.28-73.11,1.82-109.71-1-14.81-3.12-29.55-4.68-44.32-.3-2.88-.33-5.78-.49-8.67l1.26-.26a25.21,25.21,0,0,1,1.83,4.91c2.08,13.06,4.62,26.08,5.91,39.22q4.2,42.87,7.21,85.85c1,14.68.62,29.46.86,44.19a37.59,37.59,0,0,0,.22,6c.24,1.24,1.29,2.34,2,3.5a35.13,35.13,0,0,0,2-3.26,4.2,4.2,0,0,0,.31-1.14c0-.41,0-.82,0-1.22a4.53,4.53,0,0,1,0,1.22c0,6.83.17,13.67,0,20.51-.83,27.09-2.07,54.16-2.55,81.26a170.06,170.06,0,0,0,2.32,28.32c1.06,7,3.64,13.69,5.42,20.56a11.09,11.09,0,0,1-.12,5.83c-1.06-1.86-2.14-3.71-3.18-5.57-3.44-6.19-6.93-12.35-10.28-18.6a25.34,25.34,0,0,1-2.08-5.58c-3.24-12.55-10.23-22.91-18.65-32.47a15.24,15.24,0,0,0-11.51-5.38c-14.7-.41-28.85,1.59-41.85,9.09a35.62,35.62,0,0,0-17.47,22.87c-3,11.81-9.23,21.43-17.94,29.68-7.07,6.71-14.08,13.48-21.13,20.2-.85.81-1.81,1.51-3.56,3a24.4,24.4,0,0,1,1.32-3.74c5.72-9.2,10.38-19.38,17.54-27.31,9.5-10.52,13.71-22.26,14.57-35.87a92.12,92.12,0,0,1,10.2-37.67c5.68-10.71,7.51-22,6.94-34-1.71-36.08-1.09-72.17-.26-108.28.76-32.85.36-65.72.35-98.57,0-6.66-1.74-12.94-4.3-19.21a64.87,64.87,0,0,1-4.13-17.35c-1.74-16.59-1.83-33.17,3.2-49.36a59,59,0,0,1,2.6-6l1.33.26a43.17,43.17,0,0,1-.45,7c-3.51,15.59-1.76,31,1,46.47a29.75,29.75,0,0,0,1.86,5l1.36-.09c.39-3,1-5.91,1.13-8.88.24-5.87.27-11.74.26-17.62q0-50.61-.19-101.2c0-6.86-.4-13.73-.71-20.59-.08-1.84-.49-3.67-.75-5.5l-1.13-.34a41.39,41.39,0,0,0-2.48,6c-2.85,12-5.41,24.09-8.33,36.08-7.3,29.94-8.87,60.45-9.79,91.07-.7,23.59-1.53,47.2-3.21,70.74-.69,9.74-3.87,19.28-5.72,29-4.09,21.31-7.94,42.67-12.09,64-3.43,17.63-8,35.08-10.5,52.82a319.79,319.79,0,0,1-12.85,54.16c-2.87,8.87-3.53,17.84-3.23,27.26s-1.42,18.89-3.43,28.09c-3.75,17.17-8.33,34.16-12.62,51.22a32.5,32.5,0,0,1-1.72,4.35h-1.3c-.74-5-1.57-9.89-2.21-14.85-2-16-2.38-32.37-6.39-47.82-5.8-22.31-5.2-45-8.05-67.51-1.94-15.33-4.77-30.57-7.73-45.74-6.65-34-13.2-68.09-17.83-102.51-1.71-12.66-5.65-25-8.38-37.56-1.32-6.07-3-12.23-3.12-18.37-.47-31.36-.4-62.76,4.36-93.84,2.49-16.25,6.86-32.21,9.74-48.41,1-5.37.25-11.11-.27-16.63-1-10.56-2.51-21.06-3.56-31.61-1.69-17.12-1.82-34.49-6.88-51.1-2.6-8.56-6.25-16.8-9.62-25.11-.8-2-2.39-3.62-3.62-5.41l-1.15.24c-.39,3.38-1,6.75-1.14,10.14-.84,20.72-1.41,41.45-2.4,62.16-1,21.57-2.37,43.13-3.76,64.69a59.27,59.27,0,0,1-2.12,10.62,16,16,0,0,1-2,3.67l-1.28-.1c-.35-1.94-1.06-3.89-1-5.81.24-5.61,1.05-11.2,1.18-16.81.51-21.34,1.51-42.69,1-64-.46-19.7-2.47-39.38-4.09-59-.52-6.32-1.5-12.72-8-16.45-2.71-1.57-5.1-1.76-7.66,0-1.25.83-2.44,1.74-3.73,2.51-14.08,8.39-19.83,20.74-19.09,37.07.73,15.95.51,32,.17,47.95-.21,9.95-1.42,19.88-2.18,29.82h-1c0-1.62.07-3.24,0-4.86-.88-18.33-1.68-36.66-2.75-55-.23-3.94-1.36-7.85-2.3-11.73-.42-1.73-1.42-3.32-2.59-5.94a47.12,47.12,0,0,0-2.69,5c-4.37,11.82-9.2,23.49-12.75,35.55-1.85,6.32-2.16,13.34-1.88,20a411.89,411.89,0,0,0,22.57,116.94,93.37,93.37,0,0,0,4,8.61h1.45c.85-1.77,2.11-3.47,2.47-5.35,1.32-7,2.24-14,3.5-21,3.15-17.55,6.65-35,9.51-52.64a300.07,300.07,0,0,0,3.47-31.2c1.12-19.28,3.81-38.23,9.78-56.64,1-3.22,2.61-6.28,3.93-9.41l1.16.4a68.59,68.59,0,0,1-2.08,8.06c-4.41,11.37-5.29,23.3-6,35.28-.93,16.71-1.39,33.47-3.1,50.09-1,9.87-4.35,19.46-6,29.29-1.08,6.43-.9,13.07-1.47,19.59-.73,8.2-1.86,16.37-2.42,24.58a85.87,85.87,0,0,0,.39,14.16c.15,1.54,1.83,2.92,2.82,4.38,1-1.29,2.39-2.43,3-3.88,4.41-11.24,8.56-22.57,13-33.79a69.24,69.24,0,0,1,5.05-9.17,24.85,24.85,0,0,1,2.5-3l1.27.45c-.38,1.86-.65,3.77-1.17,5.59-3.7,12.8-8.71,25.37-10.89,38.42-3.92,23.49-7.13,47.2-8.72,70.94-1,14.94,1.57,30.11,2.37,45.18.55,10.22.91,20.45,1.15,30.68,0,2.1-.77,4.22-1.19,6.34l-1.7.1c-.53-2.76-1.45-5.51-1.53-8.29-.54-17.29-2.56-34.37-7.65-50.94-2-6.55-5.32-12.73-6.89-19.35-1.78-7.48-5.19-14-9.1-20.37a11.13,11.13,0,0,0-3-3.19c1.52,19.37,4.08,38.55,2.82,57.86l-1.53.27c-.82-3.38-1.8-6.73-2.44-10.14-2.81-15.07-5.06-30.27-8.46-45.21-1.75-7.68-5.31-15-8.46-22.31-1.05-2.41-3.36-4.28-5.09-6.39l-1.16.59a24.7,24.7,0,0,0-.71,5c1.11,15.92.26,32.34,4,47.65,7.91,32.66,7.06,65.69,7.61,98.71.35,20.47-.71,41-.8,61.46-.05,10,.66,20,1.1,29.92a7.1,7.1,0,0,0,1.83,4.2c.63-1.58,1.62-3.12,1.84-4.75,1.34-10,2.72-20,3.66-30.07.53-5.58.2-11.23.31-16.85a24.9,24.9,0,0,1,.7-5.51c3.13,15.79,6.81,31.47,4.82,47.77-.92,7.55-1.59,15.15-1.92,22.75-.26,6,1.21,7.59,7,8.64a106.72,106.72,0,0,0,33.93.73,27.39,27.39,0,0,0,6.12-1.64c6.09-2.39,7.74-6.61,5.07-12.57a6.09,6.09,0,0,0-.86-1.66c-9.16-10.4-9.24-23.33-9.83-36-.32-6.78-.06-13.59-.06-20.39l1.78-.16c.36,1.82.88,3.64,1.07,5.48,1.06,10.17,1.9,20.35,3.15,30.49a16.8,16.8,0,0,0,2.9,6.8c1.58,2.37,3.71,1.88,4.57-.88a14.4,14.4,0,0,0,.66-4.42c-.07-6.49-.17-13-.43-19.47a149.84,149.84,0,0,1,3.9-42.37c1-4.06,3.4-7.75,4.58-11.78a54.11,54.11,0,0,0,2.3-12.41,584.86,584.86,0,0,0-3.4-102.48c-1.61-13-3-26-4.24-39.1a50.13,50.13,0,0,1,3.3-23.15,18.93,18.93,0,0,1,1-1.89c.36,7.5.3,14.46,1.1,21.33,2.18,18.71,4.79,37.37,7.12,56.07q3.72,29.73,7.18,59.49c1.29,11.16,2.45,22.34,3.38,33.54a22.71,22.71,0,0,1-.92,9.48,154.55,154.55,0,0,0-9.1,62.56,83.45,83.45,0,0,0,2.15,12.46,3.94,3.94,0,0,0,2.17,2.68c.74.17,2.18-1,2.74-1.92,6.52-10.8,12.7-21.75,15.41-34.29.26-1.2,1.6-2.17,2.43-3.25.73,1.19,2.2,2.47,2.06,3.54a179.32,179.32,0,0,1-3.42,19.78c-1.14,4.55-3.35,8.85-5.25,13.19-7.77,17.69-9.46,35.51-1.71,53.72,4.09,9.62,4.06,19.09-1.53,28.34-3.76,6.22-3,12.74,1.17,18.31,4.33,5.75,9.49,10.88,14.34,16.24,1.84,2,3.81,3.93,6,6.14-11.41-2.83-21.47-7.34-29.25-16.08-3.71-4.17-5.88-8.79-5.85-14.54,0-6.24-.46-12.48-.62-18.72-.11-4.18-2.12-6.94-5.68-9-7.64-4.43-16.14-5.48-24.58-5.49a196.73,196.73,0,0,0-29.79,2c-10.11,1.54-15.18,7-15.67,17.18a235.37,235.37,0,0,0,.93,34c2.84,29.36,9.24,58.17,15.72,86.86,4.69,20.75,11.56,41,17,62-1.65-1.81-3.61-3.42-4.86-5.46a54,54,0,0,1-4.12-8.78q-10-26.43-19.76-52.88c-1.23-3.29-2.44-6.59-3.66-9.88l-1.24.11a48.2,48.2,0,0,0-1.41,6.3c-2.52,29.53-3.69,59.1-1.63,88.71,1.07,15.18,10.52,24,25.75,24.67a30,30,0,0,1,15.07,5.06q14.52,9.21,29.1,18.32a7.8,7.8,0,0,0,1.39.53l-.63,1c-1.42-.2-3-.1-4.24-.67-6.78-3.07-13.43-6.39-20.21-9.45-4.28-1.92-8.55-4.3-13.07-5.11-9.78-1.76-19.71-2.65-30.18-4,.74,8.65,1.85,16.3,6.84,22.54,5.68,7.11,11.62,14.06,17.86,20.68,12.51,13.27,25.18,26.37,35.52,41.51a99.7,99.7,0,0,1,17.45,47.52,627.13,627.13,0,0,0,367-1.41q1-3.08,2.28-6.11c8.34-20.16,21.57-37,36.22-52.85,8-8.62,15.9-17.28,23.3-26.37,2.72-3.33,4.3-7.8,5.64-12,5.33-16.67,5.74-33.87,4.75-52.18-1.65,3.49-3,6.17-4.21,8.92a63.62,63.62,0,0,1-20.51,25.33,27,27,0,0,1-17,6H825.62l-.07-.91c1.54-.32,3.07-.65,4.61-1,15.94-3.18,26.92-12.24,32.93-27.42,3.21-8.11,6.43-16.25,10.27-24.06,3.55-7.22,5.92-14.65,5.83-22.62-.24-22.21-.58-44.44-1.39-66.64-.2-5.5-3.16-10.89-3.4-16.4a189.71,189.71,0,0,1,1-25c1.84-20.73,2.21-41.38-1.93-61.92-2.28-11.35-8.59-18.55-20.29-20.58-4.55-.79-9-1.89-13.6-2.58a15,15,0,0,0-5.9.24c-3.23.81-6,3-6,6.32,0,2.15,1.81,4.89,3.62,6.33,3.6,2.84,7.85,4.84,11.67,7.43a85.25,85.25,0,0,1,7.91,6.26c4.41,3.82,5.83,8.4,4.8,14.4-2.33,13.58-8.62,24.11-21.2,30.31C823.79,917,813,922.11,802.27,927.28l-.84-1.38c1.77-1.33,3.48-2.75,5.34-4,8.26-5.38,16.64-10.58,24.82-16.08a84.24,84.24,0,0,0,9.86-8,17.74,17.74,0,0,0,5.61-11.55c.6-5.8-1.32-10.66-6.63-13.09-4.23-1.94-9-2.78-13.55-3.91a37.24,37.24,0,0,0-5.59-.52c-12.09-1.21-18.91-8.26-18.81-20.57.08-10.22,1.24-20.44,1.64-30.67.84-21.6.75-43.13-2.35-64.66-1.17-8.1-.38-16.73.92-24.89,2.3-14.47,3.34-28.54,1.56-43.41-2.9-24.25-3.77-48.82-4-73.28-.78-73.45-.86-146.91-1.15-220.37a21.09,21.09,0,0,1,1-6.6c5.67-16.89,10.84-34,17.41-50.52s18.06-29.2,33.36-38.33c7.6-4.53,15-9.42,23-13.35,12.41-6.15,21.19-3.72,29.32,7.44,5.33,7.32,9.58,15.22,11,24.31a11.73,11.73,0,0,1-.61,5.6,20.33,20.33,0,0,1-1.1-2.48c-3-9.78-9.77-16.65-17.65-22.64-4.17-3.18-8.57-3.53-13.39-1.61-12,4.76-21.46,12.95-30.86,21.44-13,11.78-18.52,27.18-22,43.68-.79,3.78-1.42,7.6-2.17,11.39-.61,3.12.85,4.66,3.8,4.4a57.8,57.8,0,0,0,11.4-1.77c7.42-2.2,14.79-4.69,19.94-11.11.72-.89,2-1.29,3.8-1.42a20.76,20.76,0,0,1-2,4c-4.42,5.58-8.82,11.17-13.51,16.52a23,23,0,0,0-5.51,11.61,73.18,73.18,0,0,1-3.86,14c-7.37,18.68-7.81,38-5.59,57.54.54,4.72,1.11,9.43,1.61,14.15a4.1,4.1,0,0,1-.94,3c-.61-1.52-1.29-3-1.84-4.54-6.16-17.05-6.61-34.75-5.47-52.52.5-7.94,2-15.82,3.06-23.73a10.41,10.41,0,0,0,.11-3C831.09,394,829.37,393,828,395c-2,2.71-4.11,5.92-4.44,9.09a313.81,313.81,0,0,0-2,32.14c0,23.85.41,47.7,1,71.54.31,12,4.29,22.76,13,31.4a9.82,9.82,0,0,1,2.89,7.69c-.12,26.36-.08,52.72-.09,79.08v4.47l-.85.11-10.53-60.15h-1.77a35.73,35.73,0,0,0-1.13,5.72c-.58,17.35-1.43,34.7-1.46,52.06,0,27.85.15,55.72.9,83.56.32,11.93,2.52,23.8,3.46,35.72,1.23,15.56,2,31.15,3,46.73.8,12.19,2.56,13.52,14.58,11.09,1.7-.34,3.42-.63,6-1.1L841.93,814l.29.81c4-.59,7.92-1.11,11.86-1.78,4.18-.7,8.38-1.39,12.5-2.35,5.64-1.31,6.64-5,3-9.29a5.72,5.72,0,0,1-.77-4.43c1.76-7.27,4.11-14.4,5.66-21.7,2.64-12.39,3.92-24.93,2.07-37.58-1.35-9.29-5-11.48-13.86-8.83-2.44.72-5,1.1-7.47,1.64l-.81-1a20.94,20.94,0,0,1,2.63-4,22.36,22.36,0,0,1,14.13-6.12c1-.09,2,0,3-.15,5.94-.72,7.74-1.93,7.86-7.8.37-20,.31-39.94.41-59.91-5.88-18.17-2.69-36.81-3-55.29-.23-12.19-1.28-24.36-2-36.53l-1.4-.13c-.82,2.07-1.7,4.11-2.45,6.2s-1.58,4.47-2.2,6.75a52.74,52.74,0,0,0-1.55,6.94c-3.06,23.51-6.13,47-9,70.55-1.4,11.38-2.44,22.81-3.65,34.21H856c-.21-1.72-.33-3.46-.37-5.19.55-21.73.94-43.47,1.84-65.18.53-12.83,1.09-25.76,3.08-38.41,3.65-23.27,12.64-44.83,23.73-65.49,7.94-14.78,15.18-29.83,18.72-46.33,1.58-7.41,2.13-15,3.6-22.49.75-3.78,2.53-7.35,3.84-11l1.51.36c-.44,4.35-.82,8.71-1.31,13-1.22,10.79-2.92,21.55-3.57,32.37-.45,7.42.85,14.94.81,22.41-.08,13.6-.87,27.19-.84,40.79q.12,63.33.67,126.66c.16,20,1,40,.85,59.94-.07,8.16-2.11,16.29-3.15,24.45a114.94,114.94,0,0,0-1.12,12.3c-.35,24.86-.71,49.71-.76,74.57,0,16.88.65,33.77,6,50,2.25,6.86,5.34,13.44,7.78,20.24a37.45,37.45,0,0,1,1.95,10.33c-3.29-8.91-10.16-13.48-19.12-17,0,3.08-.48,5.79.08,8.27,3.53,15.82,7.53,31.54,10.87,47.4a140.68,140.68,0,0,1,3.3,24.44c1.27,39.63,5.91,78.91,11.6,118.1.7,4.78,1.88,9.5,2.15,14.69-2-3.53-4.28-6.91-5.87-10.6-4-9.27-4.92-19.24-6.38-29.13-2.53-17.14-5.31-34.26-8.72-51.25a339,339,0,0,1-6-48.24c-.35-6.25-1.81-12.44-2.77-18.66h-1.5a18.78,18.78,0,0,0-1,3.9c-.35,16.48-.83,33-.88,49.44-.09,30.1.38,60.21,0,90.31-.13,9.78-2.15,19.56-3.5,29.31-.68,4.94-3.49,8.58-7.54,11.56a243.34,243.34,0,0,0-46.15,43.78,178.37,178.37,0,0,0-21.26,32.68c249.83-81.29,430.41-316.07,430.41-593C1247,418.61,1148.16,236.81,995.58,123.15Zm-32.32,551V663.52C966.57,666.84,966.57,670,963.26,674.1ZM743.64,693.5c1.4,10.07,1.27,19.56-2,29.41C738.15,718.13,739.56,697.26,743.64,693.5ZM698.72,914.38c.61,2.12,1,3.35,1.62,5.68,1.58-2.29,3-3.8,3.77-5.58,2.67-6,5-12.2,7.71-18.21.75-1.66,2.33-2.95,3.53-4.41l1,.81a9.67,9.67,0,0,1-1.08,2c-2.8,3.27-3.45,7.15-3,11.22.12,1.22.84,3,1.72,3.32s2.63-.53,3.48-1.38c1.9-1.91,3.78-3.41,7.69-2.84-2.26,1.92-3.85,3.4-5.58,4.71-4.07,3.07-8.45,5.8-12.22,9.21a12.56,12.56,0,0,0-3.26,6.64c-.84,4.39-1,8.92-1.49,13.37a37.17,37.17,0,0,1-1,4.15C698.53,938.61,696.46,920,698.72,914.38Zm-20-172.9-1.31-.33c-.56-2.94-.82-5.79,2.1-7.75l1.21.31Q679.7,737.59,678.69,741.48Zm108.7,339.63-1.73-.18a45.12,45.12,0,0,1-.55-4.78,29.72,29.72,0,0,0-4.22-15.32,9.59,9.59,0,0,0-10.3-5.18c-4.21.5-8.44,1-12.67,1.18-5.22.27-7.6-1-8.86-6.08-1.1-4.4-.89-9.11-1.51-13.65a51.09,51.09,0,0,0-1.82-6.76c-2,1.35-4.37,2.34-5.75,4.13a53.65,53.65,0,0,0-5.43,9.37A48,48,0,0,1,720,1062q-11.28,8.34-22.72,16.5a36.3,36.3,0,0,1-4.75,2.48l-.68-.79a24.79,24.79,0,0,1,2.73-3.63c4.23-3.88,8.39-7.86,12.9-11.4,9.07-7.12,16.7-15.49,22.07-25.67a51.68,51.68,0,0,1,23.53-22.71c5.56-2.78,10.72-6.36,16-9.67a14.27,14.27,0,0,0,3-2.75c2.86-3.22,2.27-5.44-2-6.29-9.59-1.88-18.56-1.57-26,6.29A95.06,95.06,0,0,1,730.44,1016c-4.74,3.4-10,4.37-15.36.74a5,5,0,0,0-6.56.42c-4.14,3.6-9.1,5.11-14.39,5.69-3.45.38-5.57,2-6,5.52-.79,6.52-1.56,13.11-2.43,20.52-1.53-12.6-3-24.42-4.53-37A57,57,0,0,0,661,1030c-1.66-4.28-3.09-8.34-4.8-12.28-2-4.57-2.74-4.87-7.41-3-3.47,1.39-6.87,3-10.18,4.69-4.62,2.41-9.2,4.78-11,10.46-.74,2.33-2.9,4.2-4.82,6.12,1.08-9.59,4.27-18.89,2.08-28.82-8.21,9.14-14.53,19.19-16.21,31.94-5.29-11.74-2.48-25.42-9.48-37-3,2.28-5.9,4.58-8.9,6.75-6.13,4.44-12.09,8.95-19.39,11.75-12.08,4.64-19.08,19.36-16.23,32.13.46,2.06.88,4.14,1.24,6.22a12.36,12.36,0,0,1-.16,2.5,20.22,20.22,0,0,1-2.16-2.55c-4.51-8.19-7-16.61-4.51-26.19,2.65-10.33,1.33-11.88-9.15-13.57-7.26-1.17-8.08-.62-9.71,6.56a25.74,25.74,0,0,1-2.37,7.19c.26-4.2.35-8.43.81-12.61a117.89,117.89,0,0,1,2-12.55c.95-4.25,2.25-8.43,3.54-12.59,1.26-4,2.67-7.86,4-11.79l-1.22-.6a55.66,55.66,0,0,0-3.47,5c-3.22,5.92-6.31,11.91-9.46,17.86-5,9.4-13.79,11.66-23.4,12.5,6.43-5.46,16.1-6.55,20.43-15.23-4.17-1.56-7.8-.72-11.28.71a48.57,48.57,0,0,0-18.81,13.88c-4.14,4.92-8.17,9.58-13.58,13.52-10.78,7.82-17.19,18.93-17.55,32.82-.15,6-.48,12-.8,18-.13,2.44-.47,4.86-.8,8.15l-3.16-4c-1.16,11.37-1.62,22.12-6.62,32v-42.38c-3.16,3.27-3.29,8-8.16,9.07a10.17,10.17,0,0,1-.35-2.85c4.94-24,10.17-48,21.51-69.87,10.73-20.8,28.46-33,51.73-36.56,3.94-.59,8.59-.61,10.69,3.41s-.8,7.37-3.14,10.48c-1.75,2.34-3.63,4.58-5.45,6.87l1,1.17c1.55-1,3.55-1.62,4.55-3a109.51,109.51,0,0,0,8.54-13.49c2.78-5.48,3-6,9-5.18,4.39.62,8.07-.85,11.52-3.38,2.46-1.8,5-3.45,7.55-5.17.31.34.63.67.94,1l-13,14.64,1,1.34,18.28-9.55.68,1c-1.88,1.68-3.64,3.52-5.64,5-7,5.17-13.26,11.08-18,18.39a29.84,29.84,0,0,0-3.47,7.41c-1,3.41,1.87,6.12,5.17,4.7a18,18,0,0,0,6.09-4.72,58.85,58.85,0,0,0,5.42-8.06c5-8.15,11.08-15.33,19.82-19.33,4.75-2.18,10.19-3.1,15.42-3.9,3.43-.52,4.44,1.33,3.35,4.69-1.86,5.7-5.72,9.94-10.3,13.51-5.81,4.52-11.89,8.7-17.64,13.29a22.78,22.78,0,0,0-5.55,6.38c-1.65,2.91-.13,4.91,3.07,3.91a28.37,28.37,0,0,0,9.42-4.34c8.62-6.73,17-13.87,25.29-21,4.14-3.54,8-7.38,12.45-10.83-1.77,10.48-3.73,20.73-2.23,32.36a70.64,70.64,0,0,0,5.47-4.74c5.09-5.52,9.74-11.42,15.09-16.64a145.08,145.08,0,0,1,16.84-14.18,20.28,20.28,0,0,1,16.78-3.3c3,.69,4.87,2.5,4.44,5.5a90.37,90.37,0,0,1-2.72,11.57c-1.26,4.59-3.06,9-3.9,13.59-.32,1.78.85,4.84,2.28,5.66,1.63.93,5.13.91,6.41-.25a80.37,80.37,0,0,0,12-13.07c3.8-5.38,6.51-11.49,9.8-17.23,1-1.73,2.36-3.32,3.55-5l.93.34a39.19,39.19,0,0,1-.74,6c-1.86,7-3.84,13.92-6,20.81-1,3.28.43,7.47,4,10.89,2.71,2.6,5.49,2,8.22.39a31.25,31.25,0,0,0,14.94-20.63,146.8,146.8,0,0,1,17-42.13,22.07,22.07,0,0,1,7-7c4.3-2.77,7.12-1,7.52,4.07a31,31,0,0,1-3.63,17c-3.4,6.52-7.44,12.83-10.82,19.23s-6.43,12.91-9.57,19.4a6.71,6.71,0,0,0-.72,2.89c0,1.89.34,3.78.53,5.68,1.81-.55,3.91-.71,5.38-1.71,9-6.3,16-14.56,22.71-23.21a90.31,90.31,0,0,1,7.59-8.75c4.11-4.07,9.18-3.92,14.36-2.57a3.83,3.83,0,0,1,1.27.73c.18.14.24.45.76,1.45a21.75,21.75,0,0,1-3.87.34c-5.69-.66-9.2,2.57-11.94,6.83-2.15,3.35-1.13,5.87,2.77,6.63,2.77.54,5.69.28,8.54.34,5.32.11,6.47,1.36,6.75,6.67a15.5,15.5,0,0,1-4.77,12.54c-2.87,2.72-5.71,5.78-9.12,7.72-7.41,4.21-10.79,20.62-8.41,27.54,1.17,3.48,3.31,5.12,7,4.67a45.75,45.75,0,0,0,4.83-.55c6.5-1.52,11.53.93,15.59,5.78a28.55,28.55,0,0,1,6.94,18.2C789.11,1076.66,788,1078.89,787.39,1081.11Z"/><path class="cls-1" d="M635.65,1011.21c5.37-2,6.81-3.14,6.78-6.59l-7.42,5.86Z"/><path class="cls-1" d="M639,990.45a2.65,2.65,0,0,0-.23,2.54,2.89,2.89,0,0,0,2.65.44,32.72,32.72,0,0,0,15.12-14.27A40.65,40.65,0,0,0,639,990.45Z"/></g></g></svg>