<svg xmlns="http://www.w3.org/2000/svg" viewBox="0 0 291.62 370"><defs><style>.cls-1{fill:#fff;}</style></defs><title>rp logo</title><g id="Lager_2" data-name="Lager 2"><g id="Lager_1-2" data-name="Lager 1"><path class="cls-1" d="M36.8,9c.9,2.26,2,4.47,2.66,6.8,1.18,4,2.23,8.12,3.1,12.23a58.24,58.24,0,0,0,5.13,14A221.9,221.9,0,0,1,60.14,74,11.39,11.39,0,0,1,58.26,85l-1.33,1.79c-1.75,2.29-3.48,4.6-5.26,6.88a8.5,8.5,0,0,1-1.62,1.66c-.87.66-1.65.42-1.83-.65-.34-1.92-.49-3.87-.69-5.81-.12-1.12-.2-2.25-.27-3.38-.22-3.1-2.37-4.89-4.54-6.65-.6-.49-1.07,0-1.46.47a9.58,9.58,0,0,0-1.85,6.84,29.27,29.27,0,0,0,2.26,8.57c.2.49.36,1,.54,1.5l-.25.2c-.35-.35-.74-.67-1.05-1a14.82,14.82,0,0,1-2.66-13.7,34.28,34.28,0,0,1,1.36-4.35c1-2.38,2.32-2.75,4.52-1.43.73.44,1.44.89,2.15,1.33l.43-.16a9.69,9.69,0,0,0,0-2.8C45.9,71.9,45,69.54,44,67.21a3,3,0,0,0-1.5-1.3c-2.05-1-3.13-4.3-2.15-6.9.83-2.2,2.52-3.34,4.46-2.95a4.45,4.45,0,0,1,1.57.71c.22.15.26.58.37.89a4.07,4.07,0,0,1-.83.22,3.78,3.78,0,0,1-.8-.16,2.19,2.19,0,0,0-2.72,1,2.69,2.69,0,0,0,.14,3.45,4.91,4.91,0,0,0,.9.92c3.83,2.74,5.33,6.77,5.9,11.16.51,4,.67,7.93,1,11.9.06.8.1,1.59.15,2.39l.39.12c1.62-3,3.36-5.87,4.8-8.92A6.14,6.14,0,0,0,56,75.86c-1.74-6.47-3.49-13-5.65-19.28A39.74,39.74,0,0,0,46,48.51c-1.11-1.76-2-1.75-3.23,0a22.66,22.66,0,0,0-3,5.13c-1.79,4.69-3.51,9.43-4.9,14.25-.94,3.24-1,6.74-1.92,10-2.2,7.6-1.09,15.08.32,22.58a6.81,6.81,0,0,0,1.47,2.83c.28.35,1.16.33,1.76.29a2.53,2.53,0,0,0,1.12-.61A19.58,19.58,0,0,1,48.25,99.2c.77-.06,1.54-.23,2.32-.29a5.32,5.32,0,0,0,4.18-2.45c1.92-2.94,4-5.8,5.67-8.87A166.8,166.8,0,0,1,73.14,67.53c.41-.55.77-1.16,1.24-1.87-2.58-.67-5-1.18-7.5-.43a3.35,3.35,0,0,0-2.51,3.43c0,1.51.38,3,.55,4.52a7.07,7.07,0,0,1-.11,1.28l-.57.1A23.24,23.24,0,0,1,63,71.65a85.73,85.73,0,0,0-5.7-15.45c-2.4-4.86-4.73-9.76-7.07-14.65a4.22,4.22,0,0,1-.51-1.65c-.06-5.12-.26-10.24-.05-15.34.24-5.53,2.61-10.31,6.15-14.51a7.88,7.88,0,0,1,.91-.8l.29.19a13.44,13.44,0,0,1-.65,1.67c-6.32,11-5.63,22.23-1.19,33.6a31.48,31.48,0,0,0,5.13,9,15.15,15.15,0,0,0,10.4,5.68A71.39,71.39,0,0,0,90,58.85c1.56-.27,3.08-.77,5-1.26-1.1,1-2,1.76-2.8,2.59a4.13,4.13,0,0,0-.54,1.2,3.16,3.16,0,0,0,1.17.36c2.1-.18,4.18-.52,6.28-.64,4.63-.25,9.27-.4,13.91-.4-5.36.75-10.78,1.06-16,3.17.92.78,1.72,1.55,2.61,2.2a13.12,13.12,0,0,1,5,7.18c1.74,6.27,3.5,12.55,5.14,18.85a31.22,31.22,0,0,0,8.77,15.46c.71.66,1.34,1.41,2,2.13a8.46,8.46,0,0,1,.55.9c-.65-.27-1-.38-1.36-.56a21.45,21.45,0,0,1-7.82-7.58c-3-4.64-4.77-9.79-6.6-15-1.33-3.78-2.88-7.49-4.45-11.19-1.5-3.52-4.58-5.37-7.72-7.08l-.33.19a18.94,18.94,0,0,0,.7,2.25A72,72,0,0,1,98,85.51c2,9.2,3.69,18.47,3.53,27.93-.11,6.6-.72,13.19-.89,19.78-.19,7-.14,14.06-.15,21.08a9.6,9.6,0,0,0,.48,2.64,4.49,4.49,0,0,0,.83,1.17c.38-.3.89-.52,1.13-.91a17.11,17.11,0,0,0,1.33-2.59,45.5,45.5,0,0,0,3.25-14.92,6.13,6.13,0,0,1,.14-1.13c.24,4.72.48,9.41-1,14a30.93,30.93,0,0,0-1.16,11.95c.57,7.5,1.09,15,2.09,22.49,1.12,8.31,2.74,16.55,4.16,24.81a15.23,15.23,0,0,0,.65,2l.39,0a7.48,7.48,0,0,0,.65-1.52c.72-3.86,1.42-7.74,2.06-11.62.51-3.08.91-6.17,1.43-9.25.15-.87.6-1.69.82-2.55a20.65,20.65,0,0,0,1-4.65A169.78,169.78,0,0,0,117,160.5c-.34-2.65-.21-5.37-.29-8.06a.77.77,0,0,1,.29-.63q1.54,11.91,3.08,23.83h.18c.25-2.81.43-5.62.75-8.42.47-4.07,1.09-8.12,1.53-12.2.35-3.18.38-6.4.81-9.56.48-3.43,1.36-6.81,1.89-10.24.5-3.19.7-6.43,1.16-9.64a246.81,246.81,0,0,1,7.11-33c1.24-4.27,2.27-8.6,3.51-12.87a39.22,39.22,0,0,1,2.08-5.33c1.53-3.38,2.08-7,2.85-10.59,1.29-6,2.88-11.89,4.36-17.83a8.08,8.08,0,0,1,.43-1.16l.33.05c-.12,1.08-.2,2.17-.35,3.24-.46,3.17-1,6.32-1.38,9.5a22.8,22.8,0,0,0,.07,5.35c.23,1.7,1.25,2,2.37.77a106.59,106.59,0,0,0,7.47-9.13,75.9,75.9,0,0,1,9.61-11.32c.42-.4.88-.77,1.34-1.13a.94.94,0,0,1,.81-.13c-.61.75-1.18,1.55-1.85,2.23a34.22,34.22,0,0,0-7,10.71,16.64,16.64,0,0,0-1,10.64c1.21,5.18,3.19,10,6.86,13.9a12,12,0,0,0,2.88,2.16c2.08,1.17,3.37,1.05,5.08-.63a34.7,34.7,0,0,0,3.21-4c1.45-1.92,2.78-3.94,4.28-5.82C182.8,67,186.24,62.93,188,57.8a63.39,63.39,0,0,0,2.71-13.28c.21-1.82.38-3.65.58-5.54.1.11.22.18.22.25.34,7.18.28,14.34-2.72,21.06-1.59,3.55-3.53,6.95-5.41,10.36q-2.48,4.45-5.17,8.78a19,19,0,0,0-2.83,9.88,29.77,29.77,0,0,0,.89,9.17,7.79,7.79,0,0,0,1.23,1.88,6.78,6.78,0,0,0,.95-1.85c.81-6.25,3.9-11.34,7.75-16.14,1.95-2.43,3.56-5.12,5.33-7.69.21-.3.43-.59.65-.89l.3.1a10.72,10.72,0,0,1-.28,1.5,25.82,25.82,0,0,1-4.85,8.75A20.77,20.77,0,0,0,182.28,98c-.07,5.34,0,10.69,0,16a7.7,7.7,0,0,0,1.47,4.37,28.14,28.14,0,0,1,4.92,14.9c.11,2.64.78,5.24,1.1,7.87.59,4.77,1.08,9.54,1.66,14.31a25,25,0,0,0,3,10.07c.09-1.47.26-2.65.21-3.82-.31-7.53-.67-15.06-1-22.59-.16-3.51-.42-7-.46-10.54-.1-9.76-.34-19.54-.06-29.3.18-6.61,1.07-13.22,1.84-19.81.26-2.25,1.29-4.4,1.68-6.65a31.44,31.44,0,0,1,3.49-9.75c1.68-3.08,3.06-6.32,4.62-9.46a18.07,18.07,0,0,1,2-3.18,44.41,44.41,0,0,0,6.82-11.55A9.72,9.72,0,0,1,214,38l.31.08c-.32,1.32-.55,2.66-1,3.94s-1.14,2.74-1.66,4.12a7.44,7.44,0,0,0-.23,1.57,5.78,5.78,0,0,0,1.66,0c1.35-.39,2.64-1,4-1.39.79-.25,1.62-.39,2.43-.59l.17.35a6.77,6.77,0,0,1-1.11.78c-1.81.84-3.59,1.76-5.46,2.41a11.24,11.24,0,0,0-6.21,5.56,65.3,65.3,0,0,0-5.13,12.91c-.54,1.75-.9,3.56-1.31,5.34a4.24,4.24,0,0,0-.07,1.28c0,.23.23.58.4.6a.8.8,0,0,0,.63-.37,3.4,3.4,0,0,0,.42-1.32,13.55,13.55,0,0,1,2.12-6.14,35.62,35.62,0,0,1,8-10,19.84,19.84,0,0,1,3.42-2A13.77,13.77,0,0,0,217.88,54c2.3-2,5.08-2.49,8-2.6,7.13-.29,13.09-3.17,18.26-8a20.72,20.72,0,0,0,5.08-7.91c1.55-3.93,3.15-7.89,3.39-12.12a30.38,30.38,0,0,0-.86-7.74A55,55,0,0,0,247,2a18.57,18.57,0,0,1-.69-1.8l.28-.16a7.26,7.26,0,0,1,.83,1q3.57,6.59,7.1,13.18a2.11,2.11,0,0,1,.19.9q.26,10.2.49,20.39a2.51,2.51,0,0,1-.17,1.13c-2.35,4.89-4.64,9.83-8.24,14-1.07,1.23-2.23,2.4-3.32,3.63a10.72,10.72,0,0,0-.84,1.3l.21.31a6.37,6.37,0,0,0,1.59-.38,15.93,15.93,0,0,0,2.88-1.78c7.18-6.19,12.87-13.37,14.94-22.91,1-4.65,1.92-9.32,3-13.95,1-4.24,2.26-8.43,3.43-12.63a7.33,7.33,0,0,1,.69-1.37l.35.13c-.35,1.73-.68,3.47-1.06,5.2a118.37,118.37,0,0,0-2.63,22,25.52,25.52,0,0,0,1.82,9.95c2.81,7.24,5.36,14.58,9,21.44a24,24,0,0,1,2.52,12.59c-.29,7.14-.58,14.29-1.14,21.41a71.49,71.49,0,0,0,1.14,18.76c.59,3.18,1.15,6.37,1.75,9.56a32.26,32.26,0,0,0,3.35,9.2,60,60,0,0,1,6.85,21.14c.1.77.17,1.55.25,2.33a4,4,0,0,1-.06.57,9.85,9.85,0,0,1-1.81-4.58c-.53-4.26-2.42-8-4.15-11.87a4.75,4.75,0,0,0-1.09-1.5c1.4,10.29,1.16,20.58.87,30.86s-.56,20.54-2.31,30.69l-.45,0c0-.67,0-1.35,0-2,.46-6.55.94-13.08,1.37-19.63a66.18,66.18,0,0,0,.21-6.9q-.37-9.66-1-19.31a48,48,0,0,0-2.47-12.12c-1.16-3.52-2.17-7.08-3.29-10.62a19.3,19.3,0,0,0-1-2.12l-.47,0a11.56,11.56,0,0,0-.48,1.79c-.32,2.87-.59,5.74-.89,8.61a1,1,0,0,1-.43.67c-.06-.61-.14-1.22-.18-1.83s-.07-1.33-.08-2c-.09-7.31-.07-14.62-.28-21.92q-.62-20.91-1.47-41.81a80.61,80.61,0,0,0-1.14-8.56,7.19,7.19,0,0,0-.57-1.38c-.39,1.54-.71,2.77-1,4H269a12.73,12.73,0,0,1-.46-2c-.19-2.49-.14-5-.52-7.47-.63-4-2.6-7.58-4.62-11.06-.55-.93-1.14-.41-1.36.21a25.19,25.19,0,0,0-1.65,5.46c-.43,4-.57,8.09-.75,12.15-.19,4.6-.3,9.21-.45,13.81a.73.73,0,0,1-.36.62c-.12-.87-.29-1.75-.35-2.63-.34-4.87-.61-9.74-1-14.61-.18-2.23-.24-4.52-1.45-6.83-.64,1.34-1.3,2.47-1.74,3.68-2.72,7.35-4.45,14.84-3.66,22.79.66,6.6-.08,13.15-1.07,19.71-.52,3.51-.2,7.16-.14,10.74.05,2.77.44,5.54.39,8.31,0,2-.61,4-.82,6a30.17,30.17,0,0,0,.55,9.66,11.52,11.52,0,0,0,.6,1.57l.38.06a8.05,8.05,0,0,0,1-1.72c1.18-4,2.53-8,3.37-12,1.5-7.3,2.69-14.66,3.95-22a8.93,8.93,0,0,0-.27-2.43,10.52,10.52,0,0,0-2.56.72,13.59,13.59,0,0,0-2.38,2.06,1.39,1.39,0,0,0-.12,2.08,11.81,11.81,0,0,1,.85,1.57c-.37.07-.54.16-.66.11a3.39,3.39,0,0,1-1.44-5.5,12.75,12.75,0,0,1,6.46-4.26c3.31-.84,5-3,5.86-6.14,1.19-4.66,1.75-9.27-.19-13.89a18.43,18.43,0,0,1-.87-3.4,9.66,9.66,0,0,1,.85-6.38c-.11,5.28,2.43,9.62,3.08,14.39a78.69,78.69,0,0,1,.1,16,6.09,6.09,0,0,1-.3,1.09c-1.64-.43-2.17-.36-2.68,1.2a66.83,66.83,0,0,0-2.24,8.44,65.68,65.68,0,0,0-.82,7.56c-.13,1.9.11,2.1,2,2.14a4.84,4.84,0,0,1,4.41,2.6,8.55,8.55,0,0,1,.55,2.24l-.42.23c-.57-.49-1.14-1-1.73-1.47-1.24-1-2.17-1-2.85.48a72.53,72.53,0,0,0-2.87,7.15,100.87,100.87,0,0,0-5.46,29.35,22.08,22.08,0,0,1-.49,4c-.21-2.07-.5-4.14-.6-6.21s0-4.18,0-6.13c-.16.4-.45,1-.68,1.63a75,75,0,0,0-4.27,22.34,143.27,143.27,0,0,0,.81,20.81,29.26,29.26,0,0,1-.46,8.14,47.93,47.93,0,0,0-1,11.75c.29,4.87.74,9.73,1.13,14.6a7.74,7.74,0,0,0,.38,1.83,3.42,3.42,0,0,0,.65.86c.28-.24.73-.43.83-.73a16.42,16.42,0,0,0,.92-3.6c.32-4.28.51-8.58.73-12.86.25-4.72.38-9.44.73-14.15a14.46,14.46,0,0,1,2.78-7,8.68,8.68,0,0,1-.17,1c-1.24,4.25-1.28,8.64-1.43,13-.29,8.12-.47,16.25-.74,24.37-.05,1.59-.28,3.19-.48,4.77-.33,2.61,1.32,4.12,3.07,5.54a.93.93,0,0,0,1.54-.41,8.82,8.82,0,0,0,.73-2.21,99.91,99.91,0,0,1,4.84-17.33,41.4,41.4,0,0,0,2.36-14.71c-.08-3.51.07-7,.12-10.54,0-.25,0-.5.07-1l1,2.16.37,0c1.36-4.64,1.48-9.46,1.51-14.25s-.28-9.56-.3-14.39c.59,2.64,1.35,5.26,1.73,7.93a123.92,123.92,0,0,1,.94,24c-.44,8.15-1.06,16.29-1.45,24.44-.28,5.77-.37,11.55-.43,17.33a38.35,38.35,0,0,0,.6,5,2.08,2.08,0,0,1-1.25-2c-.34-3.49-.69-7-.89-10.49-.13-2.37,0-4.75,0-7.12l-.52,0c-.54,3.74-1.11,7.47-1.61,11.2-.44,3.25-.68,6.53-1.22,9.76-.33,2-1.21,3.87-1.58,5.85-.68,3.76.08,7.46.8,11.15.95,4.86,1.69,9.76.1,14.59A37.92,37.92,0,0,1,260.9,286a41.11,41.11,0,0,0-3.63,8c-.59,1.76-1.46,3.42-2.2,5.13-.6,1.4-1.15,2.82-1.79,4.2-.37.8-.86,1.55-1.29,2.33l-.45-.16a4,4,0,0,1,0-1.25c2.21-6.37,4.15-12.86,6.79-19.05a22.08,22.08,0,0,0,.56-17c-2-5.51-4.56-10.84-6.9-16.25-.7-1.61-1.58-3.14-2.2-4.78a10.29,10.29,0,0,0-3.68-4.58c-1.22-.91-2.48-1.77-3.67-2.73a1.69,1.69,0,0,1-.6-1.21c1.65-13.36,1.21-26.76.65-40.15-.84-20.23-1-40.46-1-60.7,0-4.45-.24-8.9-.38-13.35a25.63,25.63,0,0,1,.84-7.62,50.25,50.25,0,0,0,1.36-9,308,308,0,0,0,1.31-31.71c0-1.52-.18-3-.22-4.57a7.69,7.69,0,0,0-2.3-5.11,16.16,16.16,0,0,0-7.75-4.8,12.18,12.18,0,0,1-3.91-1.78,8.09,8.09,0,0,0-8.1-1.06,31.47,31.47,0,0,0-13.78,10,21.6,21.6,0,0,0-2.25,4.45,6.62,6.62,0,0,0-.24,1.57l10.06-6.29.25.2a5.35,5.35,0,0,1-.59,1.11c-1.36,1.51-2.72,3-4.14,4.46a35.7,35.7,0,0,0-7.19,10,10.94,10.94,0,0,0-1.2,6.58,6.58,6.58,0,0,1-.12,1.64l-.34.12L201.06,91a23.57,23.57,0,0,0-.27,2.65c0,10.71,0,21.41.12,32.11.1,8.52.36,17,.59,25.54.07,2.54.36,5.07.39,7.61a133.59,133.59,0,0,1-2.32,27.73c-.67,3.31-2.07,6.47-2.81,9.77a88.51,88.51,0,0,0-2,26.76,23.6,23.6,0,0,0,1,5.16,19,19,0,0,0,2,3.64,6.6,6.6,0,0,1,.93,1.88c-3.07-1.86-3.87-5.28-5.67-8.3,0,4.89-.24,9.56.1,14.19a27,27,0,0,0,2.08,7.87,18.77,18.77,0,0,0,7.47,8.64l2.8,1.86-.12.26A12.53,12.53,0,0,1,204,258c-7.65-3.58-12.19-9.62-14-17.79a43.69,43.69,0,0,1-1-12.66c.58-8.3.75-16.62,1.25-24.93.17-2.94.94-5.84,1.21-8.79a48.94,48.94,0,0,0-.55-13.88,15,15,0,0,0-.69-2l-.53.06c0,.79,0,1.58-.08,2.37-.11,2.6-.22,5.2-.37,7.8a2.12,2.12,0,0,1-.56,1.2,5.47,5.47,0,0,1-.14-.68c-.59-6.14-1-12.31-1.81-18.42-.91-6.56-2.28-13.06-3.39-19.59-.8-4.77-1.4-9.58-2.3-14.33a89.76,89.76,0,0,0-2.33-8.8,7.9,7.9,0,0,0-1.38-2.42c-.59-.78-1.3-.66-1.53.28a18,18,0,0,0-.56,3.92c-.24,12.16-.44,24.35.82,36.42,1.29,12.4.4,24.74.41,37.11,0,14.14-.25,28.28-.37,42.42a22.17,22.17,0,0,0,1.51,8.6,18.13,18.13,0,0,1,.52,1.82l-.29.13c-.31-.38-.62-.75-.91-1.14a17.52,17.52,0,0,1-3.33-10c-.56-14.37-1.52-28.72-1.78-43.08-.15-8.7-1.11-17.29-1.91-25.91-.69-7.55-1.3-15.1-2-22.64q-.58-6.78-1.18-13.54a2,2,0,0,0-.47-1.08,8.76,8.76,0,0,0-.57,1.4,53.35,53.35,0,0,0-1.17,14.31c.08,1.48.22,3,.27,4.44a37.08,37.08,0,0,1-2-11.52,68.06,68.06,0,0,1,3-20.21,48.54,48.54,0,0,0,2-14.2c-.05-4.33-.11-8.67-.29-13A12.6,12.6,0,0,0,165,92.89c-1.12-1.59-2.11-1.53-3.12.13A9.78,9.78,0,0,0,161,94.8c-1.78,5.12-3.61,10.22-5.26,15.38a34.34,34.34,0,0,0-.87,5.29c0,.29-.08.58-.13,1.06a3.32,3.32,0,0,1-1-2.89c.45-2.77.91-5.54,1.54-8.27a77,77,0,0,0,2.4-16.54A27.92,27.92,0,0,0,151.8,70.7c-.63-.79-1.19-1.63-1.87-2.56-3.59,4-7,8-8.77,13.16,2.49-1.24,4.09-3.51,6.07-5.32l.28.18a19,19,0,0,1-1.44,3.09c-1.41,2-1.61,4.35-1.76,6.69a118.43,118.43,0,0,0,.6,18.35c.61,6.68.56,13.42.68,20.14.11,6.24,0,12.5.13,18.75a47.77,47.77,0,0,0,.5,5.83,14.86,14.86,0,0,0,3.4,7.72,17,17,0,0,1,4,10.41,142.3,142.3,0,0,1-.62,21,.44.44,0,0,1-.24.34c0-.5-.08-1-.11-1.51s0-1.09-.06-1.63a67.64,67.64,0,0,0-2-17.53,15.23,15.23,0,0,0-1.5-3.26A1.23,1.23,0,0,0,148,164c-.3.06-.58.56-.72.93a4.56,4.56,0,0,0-.19,1.38c-.34,15.39-.73,30.78-1,46.17-.07,4.25.28,8.5.47,12.75a4,4,0,0,0,2.16,3.53c1.57.87,3.14,1.74,4.76,2.49a4.58,4.58,0,0,0,2,.36c2.81-.06,3.8-1.12,4-3.89.45-6.78,1-13.54,1.42-20.32.64-11.43,1.34-22.87.57-34.31-.31-4.63-1-9.24-1.46-13.86-.1-.9-.11-1.81-.16-2.71l.4-.08a8.18,8.18,0,0,1,.57,1.54c.65,4.08,1.45,8.15,1.85,12.26.87,8.93,1.64,17.88,2.25,26.84.31,4.59.2,9.21.27,13.82a11.61,11.61,0,0,0,.07,1.87,3.86,3.86,0,0,0,.62,1.09,9.55,9.55,0,0,0,.62-1,1.41,1.41,0,0,0,.1-.73c0,2.26.06,4.53,0,6.79-.26,8.47-.65,16.94-.8,25.41a52.79,52.79,0,0,0,.73,8.86c.33,2.17,1.14,4.28,1.69,6.43a3.43,3.43,0,0,1,0,1.82l-1-1.74c-1.08-1.94-2.17-3.87-3.21-5.82a8.11,8.11,0,0,1-.66-1.74,24.66,24.66,0,0,0-5.83-10.16,4.78,4.78,0,0,0-3.6-1.68c-4.59-.13-9,.5-13.08,2.84a11.12,11.12,0,0,0-5.46,7.16,19,19,0,0,1-5.61,9.28c-2.22,2.09-4.41,4.21-6.61,6.31-.27.26-.57.47-1.12.92a7.55,7.55,0,0,1,.42-1.17c1.79-2.87,3.24-6.06,5.48-8.53a17.62,17.62,0,0,0,4.56-11.22,28.63,28.63,0,0,1,3.19-11.78,20.06,20.06,0,0,0,2.17-10.63c-.54-11.28-.34-22.57-.08-33.86.23-10.27.11-20.55.1-30.82a15.77,15.77,0,0,0-1.34-6,20.13,20.13,0,0,1-1.29-5.42c-.54-5.19-.57-10.38,1-15.44a19.19,19.19,0,0,1,.81-1.87l.42.08a13.29,13.29,0,0,1-.14,2.19c-1.1,4.87-.55,9.7.32,14.53a10.64,10.64,0,0,0,.58,1.57l.43,0c.12-.93.32-1.85.36-2.78.07-1.83.08-3.67.08-5.51q0-15.81-.06-31.64c0-2.15-.13-4.3-.23-6.44a16.52,16.52,0,0,0-.23-1.72l-.36-.11a13.88,13.88,0,0,0-.77,1.89c-.89,3.76-1.69,7.53-2.61,11.29-2.28,9.35-2.77,18.9-3,28.47-.23,7.38-.48,14.76-1,22.12-.22,3.05-1.21,6-1.79,9.06-1.28,6.66-2.48,13.34-3.78,20-1.07,5.51-2.5,11-3.28,16.51a100.84,100.84,0,0,1-4,16.94,24.65,24.65,0,0,0-1,8.52,37,37,0,0,1-1.07,8.79c-1.18,5.37-2.61,10.68-4,16a9.87,9.87,0,0,1-.54,1.36H111c-.23-1.54-.49-3.09-.69-4.64-.64-5-.74-10.12-2-15-1.81-7-1.62-14.09-2.51-21.12-.61-4.79-1.49-9.55-2.42-14.3-2.08-10.64-4.13-21.29-5.58-32.05-.53-4-1.76-7.83-2.62-11.75a30,30,0,0,1-1-5.74c-.15-9.81-.13-19.63,1.36-29.35.78-5.08,2.14-10.07,3-15.14a19.73,19.73,0,0,0-.09-5.2c-.3-3.3-.78-6.58-1.11-9.88-.53-5.35-.57-10.78-2.15-16-.82-2.67-2-5.25-3-7.85a9.77,9.77,0,0,0-1.13-1.69l-.36.07c-.12,1.06-.32,2.11-.36,3.17-.26,6.48-.44,13-.75,19.44-.32,6.75-.74,13.49-1.17,20.23a19,19,0,0,1-.67,3.32,5.1,5.1,0,0,1-.61,1.15l-.4,0a8.36,8.36,0,0,1-.31-1.82c.07-1.75.33-3.5.37-5.26.16-6.67.47-13.35.32-20-.15-6.16-.77-12.31-1.28-18.46-.17-2-.47-4-2.49-5.15a2.06,2.06,0,0,0-2.4,0c-.39.25-.76.54-1.16.78-4.41,2.62-6.2,6.49-6,11.59s.16,10,0,15c-.07,3.11-.45,6.21-.68,9.32H73c0-.51,0-1,0-1.52-.28-5.74-.53-11.47-.86-17.2a22.13,22.13,0,0,0-.72-3.66,13.12,13.12,0,0,0-.81-1.86,13.79,13.79,0,0,0-.84,1.55c-1.37,3.7-2.88,7.35-4,11.12a19.52,19.52,0,0,0-.59,6.25,128.82,128.82,0,0,0,7,36.66,27.29,27.29,0,0,0,1.25,2.69h.46a7.67,7.67,0,0,0,.77-1.68c.41-2.18.7-4.39,1.09-6.57,1-5.49,2.08-11,3-16.46a97.08,97.08,0,0,0,1.08-9.76,70,70,0,0,1,3.06-17.71c.33-1,.82-2,1.23-3l.36.13a21.15,21.15,0,0,1-.65,2.52c-1.38,3.56-1.65,7.29-1.86,11-.29,5.23-.44,10.47-1,15.67-.32,3.08-1.36,6.08-1.88,9.16-.34,2-.28,4.08-.46,6.12-.23,2.57-.58,5.12-.75,7.69a26.24,26.24,0,0,0,.12,4.43c0,.48.57.91.88,1.37a5.89,5.89,0,0,0,.93-1.22c1.38-3.51,2.68-7.06,4.07-10.56a21.69,21.69,0,0,1,1.58-2.87,7.78,7.78,0,0,1,.78-.94l.4.14c-.12.58-.2,1.18-.37,1.75-1.15,4-2.72,7.93-3.4,12-1.23,7.35-2.23,14.76-2.73,22.18-.31,4.68.49,9.42.75,14.13.17,3.2.28,6.4.35,9.6a9.31,9.31,0,0,1-.37,2l-.53,0a16.61,16.61,0,0,1-.48-2.59,60.4,60.4,0,0,0-2.39-15.93c-.63-2.05-1.66-4-2.16-6.05a21.75,21.75,0,0,0-2.84-6.37,3.54,3.54,0,0,0-.94-1c.48,6.06,1.28,12.05.88,18.09l-.48.09c-.25-1.06-.56-2.11-.76-3.17-.88-4.72-1.58-9.47-2.64-14.14a42.21,42.21,0,0,0-2.65-7,10.2,10.2,0,0,0-1.59-2l-.36.19a7.74,7.74,0,0,0-.23,1.56c.35,5,.08,10.12,1.24,14.91,2.48,10.21,2.21,20.54,2.39,30.86.1,6.4-.23,12.81-.26,19.22,0,3.12.21,6.24.35,9.36a2.24,2.24,0,0,0,.57,1.31,6.48,6.48,0,0,0,.58-1.49c.42-3.12.85-6.25,1.14-9.4.17-1.74.07-3.51.1-5.27a7.24,7.24,0,0,1,.22-1.72c1,4.94,2.13,9.84,1.51,14.94-.29,2.36-.5,4.74-.61,7.11-.08,1.88.38,2.37,2.19,2.7a33.13,33.13,0,0,0,10.61.23,8.42,8.42,0,0,0,1.91-.51c1.91-.75,2.42-2.07,1.59-3.93a1.83,1.83,0,0,0-.27-.52c-2.86-3.25-2.89-7.29-3.07-11.27-.1-2.12,0-4.25,0-6.37l.55-.06a16.86,16.86,0,0,1,.34,1.72c.33,3.18.59,6.36,1,9.53a5.28,5.28,0,0,0,.91,2.13c.49.74,1.16.59,1.43-.28a5,5,0,0,0,.21-1.38c0-2-.06-4.06-.14-6.09a46.87,46.87,0,0,1,1.22-13.25c.32-1.27,1.06-2.42,1.43-3.68a16.69,16.69,0,0,0,.72-3.88,182.62,182.62,0,0,0-1.06-32c-.5-4.06-.93-8.14-1.33-12.22a15.7,15.7,0,0,1,1-7.24c.07-.16.17-.31.33-.59.11,2.34.09,4.52.34,6.66.68,5.86,1.5,11.69,2.23,17.54q1.16,9.3,2.24,18.6c.41,3.49.77,7,1.06,10.49a7.17,7.17,0,0,1-.29,3,48.15,48.15,0,0,0-2.84,19.57,24.83,24.83,0,0,0,.66,3.9,1.2,1.2,0,0,0,.68.84c.23.06.68-.31.85-.6,2-3.38,4-6.8,4.82-10.72.09-.38.5-.68.76-1,.23.37.69.78.65,1.11a55.8,55.8,0,0,1-1.07,6.18,27.52,27.52,0,0,1-1.64,4.13c-2.43,5.53-3,11.1-.54,16.8a9.22,9.22,0,0,1-.48,8.86,4.88,4.88,0,0,0,.37,5.73c1.35,1.79,3,3.4,4.48,5.07.58.64,1.2,1.23,1.87,1.92a17.17,17.17,0,0,1-9.15-5,6.56,6.56,0,0,1-1.83-4.55c0-2-.14-3.9-.19-5.86a3.15,3.15,0,0,0-1.77-2.81A15.13,15.13,0,0,0,84,240.66a63.09,63.09,0,0,0-9.32.63c-3.16.49-4.74,2.18-4.9,5.38a73.85,73.85,0,0,0,.29,10.62C71,266.47,73,275.48,75,284.45c1.47,6.49,3.61,12.82,5.31,19.39a12.17,12.17,0,0,1-1.52-1.71,16.83,16.83,0,0,1-1.29-2.75c-2.08-5.5-4.12-11-6.18-16.53l-1.14-3.09-.39,0a13.93,13.93,0,0,0-.44,2,178.44,178.44,0,0,0-.51,27.74c.33,4.75,3.29,7.5,8,7.72a9.33,9.33,0,0,1,4.71,1.58c3,1.92,6.07,3.82,9.1,5.73a2.09,2.09,0,0,0,.44.16l-.2.31a4.87,4.87,0,0,1-1.33-.21c-2.11-1-4.2-2-6.32-3a17.64,17.64,0,0,0-4.08-1.6c-3.06-.55-6.16-.83-9.44-1.24.23,2.7.58,5.09,2.14,7,1.78,2.23,3.63,4.4,5.58,6.47a108.12,108.12,0,0,1,11.11,13,31.82,31.82,0,0,1,5.32,22.61,12.9,12.9,0,0,1-.43,1.59l-.36,0a8.31,8.31,0,0,1-.19-1.2c0-1.45,0-2.9.07-4.34a20.82,20.82,0,0,0-3-12,65,65,0,0,0-15.7-18.29c-2.41-1.93-4.77-3.92-7.21-5.8a5.11,5.11,0,0,1-2-3.61c-.57-4.84-1.19-9.68-1.47-14.55-.16-2.82.46-5.68.44-8.52-.07-8.2-.26-16.4-.47-24.6,0-1.69-.39-3.37-.59-5l-.44,0a7.32,7.32,0,0,0-.34,1.34c-.25,3.54-.46,7.09-.7,10.63a17.31,17.31,0,0,1-.37,2h-.33a18.34,18.34,0,0,1-.21-2.33c.29-7.72.57-15.44.94-23.16.08-1.63.54-3.23.78-4.85.2-1.37-.21-1.69-1.47-1.06-1.85.91-3.54,2-4.25,4.12a3.5,3.5,0,0,1-.46.76l-.38-.08a9.81,9.81,0,0,1,.29-1.65c.93-2.44,2-4.83,2.83-7.31.59-1.76.85-3.63,1.33-5.43a26.28,26.28,0,0,0,1.07-3.41,88.11,88.11,0,0,0,.62-8.88c.08-11.36.3-22.74,0-34.1-.34-12.46-1.78-24.83-5.55-36.81a38,38,0,0,0-2.25-5.76c-1.2-2.4-2.46-2.53-4.48-.75a2.21,2.21,0,0,1-1,.54,5.55,5.55,0,0,1,.41-1.29,4.75,4.75,0,0,0,.4-3.84c-.41-1.47-.78-2.95-1.29-4.38-1.75-4.91-1-9.69.64-14.43.5-1.39,1-2.78,1.57-4.16a12.84,12.84,0,0,1,.87-1.58l.36.08a10.5,10.5,0,0,1-.23,2c-.71,2.39-1.41,4.79-2.28,7.13a9.82,9.82,0,0,0,.16,8.15c1,2.06,1.9,4.21,3.11,6.14a8.64,8.64,0,0,0,2.8,2.36c.72.48,1.43.13,1.52-.78a17.67,17.67,0,0,0,.15-3.84c-1.11-9.14-2.29-18.28-3.48-27.41a14.08,14.08,0,0,0-.66-2.15,12.5,12.5,0,0,0-1.29.92c-1.67,1.59-3.32,3.2-5,4.8-.42.4-.84.81-1.29,1.18-1.75,1.44-3.23,1-3.89-1.16a8.93,8.93,0,0,1,.75-7.16,58.53,58.53,0,0,1,4.5-6.08,2.16,2.16,0,0,1,.66-.48,3.59,3.59,0,0,1,.75-.22,9.06,9.06,0,0,1-.68,1.2c-.16.21-.45.3-.67.46-1.78,1.31-4.3,8.69-3.64,10.81.12.41.47,1,.79,1s.87-.32,1.1-.67c.94-1.39,1.82-2.82,2.65-4.27a14.23,14.23,0,0,1,6.79-6.37,10.68,10.68,0,0,1,1.32-.4c.37,2.87.62,5.63,1.12,8.35a92.93,92.93,0,0,0,2.11,9.35c1.36,4.62,4.25,8.39,7.33,12a9,9,0,0,0,1.13.86c-.14-1.09-.17-1.84-.33-2.56q-3.47-15.66-7-31.3a10.81,10.81,0,0,0-.53-1.67c-.71-1.76-1.86-2.62-3.73-2.36-4.86.65-9.72,1.68-13.78,4.5-4.29,3-7,7.14-6.65,12.68A105.9,105.9,0,0,0,39.74,147c.84,2.58,1.23,5.32,2.11,7.88a42.63,42.63,0,0,0,5.86,11.4c4.07,5.6,6.49,12,8.16,18.66,1.39,5.56,2.23,11.24,3.36,16.86.31,1.57.8,3.09,1.17,4.65a11.7,11.7,0,0,1,.42,2.41,146,146,0,0,1-2.08,30.33,19.48,19.48,0,0,1-.87,2.61l-.47-.1a9.6,9.6,0,0,1,0-1.42,88.85,88.85,0,0,0,.34-21.86,105.73,105.73,0,0,0-3.94-22c-1.54-5-3.24-10-4.89-15a9.84,9.84,0,0,0-.7-1.42h-.39a7.13,7.13,0,0,0-.57,1.9c0,1.71.17,3.43.11,5.14-.17,5.23-.34,10.47-.66,15.69a83.87,83.87,0,0,0,.9,17.63c.34,2.3.56,4.62.84,6.93l-.33.1c-.15-.36-.32-.72-.45-1.09a60.69,60.69,0,0,1-3.78-21.9,148.24,148.24,0,0,0-.45-16.73c-.31-3.58-1.44-7.1-2.29-10.62a203.72,203.72,0,0,0-6.77-23.23c-.24-.66-.53-1.3-.8-1.95,0,0-.13,0-.35-.11a126.12,126.12,0,0,0,1,17.61q-1.19-3.81-2.38-7.61l-.23.06c0,1.76-.06,3.53,0,5.29.27,7.26.55,14.52.89,21.78.14,2.88.37,5.77.73,8.63A19.47,19.47,0,0,0,38,207.93a13.72,13.72,0,0,1,3.17,8.94c.4,10.11.91,20.21,1.43,30.32.11,2.12.45,4.24.69,6.48A10.74,10.74,0,0,1,41,247.84c-.2-2.07-.25-4.15-.36-6.22h-.43a7.92,7.92,0,0,0-.19,1,162.63,162.63,0,0,1-4.79,28.83,11.57,11.57,0,0,0,.22,6.57c2.37,7.25,5.1,14.31,9.46,20.67a30.89,30.89,0,0,1,5.54,14.87c.05.56,0,1.12,0,1.69l-.39.09a4.21,4.21,0,0,1-.62-1.26c-.38-4.43-2.49-8.18-4.71-11.86-1.6-2.68-3.42-5.22-5.14-7.83-.79-1.21-1.64-2.39-2.31-3.66-.55-1.06-.86-2.24-1.33-3.34A25.37,25.37,0,0,0,34,283.23a17.23,17.23,0,0,1-2.35-13.38c1.55-7.6,2-15.32,2.69-23,.2-2.14.31-4.29.56-6.42a21,21,0,0,0-.87-9.26,37.17,37.17,0,0,1-1.85-14c.07-1.4,0-2.81,0-4.21a9.21,9.21,0,0,0-1.74-5.23,44.7,44.7,0,0,1-3.71-6.61,16.81,16.81,0,0,1-.84-4.42,11.88,11.88,0,0,1,0-1.79l-.51-.14A8.9,8.9,0,0,0,24.31,197c-.54,2.63-.92,5.29-1.41,7.94-.54,2.83-1.12,5.65-1.71,8.47a28.5,28.5,0,0,0-.7,2.83,7.21,7.21,0,0,1-1.94,4,63,63,0,0,0-7.81,11.09,2.21,2.21,0,0,1-.33.47c-.07.07-.21.06-.66.19a7.2,7.2,0,0,1,.45-1.68,58.85,58.85,0,0,1,4.41-7.7,28.4,28.4,0,0,0,5.23-13c.16-1,.36-1.92.44-2.89s-.19-1.22-1.14-.81c-.56.23-1.1.49-1.91.85.83-2.6,1.52-4.94,2.32-7.23,1.17-3.35,2.33-6.71,3.66-10a32.71,32.71,0,0,0,2.23-11.77c.21-10,.35-20,.76-30,.2-4.82,1.08-9.61,1.42-14.43.29-4,.27-8.11.37-12.16a2.07,2.07,0,0,0-.46-1.21,14.67,14.67,0,0,0-.62,1.49c-1,3.64-1.77,7.39-3.15,10.89a101,101,0,0,0-4.71,14.93c-.91,4.14-1.55,8.35-2.23,12.06-.38-3.87.06-8.35-1.08-12.86-.39.26-.69.35-.78.54-1.63,3.28-3.44,6.49-4.8,9.88a66,66,0,0,0-4.41,20c-.18,2.48-.58,5-.88,7.43a.86.86,0,0,1-.44.61c0-.47-.13-.94-.14-1.41a95.71,95.71,0,0,1,1.27-18.44c.2-1.1.64-2.16.9-3.26a3.18,3.18,0,0,0-.17-1.07,3.67,3.67,0,0,0-1.24.37,2.18,2.18,0,0,0-.67,1.07,7.54,7.54,0,0,1-4.11,4.51L0,166.59c1.72-2.71,3.46-5.41,5.17-8.13.71-1.15,1.36-2.34,2.05-3.5a18.15,18.15,0,0,1,1.37-2.18,44.4,44.4,0,0,0,6.47-12,142.18,142.18,0,0,0,8.57-35.39c.86-7.28,1.92-14.54,2.9-21.81.53-4,.84-8,1.68-11.93,1.74-8,4.94-15.51,8.33-22.94.5-1.1.92-2.24,1.49-3.31,2.79-5.27,3-10.87,2.07-16.58C39,22.62,37.8,16.42,36.64,10.21c-.07-.36-.14-.73-.2-1.09ZM34.46,226.34l.42-.11a86.2,86.2,0,0,0-.74-13.62,1.76,1.76,0,0,0-.44,1.1c.06,3.73.13,7.47.24,11.21A5,5,0,0,0,34.46,226.34Z"/><path class="cls-1" d="M217.64,176q-1.63-9.4-3.29-18.81h-.55a11.13,11.13,0,0,0-.36,1.79c-.18,5.42-.44,10.85-.45,16.27,0,8.71,0,17.43.28,26.14.1,3.73.79,7.44,1.08,11.17.39,4.86.64,9.74,1,14.61.24,3.81.8,4.22,4.55,3.47l1.88-.35-2.68,3.08.09.25c1.24-.18,2.48-.34,3.71-.55s2.62-.44,3.91-.74c1.76-.41,2.07-1.57.92-2.9a1.79,1.79,0,0,1-.24-1.39c.55-2.27,1.29-4.5,1.77-6.78a33,33,0,0,0,.65-11.76c-.42-2.9-1.56-3.58-4.33-2.76-.77.23-1.56.35-2.34.52l-.26-.32a6.63,6.63,0,0,1,.83-1.23,7,7,0,0,1,4.42-1.92c.31,0,.62,0,.93-.05,1.86-.22,2.42-.6,2.46-2.43.12-6.25.09-12.49.13-18.74-1.84-5.68-.84-11.51-1-17.29-.07-3.81-.4-7.61-.61-11.42l-.44,0c-.25.65-.53,1.29-.76,1.94s-.5,1.4-.69,2.11a14.76,14.76,0,0,0-.48,2.17c-1,7.35-1.92,14.7-2.83,22.06-.44,3.56-.77,7.13-1.14,10.7h-.35c0-.54-.13-1.08-.12-1.62.18-6.79.3-13.59.58-20.38a107,107,0,0,1,1-12c1.14-7.28,3.95-14,7.42-20.48a55.21,55.21,0,0,0,5.85-14.49c.5-2.32.67-4.7,1.13-7a26.13,26.13,0,0,1,1.2-3.45l.47.11c-.13,1.37-.25,2.73-.41,4.09-.38,3.37-.91,6.73-1.11,10.12-.14,2.32.26,4.67.25,7,0,4.26-.27,8.51-.26,12.76q0,19.8.21,39.61c0,6.25.32,12.49.27,18.74a69,69,0,0,1-1,7.65,35.34,35.34,0,0,0-.35,3.84c-.11,7.78-.22,15.55-.24,23.32,0,5.28.2,10.56,1.87,15.64.7,2.14,1.67,4.2,2.43,6.33a11.94,11.94,0,0,1,.61,3.23c-1-2.79-3.18-4.22-6-5.31a13,13,0,0,0,0,2.59c1.11,4.94,2.36,9.86,3.4,14.82a44.84,44.84,0,0,1,1,7.64,328.8,328.8,0,0,0,3.62,36.93A46,46,0,0,1,246,327c-.61-1.1-1.33-2.16-1.83-3.31-1.25-2.9-1.54-6-2-9.11-.8-5.36-1.67-10.71-2.73-16a105.09,105.09,0,0,1-1.87-15.09c-.11-2-.57-3.89-.87-5.83h-.47a5.4,5.4,0,0,0-.29,1.22c-.11,5.15-.26,10.3-.28,15.46,0,9.41.12,18.83,0,28.24a75,75,0,0,1-1.09,9.16,5.34,5.34,0,0,1-2.36,3.62A76.37,76.37,0,0,0,217.76,349a47.91,47.91,0,0,0-9.31,17.17c-.35,1.26-.49,2.58-.79,3.85a23.7,23.7,0,0,1,1.9-12c2.6-6.3,6.74-11.56,11.32-16.52,2.49-2.7,5-5.41,7.29-8.25a11.44,11.44,0,0,0,1.76-3.75c1.67-5.21,1.8-10.59,1.49-16.32-.52,1.09-.94,1.93-1.32,2.79a19.8,19.8,0,0,1-6.41,7.92,8.44,8.44,0,0,1-5.3,1.87c-1.48,0-3,0-4.43,0l0-.28,1.45-.3a13.21,13.21,0,0,0,10.29-8.58c1-2.53,2-5.08,3.21-7.52a15.53,15.53,0,0,0,1.83-7.07c-.08-6.95-.18-13.9-.44-20.84-.06-1.72-1-3.41-1.06-5.13a58.35,58.35,0,0,1,.3-7.81,66.84,66.84,0,0,0-.6-19.36c-.71-3.55-2.69-5.81-6.34-6.44-1.43-.25-2.83-.59-4.26-.81a4.74,4.74,0,0,0-1.84.08,2.2,2.2,0,0,0-1.89,2,3,3,0,0,0,1.13,2c1.13.88,2.46,1.51,3.65,2.32a27.35,27.35,0,0,1,2.48,2,4.44,4.44,0,0,1,1.5,4.5c-.73,4.25-2.7,7.54-6.63,9.48-3.35,1.65-6.72,3.24-10.08,4.86l-.26-.44c.56-.41,1.09-.86,1.67-1.23,2.59-1.68,5.21-3.31,7.76-5a26.47,26.47,0,0,0,3.09-2.51,5.52,5.52,0,0,0,1.75-3.61,3.69,3.69,0,0,0-2.07-4.09,23.43,23.43,0,0,0-4.24-1.22,12.5,12.5,0,0,0-1.75-.17c-3.78-.37-5.91-2.58-5.88-6.43,0-3.2.39-6.39.51-9.59a110.29,110.29,0,0,0-.73-20.22,26.09,26.09,0,0,1,.29-7.78,49,49,0,0,0,.49-13.58A210.93,210.93,0,0,1,206,170c-.24-23-.26-45.94-.36-68.91A6.63,6.63,0,0,1,206,99c1.77-5.28,3.39-10.62,5.44-15.79a24.29,24.29,0,0,1,10.43-12c2.38-1.42,4.71-3,7.18-4.17,3.88-1.93,6.63-1.17,9.17,2.32a17.72,17.72,0,0,1,3.45,7.6,3.75,3.75,0,0,1-.19,1.76,7.67,7.67,0,0,1-.34-.78c-1-3.06-3.05-5.21-5.52-7.08a4,4,0,0,0-4.19-.5c-3.74,1.48-6.71,4-9.65,6.7-4.08,3.68-5.79,8.5-6.87,13.66-.25,1.18-.45,2.38-.68,3.56-.19,1,.27,1.46,1.19,1.38a19.13,19.13,0,0,0,3.56-.55c2.32-.69,4.63-1.47,6.24-3.48a1.62,1.62,0,0,1,1.19-.44,6.84,6.84,0,0,1-.62,1.24c-1.38,1.74-2.75,3.49-4.22,5.16a7.18,7.18,0,0,0-1.72,3.63,23.58,23.58,0,0,1-1.21,4.39c-2.3,5.84-2.44,11.87-1.75,18,.17,1.48.35,3,.5,4.43a1.27,1.27,0,0,1-.29.93c-.19-.47-.4-.94-.58-1.42-1.92-5.33-2.06-10.86-1.71-16.42.16-2.48.64-4.95,1-7.42a3.65,3.65,0,0,0,0-.93c-.12-.74-.66-1-1.1-.43a6.4,6.4,0,0,0-1.39,2.84,96.64,96.64,0,0,0-.62,10c0,7.46.13,14.91.32,22.37A13.92,13.92,0,0,0,217,147.4a3.09,3.09,0,0,1,.91,2.4c0,8.25,0,16.49,0,24.73v1.4Z"/><path class="cls-1" d="M174.26,264.72l.51,1.77a11.76,11.76,0,0,0,1.17-1.74c.84-1.89,1.57-3.82,2.41-5.7a6.81,6.81,0,0,1,1.11-1.37l.32.25a3.43,3.43,0,0,1-.33.63,4.43,4.43,0,0,0-.95,3.51c0,.38.27.94.54,1a1.37,1.37,0,0,0,1.09-.44,2.48,2.48,0,0,1,2.41-.88c-.71.6-1.21,1.06-1.75,1.47-1.27,1-2.64,1.81-3.82,2.88a3.86,3.86,0,0,0-1,2.08c-.26,1.37-.31,2.78-.47,4.18a12.53,12.53,0,0,1-.29,1.29C174.2,272.29,173.56,266.47,174.26,264.72Z"/><path class="cls-1" d="M188.3,195.65a19.76,19.76,0,0,1-.61,9.19C186.59,203.35,187,196.82,188.3,195.65Z"/><path class="cls-1" d="M216,32.15l-1,3.61-.54-.14c.31-1.2.63-2.4.94-3.6Z"/><path class="cls-1" d="M257,189.58v-3.31C258,187.3,258,188.3,257,189.58Z"/><path class="cls-1" d="M167.59,210.55c-.18-.92-.26-1.81.65-2.43l.38.1-.63,2.43Z"/><path class="cls-1" d="M200.34,309.08a4.62,4.62,0,0,0-4.87-1.81,15,15,0,0,1-1.52.18,1.87,1.87,0,0,1-2.19-1.46c-.75-2.17.32-7.3,2.63-8.62a15.84,15.84,0,0,0,2.85-2.41,4.84,4.84,0,0,0,1.49-3.92c-.09-1.66-.45-2.05-2.11-2.09a15.78,15.78,0,0,1-2.67-.1c-1.22-.24-1.54-1-.87-2.08.86-1.33,2-2.34,3.74-2.13a6.42,6.42,0,0,0,1.21-.11,2.69,2.69,0,0,0-.24-.45,1.34,1.34,0,0,0-.4-.23c-1.62-.42-3.2-.47-4.49.8a26.92,26.92,0,0,0-2.37,2.74,33.44,33.44,0,0,1-7.1,7.25,5.68,5.68,0,0,1-1.69.54c-.06-.59-.15-1.18-.16-1.78a2.06,2.06,0,0,1,.22-.9c1-2,1.94-4.08,3-6.07s2.32-4,3.38-6a9.69,9.69,0,0,0,1.13-5.32c-.12-1.59-1-2.13-2.35-1.27a7,7,0,0,0-2.18,2.19,46,46,0,0,0-5.34,13.18,9.75,9.75,0,0,1-4.67,6.45,1.92,1.92,0,0,1-2.57-.12,3.51,3.51,0,0,1-1.23-3.41c.67-2.15,1.29-4.33,1.89-6.51a12.61,12.61,0,0,0,.23-1.86l-.29-.11c-.37.53-.79,1-1.11,1.58-1,1.79-1.88,3.7-3.07,5.38a24.74,24.74,0,0,1-3.77,4.09,2.13,2.13,0,0,1-2,.08,2.06,2.06,0,0,1-.71-1.77c.26-1.44.82-2.83,1.22-4.25a29.73,29.73,0,0,0,.85-3.62c.13-.93-.45-1.5-1.39-1.72a6.38,6.38,0,0,0-5.25,1,46.44,46.44,0,0,0-5.26,4.44c-1.68,1.63-3.14,3.48-4.72,5.2a22.37,22.37,0,0,1-1.71,1.48c-.47-3.63.14-6.84.69-10.12-1.38,1.09-2.59,2.29-3.89,3.39-2.6,2.23-5.21,4.46-7.91,6.58a9,9,0,0,1-2.94,1.36c-1,.3-1.48-.3-1-1.22a7,7,0,0,1,1.73-2c1.8-1.43,3.7-2.74,5.52-4.16a8.88,8.88,0,0,0,3.22-4.22c.34-1.05,0-1.63-1.05-1.47a18.35,18.35,0,0,0-4.82,1.22,14.64,14.64,0,0,0-6.2,6.05,19.78,19.78,0,0,1-1.69,2.52,5.57,5.57,0,0,1-1.91,1.47,1.16,1.16,0,0,1-1.61-1.47,9,9,0,0,1,1.08-2.31,22.42,22.42,0,0,1,5.62-5.75c.63-.47,1.18-1,1.76-1.56l-.21-.32-5.72,3-.3-.42,4.06-4.58-.3-.31c-.79.54-1.59,1.06-2.36,1.62a4.78,4.78,0,0,1-3.6,1c-1.88-.25-2-.09-2.82,1.62a33.78,33.78,0,0,1-2.68,4.22c-.3.43-.94.63-1.42.93l-.31-.36c.57-.72,1.16-1.42,1.71-2.15.73-1,1.64-2,1-3.28s-2.11-1.25-3.34-1.06A20.92,20.92,0,0,0,100,295.25c-3.54,6.84-5.18,14.35-6.72,21.85a2.92,2.92,0,0,0,.1.89c1.53-.33,1.58-1.82,2.56-2.84V328.4c1.55-3.08,1.7-6.45,2.06-10l1,1.27c.11-1,.21-1.79.25-2.55.11-1.87.21-3.74.25-5.61A12.74,12.74,0,0,1,105,301.23a24.31,24.31,0,0,0,4.25-4.23,15.26,15.26,0,0,1,5.88-4.34,4.6,4.6,0,0,1,3.53-.22c-1.35,2.71-4.39,3.06-6.39,4.76,3-.26,5.76-1,7.32-3.91,1-1.86,2-3.73,3-5.58a18.2,18.2,0,0,1,1.09-1.56l.38.19c-.41,1.22-.85,2.44-1.24,3.68s-.81,2.61-1.1,3.94a37,37,0,0,0-.64,3.93c-.15,1.3-.17,2.62-.25,3.94a8.13,8.13,0,0,0,.74-2.25c.51-2.25.76-2.42,3-2.05,3.28.53,3.69,1,2.87,4.24-.77,3,0,5.62,1.4,8.19a7.93,7.93,0,0,0,.68.8,4.29,4.29,0,0,0,.05-.78q-.17-1-.39-2c-.89-4,1.3-8.59,5.08-10a27,27,0,0,0,6.06-3.68c.94-.68,1.85-1.4,2.78-2.11,2.19,3.62,1.31,7.9,3,11.57.52-4,2.5-7.13,5.07-10,.68,3.11-.33,6-.65,9a5.47,5.47,0,0,0,1.5-1.92c.57-1.77,2-2.52,3.45-3.27q1.56-.81,3.18-1.47c1.46-.58,1.7-.49,2.32.95.54,1.23,1,2.5,1.5,3.84a17.91,17.91,0,0,1,6.34-5.73c.48,3.94.93,7.63,1.42,11.58.27-2.31.51-4.36.76-6.41a1.84,1.84,0,0,1,1.87-1.73,7.85,7.85,0,0,0,4.5-1.78,1.57,1.57,0,0,1,2.05-.13,3.92,3.92,0,0,0,4.81-.23,30.16,30.16,0,0,0,4.27-3.62c2.33-2.46,5.13-2.56,8.12-2,1.33.27,1.52,1,.64,2a4.62,4.62,0,0,1-1,.86c-1.65,1-3.26,2.15-5,3a16.18,16.18,0,0,0-7.36,7.11,25.17,25.17,0,0,1-6.9,8c-1.41,1.11-2.71,2.35-4,3.57a7.47,7.47,0,0,0-.86,1.13l.21.25a12.36,12.36,0,0,0,1.49-.78c2.38-1.7,4.76-3.41,7.11-5.16a15,15,0,0,0,4.55-5.71,17.07,17.07,0,0,1,1.7-2.93A7.51,7.51,0,0,1,189,301a18,18,0,0,1,.57,2.12,37.25,37.25,0,0,0,.47,4.26c.39,1.59,1.14,2,2.77,1.91,1.32-.07,2.65-.22,4-.37a3,3,0,0,1,3.22,1.62,9.26,9.26,0,0,1,1.32,4.79,12.83,12.83,0,0,0,.17,1.49l.55.06a8.42,8.42,0,0,0,.52-2.09A9,9,0,0,0,200.34,309.08Zm-18.7-22c1.11-3.46,1.83-7.09,4.12-10.07a11.64,11.64,0,0,1,1.35-1.27l.48.37a41.2,41.2,0,0,1-5.69,11.44C181.7,287.19,181.62,287.11,181.64,287.06Zm-47.92,1.35c.62-.94.85-1.35,1.25-1.57a3.65,3.65,0,0,1,1.56-.31h1.57l-5.32,3.75A8.73,8.73,0,0,1,133.72,288.41Zm-27.86,3.12.29.3a4.84,4.84,0,0,1-3,3.16l-.3-.28ZM102,299.25c.42-.61.65-1,.95-1.36,1.79-2.06,3.62-4.07,5.38-6.16.92-1.09,1.65-2.35,2.61-3.41a13.54,13.54,0,0,1,2.33-1.66C113.27,288.87,105.08,297.85,102,299.25Zm51.66-6.73a11.56,11.56,0,0,1,1.24-1.08c.05,0,.31.23.47.36l-1.14,1.44A8.1,8.1,0,0,1,153.7,292.52Zm.84,2.48-.21-.23,2.32-1.84C156.66,294,156.22,294.37,154.54,295Zm1.82-5.56a.94.94,0,0,1-.83-.14.81.81,0,0,1,.07-.79,12.67,12.67,0,0,1,5.49-3.54A10.24,10.24,0,0,1,156.36,289.44Zm3.9.12-.3-.27,1.6-2.2.42.33Z"/></g></g></svg>